<?xml version="1.0" encoding="UTF-8"?>
<svg version="1.1" xmlns="http://www.w3.org/2000/svg" width="500" height="500">
<path d="M0 0 C1.10301956 -0.00571014 2.20603912 -0.01142029 3.34248352 -0.01730347 C4.53792786 -0.01842133 5.73337219 -0.01953918 6.96504211 -0.02069092 C8.23572037 -0.02565582 9.50639862 -0.03062073 10.81558228 -0.03573608 C14.29106084 -0.048806 17.76652014 -0.05529459 21.24201941 -0.05974674 C23.41809135 -0.06268663 25.59415812 -0.06679316 27.77022743 -0.07125092 C34.59232929 -0.0849125 41.41441923 -0.09458532 48.23653382 -0.09845281 C56.08609986 -0.1029284 63.93549133 -0.12045864 71.78500432 -0.1494534 C77.86932687 -0.17114018 83.95360055 -0.18116083 90.0379613 -0.18249393 C93.66396333 -0.18353709 97.28980095 -0.18933973 100.91576195 -0.20731354 C104.96745093 -0.22700824 109.01877911 -0.22247754 113.07051086 -0.21600342 C114.84849564 -0.22982559 114.84849564 -0.22982559 116.66239929 -0.243927 C130.7781932 -0.17355577 143.97454262 4.0966587 154.42720032 13.92559814 C168.97653703 30.7612592 167.81440238 51.65081408 167.7771709 72.67890549 C167.77404004 75.41705088 167.78021381 78.15514657 167.78620964 80.8932848 C167.80016321 87.36275844 167.79876995 93.83209976 167.78730774 100.30157471 C167.77582651 106.92732917 167.78992308 113.55267882 167.81670421 120.17838001 C167.83900395 125.91481486 167.84546705 131.65112397 167.8396278 137.38759899 C167.83629192 140.79287121 167.8384445 144.19788406 167.85587883 147.6031189 C167.94006023 168.88854671 167.65424097 186.89316248 152.65376282 203.45294189 C147.93914524 207.96298041 142.26047301 210.53598941 136.34126282 213.14044189 C138.03895813 213.21391846 138.03895813 213.21391846 139.77095032 213.28887939 C141.2527462 213.36390703 142.73451582 213.43945487 144.21626282 213.51544189 C144.96263 213.54637939 145.70899719 213.57731689 146.47798157 213.60919189 C152.11470032 213.91387939 152.11470032 213.91387939 154.34126282 216.14044189 C150.59151931 217.3903564 146.94250136 217.53932956 143.02876282 217.76544189 C142.2817511 217.81700439 141.53473938 217.86856689 140.76509094 217.92169189 C140.03096985 217.96552002 139.29684875 218.00934814 138.54048157 218.05450439 C137.87878967 218.095271 137.21709778 218.1360376 136.53535461 218.17803955 C134.34126282 218.14044189 134.34126282 218.14044189 131.57077789 217.64602852 C128.473815 217.16119319 125.60577288 217.01464585 122.47492981 217.01345825 C121.3257608 217.01063843 120.1765918 217.0078186 118.99259949 217.00491333 C117.74576385 217.00693756 116.49892822 217.00896179 115.21430969 217.01104736 C113.87655083 217.00969098 112.53879234 217.00790972 111.20103455 217.0057373 C107.57658913 217.00118763 103.95217226 217.00294333 100.32772636 217.00611639 C96.51994121 217.00865692 92.71215842 217.00629735 88.90437317 217.00473022 C82.50214706 217.0029117 76.09993249 217.00530469 69.69770813 217.0100708 C62.32813698 217.01549421 54.95859358 217.01376351 47.58902311 217.0082444 C41.23968887 217.00368193 34.8903629 217.00307851 28.54102755 217.00568306 C24.75905689 217.00723109 20.97709919 217.00748089 17.19512939 217.00414658 C13.62954308 217.00122279 10.06399186 217.00332486 6.49840927 217.00904083 C4.59032487 217.01095991 2.68223745 217.00805186 0.77415466 217.00491333 C-6.35293136 217.02206504 -13.38848954 217.34159911 -20.48987579 217.9567585 C-26.51602862 218.3060651 -32.54839557 218.5473363 -37.65873718 215.14044189 C-33.60565385 214.03254655 -29.58762344 213.80312923 -25.40873718 213.57794189 C-24.66365906 213.5347583 -23.91858093 213.49157471 -23.15092468 213.44708252 C-21.32038819 213.34147464 -19.48958543 213.24049988 -17.65873718 213.14044189 C-18.43217468 212.78852783 -19.20561218 212.43661377 -20.00248718 212.07403564 C-32.19829142 206.29310368 -40.37401298 199.31077626 -45.72514343 186.60919189 C-47.79033012 180.62314353 -48.77367269 174.90538568 -48.9707489 168.56817627 C-49.03275986 166.58956604 -49.03275986 166.58956604 -49.09602356 164.57098389 C-49.13570308 163.12540143 -49.17481961 161.67980344 -49.21342468 160.23419189 C-49.23436062 159.49125381 -49.25529655 158.74831573 -49.27686691 157.98286438 C-49.74429161 141.16717118 -49.81282051 124.35423053 -49.78910828 107.53302002 C-49.78452363 104.25695992 -49.78457439 100.9809552 -49.78910828 97.70489502 C-49.81088304 81.94269945 -49.80830106 66.17824167 -49.33842468 50.42169189 C-49.31644012 49.40941528 -49.29445557 48.39713867 -49.27180481 47.35418701 C-48.81074665 34.84906563 -44.59253237 23.0380277 -35.90873718 13.82794189 C-25.88498223 4.52833654 -13.62362969 0.04249779 0 0 Z M80.34126282 45.14044189 C79.68126282 46.13044189 79.02126282 47.12044189 78.34126282 48.14044189 C69.28906105 49.4280278 59.45582492 47.71139728 50.37315369 46.85733032 C37.13014156 45.6321694 23.95537897 44.83110607 10.65376282 44.82794189 C9.35591858 44.82278564 8.05807434 44.81762939 6.72090149 44.81231689 C-6.37374537 44.53788865 -6.37374537 44.53788865 -17.65873718 50.14044189 C-18.24207052 53.64044189 -18.24207052 53.64044189 -17.65873718 57.14044189 C-14.55419988 61.07052376 -10.4056715 61.55468364 -5.65873718 62.14044189 C-0.05187845 62.45588021 5.53947493 62.47126129 11.15376282 62.45294189 C12.36724396 62.45618973 12.36724396 62.45618973 13.60523987 62.45950317 C23.89742711 62.47966625 34.08908105 62.09191667 44.34516907 61.21856689 C45.33799393 61.13676682 46.33081879 61.05496674 47.35372925 60.97068787 C52.21587914 60.56457087 57.06746692 60.11375089 61.9186554 59.59283447 C74.75223818 58.3595326 74.75223818 58.3595326 79.1789093 60.53497314 C81.14491744 62.28560075 82.71138824 64.08190578 84.34126282 66.14044189 C87.0817562 67.88190962 87.0817562 67.88190962 89.65376282 69.01544189 C90.88546204 69.59938721 90.88546204 69.59938721 92.14204407 70.19512939 C100.60589133 73.8332307 112.73604918 73.45522357 121.46626282 70.57794189 C126.85033681 68.25979892 132.65237435 64.51821882 135.34126282 59.14044189 C135.86671992 54.35102959 135.86730336 50.32975095 133.90376282 45.89044189 C126.69646734 38.15578333 119.03677637 35.22738372 108.63227844 34.80841064 C97.55648148 34.5821641 88.04034258 36.72308064 80.34126282 45.14044189 Z M-17.65873718 88.14044189 C-17.74664693 90.43195607 -17.76567757 92.72616714 -17.75639343 95.01934814 C-17.75497849 95.70601059 -17.75356354 96.39267303 -17.75210571 97.10014343 C-17.74649197 99.30111991 -17.73393725 101.50199598 -17.72123718 103.70294189 C-17.71622395 105.19187272 -17.71166074 106.68080514 -17.70756531 108.16973877 C-17.69651811 111.82667264 -17.67924431 115.48354748 -17.65873718 119.14044189 C-16.00259061 119.52262957 -14.33416694 119.85439291 -12.65873718 120.14044189 C-11.1092345 118.59093922 -11.44218525 117.04053596 -11.34233093 114.88653564 C-11.3004364 114.03253174 -11.25854187 113.17852783 -11.21537781 112.29864502 C-11.1760614 111.40081299 -11.136745 110.50298096 -11.09623718 109.57794189 C-11.05305359 108.67624268 -11.00987 107.77454346 -10.96537781 106.84552002 C-10.85895735 104.61069034 -10.75831237 102.37558703 -10.65873718 100.14044189 C-8.01873718 103.77044189 -5.37873718 107.40044189 -2.65873718 111.14044189 C0.94367462 107.73816408 3.6215342 104.26692669 6.34126282 100.14044189 C7.00126282 99.81044189 7.66126282 99.48044189 8.34126282 99.14044189 C8.34126282 106.07044189 8.34126282 113.00044189 8.34126282 120.14044189 C9.99126282 120.14044189 11.64126282 120.14044189 13.34126282 120.14044189 C15.24976229 118.23194242 14.47185915 114.82565415 14.47407532 112.29669189 C14.47503204 111.61240112 14.47598877 110.92811035 14.47697449 110.2230835 C14.47765611 108.77382312 14.47580304 107.32455971 14.47163391 105.87530518 C14.46628534 103.64981262 14.47157942 101.42452189 14.47798157 99.19903564 C14.47732078 97.79408728 14.47603961 96.38913904 14.47407532 94.98419189 C14.47238342 93.05349854 14.47238342 93.05349854 14.47065735 91.08380127 C14.67812425 88.25218032 14.67812425 88.25218032 13.34126282 87.14044189 C10.45487018 86.65532728 10.45487018 86.65532728 7.34126282 87.14044189 C5.2109209 89.19521266 5.2109209 89.19521266 3.65376282 91.95294189 C1.73778868 95.00528689 0.0166017 97.70758086 -2.65873718 100.14044189 C-3.38190125 98.98415283 -3.38190125 98.98415283 -4.11967468 97.80450439 C-5.06713562 96.30016846 -5.06713562 96.30016846 -6.03373718 94.76544189 C-6.66022156 93.76770752 -7.28670593 92.76997314 -7.93217468 91.74200439 C-9.5514343 89.11564 -9.5514343 89.11564 -11.65873718 87.14044189 C-14.94883511 86.69283283 -14.94883511 86.69283283 -17.65873718 88.14044189 Z M21.34126282 87.14044189 C21.34126282 98.03044189 21.34126282 108.92044189 21.34126282 120.14044189 C28.93126282 120.14044189 36.52126282 120.14044189 44.34126282 120.14044189 C44.67126282 118.49044189 45.00126282 116.84044189 45.34126282 115.14044189 C44.12697294 113.69655618 44.12697294 113.69655618 40.52485657 114.04278564 C38.942796 114.04946101 37.36075123 114.06142314 35.77876282 114.07794189 C34.97245422 114.08245361 34.16614563 114.08696533 33.33540344 114.09161377 C31.33732526 114.10343672 29.33928499 114.12137275 27.34126282 114.14044189 C27.34126282 111.50044189 27.34126282 108.86044189 27.34126282 106.14044189 C32.29126282 106.14044189 37.24126282 106.14044189 42.34126282 106.14044189 C42.67126282 104.49044189 43.00126282 102.84044189 43.34126282 101.14044189 C38.39126282 100.81044189 33.44126282 100.48044189 28.34126282 100.14044189 C28.01126282 97.83044189 27.68126282 95.52044189 27.34126282 93.14044189 C28.47305969 93.15204346 29.60485657 93.16364502 30.77095032 93.17559814 C32.25271951 93.18497643 33.73449047 93.19407659 35.21626282 93.20294189 C35.96263 93.2113208 36.70899719 93.21969971 37.47798157 93.22833252 C41.5397186 93.34732274 41.5397186 93.34732274 45.34126282 92.14044189 C45.01126282 90.49044189 44.68126282 88.84044189 44.34126282 87.14044189 C36.75126282 87.14044189 29.16126282 87.14044189 21.34126282 87.14044189 Z M62.34126282 87.14044189 C58.49745849 94.61775123 54.8075249 102.1396932 51.40376282 109.82794189 C51.09752991 110.51050049 50.791297 111.19305908 50.4757843 111.89630127 C49.19937744 114.81673778 48.34126282 116.91738028 48.34126282 120.14044189 C50.67085752 120.64285511 50.67085752 120.64285511 53.34126282 120.14044189 C56.38724377 116.56201498 56.38724377 116.56201498 57.34126282 112.14044189 C62.29126282 112.47044189 67.24126282 112.80044189 72.34126282 113.14044189 C73.33126282 115.45044189 74.32126282 117.76044189 75.34126282 120.14044189 C77.32126282 120.14044189 79.30126282 120.14044189 81.34126282 120.14044189 C80.28177063 113.68906385 77.45392727 107.93140876 74.90376282 101.95294189 C74.40038391 100.75218018 73.897005 99.55141846 73.37837219 98.31427002 C72.65037415 96.59820557 72.65037415 96.59820557 71.90766907 94.84747314 C71.4636676 93.8005127 71.01966614 92.75355225 70.56221008 91.67486572 C69.46820632 89.04728664 69.46820632 89.04728664 67.34126282 87.14044189 C64.75772063 86.97356742 64.75772063 86.97356742 62.34126282 87.14044189 Z M86.34126282 87.14044189 C86.17375353 91.51847375 86.01318347 95.89668789 85.85908508 100.27520752 C85.80566278 101.76518631 85.7503332 103.25509798 85.69306946 104.74493408 C85.61116445 106.88443526 85.53608572 109.02408283 85.46235657 111.16387939 C85.41522522 112.45213623 85.36809387 113.74039307 85.3195343 115.06768799 C85.11486281 118.05504001 85.11486281 118.05504001 86.34126282 120.14044189 C89.98707969 120.16931701 93.63286745 120.18719774 97.27876282 120.20294189 C98.31968079 120.2113208 99.36059875 120.21969971 100.43305969 120.22833252 C101.9170929 120.2331665 101.9170929 120.2331665 103.43110657 120.23809814 C104.34754944 120.24333496 105.26399231 120.24857178 106.20820618 120.25396729 C108.32489305 120.37965401 108.32489305 120.37965401 109.34126282 119.14044189 C109.34126282 117.49044189 109.34126282 115.84044189 109.34126282 114.14044189 C103.73126282 114.14044189 98.12126282 114.14044189 92.34126282 114.14044189 C92.35286438 112.27516846 92.36446594 110.40989502 92.37641907 108.48809814 C92.38579507 106.05971372 92.39489547 103.63132823 92.40376282 101.20294189 C92.41214172 99.97124268 92.42052063 98.73954346 92.42915344 97.47052002 C92.4323761 96.3006958 92.43559875 95.13087158 92.43891907 93.92559814 C92.44415588 92.84157715 92.4493927 91.75755615 92.45478821 90.64068604 C92.62553179 88.19994242 92.62553179 88.19994242 91.34126282 87.14044189 C89.67509167 87.09980357 88.00738187 87.09772089 86.34126282 87.14044189 Z M112.34126282 92.14044189 C111.55088546 95.00195409 111.59093067 97.27289347 112.34126282 100.14044189 C115.62929501 105.07249019 119.6110982 106.06866698 125.13423157 107.26934814 C127.34126282 108.14044189 127.34126282 108.14044189 128.64204407 110.23028564 C128.87278625 110.86063721 129.10352844 111.49098877 129.34126282 112.14044189 C125.1710467 114.17208564 122.74720344 114.21947386 118.46626282 112.76544189 C117.0845851 112.24104276 115.70703882 111.70496264 114.34126282 111.14044189 C112.85626282 113.61544189 112.85626282 113.61544189 111.34126282 116.14044189 C117.45429255 119.76297803 122.22285284 121.15735761 129.34126282 120.14044189 C132.30342986 118.90620563 133.71775652 117.90565417 135.71626282 115.45294189 C136.68658552 111.86274789 136.5470612 108.621467 135.34126282 105.14044189 C131.48075812 101.56947505 127.18851267 100.31763114 122.19673157 99.04669189 C120.34126282 98.14044189 120.34126282 98.14044189 119.57954407 96.04669189 C119.50091125 95.41762939 119.42227844 94.78856689 119.34126282 94.14044189 C124.28493736 92.93466762 127.54988694 93.5113741 132.34126282 95.14044189 C133.00126282 93.49044189 133.66126282 91.84044189 134.34126282 90.14044189 C126.80582395 85.38121735 118.10757023 84.85668516 112.34126282 92.14044189 Z M-17.65873718 140.14044189 C-17.98873718 140.80044189 -18.31873718 141.46044189 -18.65873718 142.14044189 C-17.75303996 144.85098456 -17.75303996 144.85098456 -15.65873718 147.14044189 C-12.47842468 147.92384398 -12.47842468 147.92384398 -8.80326843 147.84747314 C-8.14163193 147.86259445 -7.47999542 147.87771576 -6.79830933 147.89329529 C-4.68893995 147.93621972 -2.581 147.94501317 -0.47123718 147.95294189 C0.96044157 147.97608308 2.39208623 148.00144766 3.82368469 148.02911377 C7.32951604 148.09200805 10.83486934 148.12430964 14.34126282 148.14044189 C14.34126282 149.79044189 14.34126282 151.44044189 14.34126282 153.14044189 C10.71514921 153.9816442 7.42621438 154.23734945 3.70845032 154.16778564 C2.65528625 154.15553955 1.60212219 154.14329346 0.51704407 154.13067627 C-1.6913529 154.09539419 -3.89969218 154.05630469 -6.10795593 154.01348877 C-7.68383484 153.99705322 -7.68383484 153.99705322 -9.29154968 153.98028564 C-10.24948425 153.96344727 -11.20741882 153.94660889 -12.19438171 153.92926025 C-14.91447089 153.96308506 -14.91447089 153.96308506 -17.65873718 156.14044189 C-18.56366328 158.09239909 -18.56366328 158.09239909 -18.65873718 160.14044189 C-15.82994432 162.96923476 -13.85949521 162.4547085 -9.90092468 162.55450439 C-9.23787323 162.57387054 -8.57482178 162.59323669 -7.89167786 162.6131897 C-5.77249542 162.67300143 -3.65325868 162.71937577 -1.53373718 162.76544189 C-0.09751549 162.80362035 1.33868327 162.84267201 2.77485657 162.88262939 C6.29678218 162.97870314 9.8188789 163.06272831 13.34126282 163.14044189 C14.00126282 165.12044189 14.66126282 167.10044189 15.34126282 169.14044189 C-0.49873718 169.63544189 -0.49873718 169.63544189 -16.65873718 170.14044189 C-17.31873718 172.12044189 -17.97873718 174.10044189 -18.65873718 176.14044189 C-16.93045991 177.86871917 -14.5767827 177.37238976 -12.21733093 177.45684814 C-11.08319763 177.49906494 -9.94906433 177.54128174 -8.78056335 177.58477783 C-7.56473572 177.62377197 -6.34890808 177.66276611 -5.09623718 177.70294189 C-3.86945251 177.7432251 -2.64266785 177.7835083 -1.37870789 177.82501221 C2.19444685 177.93710749 5.76778313 178.03933503 9.34126282 178.14044189 C10.70154602 178.18563965 10.70154602 178.18563965 12.08930969 178.23175049 C14.27752744 178.30186277 16.46480408 178.35143501 18.65376282 178.39044189 C19.82552063 178.41622314 20.99727844 178.44200439 22.20454407 178.46856689 C26.64881616 178.00366172 29.87281441 176.51931175 33.13423157 173.45684814 C33.59442688 172.87805908 34.05462219 172.29927002 34.52876282 171.70294189 C34.9966925 171.12673096 35.46462219 170.55052002 35.94673157 169.95684814 C37.41864058 168.14377071 37.41864058 168.14377071 38.52485657 165.90997314 C40.34126282 164.14044189 40.34126282 164.14044189 43.77095032 163.89825439 C45.25428358 163.99997946 46.73614924 164.12441235 48.21626282 164.26544189 C49.46161804 164.35523315 49.46161804 164.35523315 50.73213196 164.44683838 C53.60387243 164.65699107 56.47216638 164.89692219 59.34126282 165.14044189 C74.61196739 166.40570857 89.82060182 167.35253817 105.14402771 167.43899536 C106.71541419 167.44818523 108.28678104 167.46216797 109.858078 167.48129272 C122.4628855 167.81424742 122.4628855 167.81424742 134.34126282 164.14044189 C136.65416042 161.25583127 136.65416042 161.25583127 136.40376282 157.64044189 C135.6876777 153.85976155 135.6876777 153.85976155 132.15376282 152.26544189 C123.97495271 149.85202252 115.99162159 149.9038992 107.52876282 149.89044189 C106.4388504 149.88643875 106.4388504 149.88643875 105.32691956 149.88235474 C90.45863544 149.85677463 75.70739456 150.87712363 60.90058899 152.16094971 C60.05639908 152.23166183 59.21220917 152.30237396 58.34243774 152.37522888 C56.77104083 152.50794196 55.20021659 152.64773165 53.63024902 152.79640198 C48.68986242 153.21371974 44.22913376 153.04851496 39.34126282 152.14044189 C36.98579407 149.96075439 36.98579407 149.96075439 35.15376282 147.26544189 C32.51706026 143.4574883 30.51206441 141.21032412 26.34126282 139.14044189 C23.41771286 138.71492424 23.41771286 138.71492424 20.29048157 138.81231689 C19.12363831 138.81666748 17.95679504 138.82101807 16.7545929 138.82550049 C15.52506897 138.84693115 14.29554504 138.86836182 13.02876282 138.89044189 C11.7766803 138.90284912 10.52459778 138.91525635 9.23457336 138.92803955 C-4.2550803 138.89534853 -4.2550803 138.89534853 -17.65873718 140.14044189 Z " fill="#FC5964" transform="translate(197.6587371826172,146.85955810546875)"/>
<path d="M0 0 C2.64 0 5.28 0 8 0 C8 0.33 8 0.66 8 1 C7.08001221 1.03432129 6.16002441 1.06864258 5.2121582 1.10400391 C1.78300422 1.68849804 1.78300422 1.68849804 0.14135742 4.72802734 C-0.61890747 6.51394287 -0.61890747 6.51394287 -1.39453125 8.3359375 C-1.67221848 8.97109283 -1.9499057 9.60624817 -2.23600769 10.26065063 C-3.11699492 12.29004846 -3.9646737 14.33155824 -4.8125 16.375 C-5.40088518 17.74309672 -5.99135798 19.11029762 -6.58398438 20.4765625 C-9.48533125 27.16310709 -9.48533125 27.16310709 -12 34 C-9.06361777 33.43968727 -9.06361777 33.43968727 -6 32 C-5.01 30.02 -4.02 28.04 -3 26 C1.95 26 6.9 26 12 26 C12.99 28.64 13.98 31.28 15 34 C12 33 12 33 10.8125 30.9375 C10.544375 30.298125 10.27625 29.65875 10 29 C5.94581557 28.65577679 2.04089313 28.45217422 -2 29 C-4.37227618 31.84968468 -4.37227618 31.84968468 -6 35 C-10.9276987 36.21031196 -15.73992894 36.00281709 -20.78125 35.96484375 C-22.68749908 35.95553849 -24.59374913 35.94643156 -26.5 35.9375 C-27.46292969 35.92912109 -28.42585937 35.92074219 -29.41796875 35.91210938 C-30.34222656 35.90888672 -31.26648438 35.90566406 -32.21875 35.90234375 C-33.06373047 35.89710693 -33.90871094 35.89187012 -34.77929688 35.88647461 C-37.17477643 35.90971402 -37.17477643 35.90971402 -40 37 C-40.97685365 32.9269597 -41.11545444 29.131793 -41.09765625 24.94921875 C-41.0962413 24.29041214 -41.09482635 23.63160553 -41.09336853 22.95283508 C-41.087805 20.86434238 -41.07525947 18.77595989 -41.0625 16.6875 C-41.05748028 15.26497551 -41.0529182 13.84244934 -41.04882812 12.41992188 C-41.03784757 8.94657923 -41.02060835 5.47330039 -41 2 C-40.34 2 -39.68 2 -39 2 C-39 12.56 -39 23.12 -39 34 C-31.41 33.67 -23.82 33.34 -16 33 C-16 31.68 -16 30.36 -16 29 C-21.61 28.67 -27.22 28.34 -33 28 C-33 25.36 -33 22.72 -33 20 C-28.05 19.67 -23.1 19.34 -18 19 C-17.67 17.68 -17.34 16.36 -17 15 C-18.07121094 15.01160156 -19.14242187 15.02320313 -20.24609375 15.03515625 C-21.64322743 15.04453299 -23.04036299 15.05363331 -24.4375 15.0625 C-25.14455078 15.07087891 -25.85160156 15.07925781 -26.58007812 15.08789062 C-28.38693559 15.09653588 -30.19387603 15.05220011 -32 15 C-32.33 14.67 -32.66 14.34 -33 14 C-33 11.69 -33 9.38 -33 7 C-27.72 7 -22.44 7 -17 7 C-17 7.33 -17 7.66 -17 8 C-21.95 8 -26.9 8 -32 8 C-31.67 9.65 -31.34 11.3 -31 13 C-29.94039062 13 -28.88078125 13 -27.7890625 13 C-23.19270833 13 -18.59635417 13 -14 13 C-13.34 11.35 -12.68 9.7 -12 8 C-10.02 8.99 -8.04 9.98 -6 11 C-3.13546142 7.58983503 -1.65296434 4.09305456 0 0 Z " fill="#EF5A64" transform="translate(258,233)"/>
<path d="M0 0 C1.16015625 0.00322266 2.3203125 0.00644531 3.515625 0.00976562 C5.32546875 0.02233398 5.32546875 0.02233398 7.171875 0.03515625 C9.00492187 0.04192383 9.00492187 0.04192383 10.875 0.04882812 C13.89067446 0.0606081 16.90624998 0.07705772 19.921875 0.09765625 C19.921875 0.75765625 19.921875 1.41765625 19.921875 2.09765625 C21.571875 2.42765625 23.221875 2.75765625 24.921875 3.09765625 C24.921875 3.75765625 24.921875 4.41765625 24.921875 5.09765625 C24.24125 4.88109375 23.560625 4.66453125 22.859375 4.44140625 C10.59602095 0.91895349 -2.49224721 -0.05360876 -14.078125 6.09765625 C-17.09449914 8.06512662 -19.48109237 10.12168816 -21.3840332 13.23242188 C-23.078125 15.09765625 -23.078125 15.09765625 -25.60620117 15.54101562 C-26.62174072 15.50814453 -27.63728027 15.47527344 -28.68359375 15.44140625 C-29.84938965 15.4053125 -31.01518555 15.36921875 -32.21630859 15.33203125 C-38.50579268 14.95032024 -44.77329802 14.40440501 -51.04623413 13.81454468 C-64.28924625 12.58938376 -77.46400885 11.78832043 -90.765625 11.78515625 C-92.06346924 11.78 -93.36131348 11.77484375 -94.69848633 11.76953125 C-106.9579812 11.68816469 -106.9579812 11.68816469 -118.078125 16.09765625 C-118.74489378 19.55515574 -118.74489378 19.55515574 -118.078125 23.09765625 C-111.09081565 29.26292921 -99.21638796 27.32937071 -90.453125 27.34765625 C-89.6366449 27.35231903 -88.82016479 27.35698181 -87.97894287 27.36178589 C-77.62587247 27.40693409 -67.3797614 27.0609226 -57.0625 26.1796875 C-56.07041534 26.09764069 -55.07833069 26.01559387 -54.05618286 25.93106079 C-49.19754657 25.52327946 -44.34930898 25.0702926 -39.50146484 24.54980469 C-26.70458279 23.3221531 -26.70458279 23.3221531 -22.08886719 25.52294922 C-19.40656931 27.81281706 -17.64922673 29.95545279 -16.078125 33.09765625 C-18.61305344 32.01125835 -20.01251351 31.17742236 -21.78808594 29.01879883 C-24.98086696 26.34033466 -26.86771432 26.78054885 -30.96875 27.109375 C-31.96391632 27.18089531 -31.96391632 27.18089531 -32.97918701 27.25386047 C-35.09758048 27.41109689 -37.21219958 27.59786142 -39.328125 27.78515625 C-40.73553212 27.89318163 -42.14308537 27.99932061 -43.55078125 28.10351562 C-50.08146986 28.60079229 -56.58983368 29.19837235 -63.078125 30.09765625 C-63.078125 30.42765625 -63.078125 30.75765625 -63.078125 31.09765625 C-67.038125 31.59265625 -67.038125 31.59265625 -71.078125 32.09765625 C-71.078125 31.43765625 -71.078125 30.77765625 -71.078125 30.09765625 C-72.08077393 30.10812988 -73.08342285 30.11860352 -74.11645508 30.12939453 C-77.88676286 30.16598201 -81.65705543 30.18869559 -85.42749023 30.20751953 C-87.04991304 30.21748982 -88.67231829 30.23107094 -90.29467773 30.24853516 C-109.72617149 30.45225726 -109.72617149 30.45225726 -117.078125 28.09765625 C-117.738125 27.43765625 -118.398125 26.77765625 -119.078125 26.09765625 C-120.39559824 25.40017042 -121.72726693 24.72805668 -123.078125 24.09765625 C-122.51599034 20.7248483 -121.63892276 18.12170191 -120.078125 15.09765625 C-119.72582915 13.76920733 -119.38980639 12.43621652 -119.078125 11.09765625 C-109.7519644 9.17110989 -100.6273569 8.74276633 -91.140625 8.78515625 C-90.02701096 8.78539795 -90.02701096 8.78539795 -88.89089966 8.78564453 C-74.22169446 8.80743636 -59.69151556 9.87575962 -45.09318542 11.23979187 C-33.22334599 13.27099065 -33.22334599 13.27099065 -22.578125 10.09765625 C-22.083125 9.43765625 -21.588125 8.77765625 -21.078125 8.09765625 C-20.418125 8.09765625 -19.758125 8.09765625 -19.078125 8.09765625 C-19.078125 7.43765625 -19.078125 6.77765625 -19.078125 6.09765625 C-17.66484371 5.27928183 -16.24734154 4.46819406 -14.828125 3.66015625 C-14.03921875 3.20769531 -13.2503125 2.75523437 -12.4375 2.2890625 C-8.25095124 0.17499401 -4.66931775 -0.02288881 0 0 Z " fill="#D35A65" transform="translate(299.078125,180.90234375)"/>
<path d="M0 0 C7.68421053 -0.29554656 7.68421053 -0.29554656 11 2 C11.33 2.66 11.66 3.32 12 4 C15.36488736 5.24494085 18.70699309 5.1179718 22.26016235 5.10679626 C24.19040253 5.10452278 24.19040253 5.10452278 26.15963745 5.10220337 C27.58380163 5.09547461 29.00796544 5.08866652 30.43212891 5.08178711 C31.9337148 5.07823022 33.43530188 5.07514444 34.93688965 5.07249451 C38.17042053 5.06594457 41.40392375 5.05638535 44.63743973 5.04459953 C49.75685269 5.02629181 54.87625895 5.01670294 59.99569702 5.00868225 C74.55363918 4.9845448 89.11154053 4.94875208 103.66943359 4.90405273 C111.70985749 4.87944212 119.7502652 4.86211687 127.7907213 4.85249335 C132.87263947 4.84597546 137.95442392 4.83046802 143.03629613 4.80817592 C146.20962614 4.79638211 149.38292438 4.79307479 152.55627441 4.79207802 C154.019514 4.78994416 155.48275356 4.78439997 156.94596481 4.7750473 C164.87712314 4.72634806 172.29912164 4.99618374 180 7 C176.2518734 9.49875107 173.04557464 9.48385165 168.6875 9.6875 C167.94048828 9.73455078 167.19347656 9.78160156 166.42382812 9.83007812 C163.22389447 10.00145297 160.40271295 10.07201125 157.22951508 9.5045948 C154.13280516 9.02075011 151.26412862 8.87420381 148.13366699 8.87301636 C146.98449799 8.87019653 145.83532898 8.86737671 144.65133667 8.86447144 C143.40450104 8.86649567 142.15766541 8.8685199 140.87304688 8.87060547 C139.53528801 8.86924909 138.19752952 8.86746782 136.85977173 8.86529541 C133.23532631 8.86074573 129.61090945 8.86250144 125.98646355 8.8656745 C122.17867839 8.86821503 118.37089561 8.86585546 114.56311035 8.86428833 C108.16088424 8.86246981 101.75866967 8.86486279 95.35644531 8.86962891 C87.98687416 8.87505231 80.61733076 8.87332162 73.2477603 8.8678025 C66.89842605 8.86324004 60.54910009 8.86263662 54.19976473 8.86524117 C50.41779407 8.86678919 46.63583637 8.867039 42.85386658 8.86370468 C39.28828027 8.86078089 35.72272904 8.86288297 32.15714645 8.86859894 C30.24906205 8.87051802 28.34097463 8.86760996 26.43289185 8.86447144 C19.30580583 8.88162314 12.27024764 9.20115721 5.16886139 9.8163166 C-0.85729143 10.16562321 -6.88965838 10.40689441 -12 7 C-7.94691667 5.89210465 -3.92888626 5.66268733 0.25 5.4375 C0.99507812 5.39431641 1.74015625 5.35113281 2.5078125 5.30664062 C4.338349 5.20103275 6.16915176 5.10005799 8 5 C5.36 3.68 2.72 2.36 0 1 C0 0.67 0 0.34 0 0 Z " fill="#E25C5F" transform="translate(172,355)"/>
<path d="M0 0 C0.495 0.99 0.495 0.99 1 2 C0.071875 1.7525 0.071875 1.7525 -0.875 1.5 C-6.55696148 0.59088616 -11.83824751 -0.0376412 -17.125 2.5 C-19.40827741 5.54436988 -19.68655943 7.36907243 -19.40234375 11.10546875 C-19.07182373 13.16116302 -19.07182373 13.16116302 -17.625 15.3125 C-14.3285074 17.43167382 -11.04917029 18.14280095 -7.28515625 19.140625 C-5 20 -5 20 -2.875 22.6875 C-2.58625 23.450625 -2.2975 24.21375 -2 25 C-4 26.625 -4 26.625 -7 28 C-9.79643091 27.70621154 -12.34750183 26.91006213 -15 26 C-15.99 25.67 -16.98 25.34 -18 25 C-18.66 26.32 -19.32 27.64 -20 29 C-14.34106564 31.95248749 -9.37690866 32.82248236 -3 32 C-0.62480129 31.01730335 0.69560908 30.37686495 2.3125 28.375 C3.49422274 24.29268508 2.90650841 19.81301682 1 16 C4 17 4 17 5 19 C5.5364289 23.47610345 5.58328477 26.94560061 3.375 30.9375 C-1.03462885 34.76691453 -5.29593639 35.27162208 -11 35 C-11 35.66 -11 36.32 -11 37 C-12.6875 37.75 -12.6875 37.75 -15 38 C-16.6825613 36.68678142 -18.34997172 35.35386936 -20 34 C-20.99 34.33 -21.98 34.66 -23 35 C-24.55421729 35.08106686 -26.11167027 35.10756898 -27.66796875 35.09765625 C-28.56064453 35.09443359 -29.45332031 35.09121094 -30.37304688 35.08789062 C-31.76620117 35.07532227 -31.76620117 35.07532227 -33.1875 35.0625 C-34.12787109 35.05798828 -35.06824219 35.05347656 -36.03710938 35.04882812 C-38.35813712 35.03704626 -40.67903644 35.02059558 -43 35 C-43 35.66 -43 36.32 -43 37 C-43.99 36.67 -44.98 36.34 -46 36 C-46 35.67 -46 35.34 -46 35 C-49.3 35 -52.6 35 -56 35 C-56.33 34.34 -56.66 33.68 -57 33 C-55.02 33 -53.04 33 -51 33 C-51.99 30.03 -52.98 27.06 -54 24 C-52.02 24 -50.04 24 -48 24 C-48 16.41 -48 8.82 -48 1 C-47.34 1.33 -46.68 1.66 -46 2 C-46 12.23 -46 22.46 -46 33 C-38.74 32.67 -31.48 32.34 -24 32 C-24 29.69 -24 27.38 -24 25 C-22.68 24.67 -21.36 24.34 -20 24 C-19.3185177 22.10820797 -19.3185177 22.10820797 -19 20 C-19.66 19.34 -20.32 18.68 -21 18 C-21.99 18.66 -22.98 19.32 -24 20 C-23.505 19.071875 -23.505 19.071875 -23 18.125 C-21.66851442 15.29559315 -21.88309189 14.37770311 -22.8125 11.375 C-23.08251736 6.51468744 -21.19342689 3.5792651 -18 0 C-12.27606794 -2.98639933 -5.73145349 -3.03429891 0 0 Z " fill="#CE525D" transform="translate(330,234)"/>
<path d="M0 0 C4.45794045 0.40526731 7.64596995 1.00351446 10.6875 4.4375 C12.09765249 8.17025658 11.81161447 10.42818791 10.75 14.25 C8.8125 16.1875 8.8125 16.1875 6.75 17.25 C6.09 17.25 5.43 17.25 4.75 17.25 C5.08 18.24 5.41 19.23 5.75 20.25 C4.43 20.25 3.11 20.25 1.75 20.25 C1.42 20.91 1.09 21.57 0.75 22.25 C-0.24 21.92 -1.23 21.59 -2.25 21.25 C-4.75344247 21.13099022 -7.23374211 21.06416136 -9.73828125 21.0390625 C-11.31063873 21.01291079 -12.88298546 20.98610654 -14.45532227 20.95874023 C-15.70359299 20.93878494 -15.70359299 20.93878494 -16.9770813 20.91842651 C-33.777486 20.63623508 -50.44854491 19.72020803 -67.18676758 18.26611328 C-67.95369934 18.19970139 -68.7206311 18.13328949 -69.51080322 18.06486511 C-71.57407635 17.88411022 -73.63679526 17.69705975 -75.69946289 17.50952148 C-81.61014802 16.68306363 -81.61014802 16.68306363 -86.8984375 18.5 C-87.56746094 19.36625 -87.56746094 19.36625 -88.25 20.25 C-88.84039062 20.889375 -89.43078125 21.52875 -90.0390625 22.1875 C-90.94785156 23.2084375 -90.94785156 23.2084375 -91.875 24.25 C-92.79152344 25.2709375 -92.79152344 25.2709375 -93.7265625 26.3125 C-95.44586676 28.27460619 -95.44586676 28.27460619 -96.25 31.25 C-101.60297385 33.36122157 -106.41387016 33.47307756 -112.10546875 33.26171875 C-112.92952713 33.23906448 -113.75358551 33.21641022 -114.60261536 33.19306946 C-116.33313293 33.1433882 -118.0635074 33.0884713 -119.79370117 33.02856445 C-122.43972023 32.93742353 -125.0858154 32.86286365 -127.73242188 32.79101562 C-129.4193 32.74054888 -131.10615051 32.68914899 -132.79296875 32.63671875 C-133.97586739 32.60223885 -133.97586739 32.60223885 -135.18266296 32.56706238 C-138.67936245 32.44195613 -141.87988019 32.1787626 -145.25 31.25 C-145.25 30.59 -145.25 29.93 -145.25 29.25 C-140.91685177 29.07828165 -136.58348235 28.91306148 -132.25 28.75 C-130.9717334 28.70085449 -129.6934668 28.65170898 -128.37646484 28.60107422 C-120.34854981 28.30909454 -112.37839721 28.20524889 -104.3515625 28.5078125 C-100.58385512 28.19462776 -98.40877067 27.3266398 -95.25 25.25 C-93.95686746 23.37589487 -92.72987775 21.45491458 -91.5625 19.5 C-88.58566622 15.77773173 -87.2334633 14.39716427 -82.46484375 13.68359375 C-78.34290753 13.79061454 -74.26825169 14.33026382 -70.18505859 14.87988281 C-64.74538161 15.56583775 -59.28039133 15.92762143 -53.8125 16.3125 C-52.61101318 16.39935059 -51.40952637 16.48620117 -50.17163086 16.57568359 C-40.59713318 17.21493139 -31.04176058 17.49441963 -21.44723511 17.54855347 C-19.87584863 17.55774333 -18.30448178 17.57172608 -16.73318481 17.59085083 C-8.17798561 17.6834269 -0.31681599 17.51052832 7.75 14.25 C8.51522801 10.89541845 8.51522801 10.89541845 8.75 7.25 C7.13542839 4.93723526 5.98403908 4.31892175 3.26953125 3.51953125 C2.37621094 3.36871094 1.48289062 3.21789062 0.5625 3.0625 C-0.78908203 2.82466797 -0.78908203 2.82466797 -2.16796875 2.58203125 C-2.85503906 2.47246094 -3.54210937 2.36289062 -4.25 2.25 C-2.25 0.25 -2.25 0.25 0 0 Z " fill="#D25962" transform="translate(324.25,295.75)"/>
<path d="M0 0 C1.27184647 -0.00525696 2.54369293 -0.01051392 3.8540802 -0.01593018 C7.29611881 -0.02943256 10.73788319 -0.02437828 14.17992568 -0.01479292 C17.80756389 -0.00711136 21.43518114 -0.01426474 25.06282043 -0.01895142 C31.14739125 -0.02438246 37.23185218 -0.01728537 43.31640625 -0.00292969 C50.32387612 0.01341385 57.33108427 0.00808535 64.33854789 -0.0084089 C70.38908076 -0.0220735 76.43953541 -0.02391992 82.49007875 -0.0160929 C86.08910902 -0.0114464 89.6880167 -0.01070768 93.2870388 -0.02070236 C97.299587 -0.031071 101.31169168 -0.01665392 105.32421875 0 C106.49697357 -0.00607269 107.66972839 -0.01214539 108.87802124 -0.0184021 C122.990133 0.08958056 136.04876494 4.4038201 146.54614258 14.14208984 C152.54309987 21.15072895 157.08269923 29.07138359 157.46801758 38.38818359 C156.47801758 39.37818359 156.47801758 39.37818359 155.46801758 40.38818359 C155.3468457 39.62892578 155.22567383 38.86966797 155.10083008 38.08740234 C154.93325195 37.09353516 154.76567383 36.09966797 154.59301758 35.07568359 C154.34938477 33.59648437 154.34938477 33.59648437 154.10083008 32.08740234 C153.58716304 29.18758532 153.58716304 29.18758532 151.46801758 26.38818359 C151.46801758 25.39818359 151.46801758 24.40818359 151.46801758 23.38818359 C150.80801758 23.38818359 150.14801758 23.38818359 149.46801758 23.38818359 C149.03489258 22.64568359 148.60176758 21.90318359 148.15551758 21.13818359 C146.29209839 18.10150047 144.23450177 16.58718385 141.46801758 14.38818359 C141.13801758 13.68693359 140.80801758 12.98568359 140.46801758 12.26318359 C139.03410057 9.57458921 137.29791854 9.41615603 134.46801758 8.38818359 C133.55922852 8.04658203 132.65043945 7.70498047 131.71411133 7.35302734 C130.78727539 7.01400391 129.86043945 6.67498047 128.90551758 6.32568359 C127.97610352 5.98408203 127.04668945 5.64248047 126.08911133 5.29052734 C121.86752066 3.83719285 118.35618524 3.26290783 113.87101746 3.26119995 C112.73130997 3.25838013 111.59160248 3.2555603 110.4173584 3.25265503 C109.17103638 3.25467926 107.92471436 3.25670349 106.640625 3.25878906 C105.32479935 3.25703674 104.00897369 3.25528442 102.65327454 3.253479 C99.04570906 3.24892021 95.43817219 3.25068821 91.83060622 3.25385809 C88.05156487 3.25639128 84.27252595 3.25404133 80.4934845 3.25247192 C74.14408937 3.25065237 67.79470586 3.25305025 61.4453125 3.2578125 C54.1142703 3.26324768 46.78325594 3.26149702 39.45221442 3.25598609 C33.1522864 3.25144049 26.85236674 3.25081171 20.5524376 3.25342476 C16.79245791 3.25498048 13.03249128 3.2552008 9.27251244 3.25188828 C5.73405983 3.24898879 2.19564291 3.25102332 -1.34280586 3.25678253 C-3.25344927 3.25872506 -5.1640957 3.25577342 -7.07473755 3.25265503 C-16.30597752 2.58812764 -16.30597752 2.58812764 -24.53198242 5.38818359 C-26.19815357 5.42882191 -27.86586337 5.4309046 -29.53198242 5.38818359 C-23.01972086 -1.12407797 -8.65838266 -0.04506772 0 0 Z " fill="#CD5A60" transform="translate(205.531982421875,146.61181640625)"/>
<path d="M0 0 C0.33 0 0.66 0 1 0 C2.02174185 6.76276206 2.16066013 13.38779981 2.17700195 20.22070312 C2.18357315 21.42512054 2.19014435 22.62953796 2.19691467 23.87045288 C2.21655988 27.84071229 2.22830487 31.81095834 2.23828125 35.78125 C2.24233515 37.15781167 2.24645224 38.53437315 2.25063133 39.91093445 C2.26965164 46.38437607 2.28388718 52.85780656 2.2922433 59.33127069 C2.30199304 66.75803199 2.32826629 74.18449347 2.36874419 81.61114931 C2.39909451 87.38136664 2.41373005 93.15149894 2.41702431 98.92179441 C2.41935398 102.35405069 2.42803707 105.78598561 2.45348549 109.21815491 C2.59134946 130.77343756 2.45214331 149.1407577 -13.1875 165.625 C-15.71886537 168.15120984 -17.4452248 169.41673312 -21 170 C-20.505 169.01 -20.505 169.01 -20 168 C-19.34 168 -18.68 168 -18 168 C-18 167.34 -18 166.68 -18 166 C-17.34 166 -16.68 166 -16 166 C-15.67 165.01 -15.34 164.02 -15 163 C-13.84564453 162.12214844 -13.84564453 162.12214844 -12.66796875 161.2265625 C-9.48114314 158.56698622 -8.14387169 156.08712868 -6.3125 152.375 C-5.73113281 151.22773438 -5.14976562 150.08046875 -4.55078125 148.8984375 C-0.85967202 140.37551175 -0.71845018 131.48148058 -0.78881836 122.33349609 C-0.7901326 121.10618271 -0.79144684 119.87886932 -0.7928009 118.61436462 C-0.7970447 115.96522913 -0.80488344 113.31641009 -0.81910515 110.66733932 C-0.84155452 106.47212669 -0.84949128 102.27695926 -0.85560608 98.08169556 C-0.86694534 91.44394641 -0.88764146 84.80626597 -0.91250378 78.1685549 C-0.95694643 66.28346158 -0.99010164 54.39834453 -1.01274782 42.51318991 C-1.02111458 38.34898302 -1.03509688 34.18484482 -1.05372036 30.02067161 C-1.06692949 26.81636354 -1.07375787 23.61203945 -1.08178711 20.40771484 C-1.08852448 19.26464371 -1.09526184 18.12157257 -1.10220337 16.94386292 C-1.11038442 11.19454318 -0.87251322 5.68498871 0 0 Z " fill="#D15D66" transform="translate(363,185)"/>
<path d="M0 0 C1.39211215 4.17633644 -0.0464421 5.78960515 -1.9375 9.6875 C-2.50339844 10.86699219 -3.06929687 12.04648438 -3.65234375 13.26171875 C-4.09707031 14.16535156 -4.54179687 15.06898438 -5 16 C-5.66 16 -6.32 16 -7 16 C-6.979375 17.051875 -6.95875 18.10375 -6.9375 19.1875 C-7 23 -7 23 -7.49560547 25.37207031 C-8.04953841 28.25809848 -8.12951787 30.92150757 -8.1328125 33.859375 C-8.13474609 35.53386719 -8.13474609 35.53386719 -8.13671875 37.2421875 C-8.13285156 38.39976562 -8.12898437 39.55734375 -8.125 40.75 C-8.12886719 41.89210937 -8.13273438 43.03421875 -8.13671875 44.2109375 C-8.13224795 51.24585537 -8.13224795 51.24585537 -7.46484375 58.23828125 C-6.63153605 64.77825861 -7.12158652 71.40477228 -7.35235596 77.97576904 C-7.49893676 82.21379297 -7.61955588 86.45252253 -7.73828125 90.69140625 C-7.76247131 91.55447388 -7.78666138 92.4175415 -7.81158447 93.3067627 C-8.30532225 111.73532015 -8.27202785 130.19941532 -7.6875 148.625 C-7.66510254 149.5722998 -7.64270508 150.51959961 -7.61962891 151.49560547 C-7.38490175 157.30005761 -6.17434541 161.6253446 -4 167 C-4 168.32 -4 169.64 -4 171 C-2.68 171.33 -1.36 171.66 0 172 C0 175 0 178 0 181 C-6.7803229 171.71819875 -9.95398331 162.94054456 -10.31201172 151.42773438 C-10.37402267 149.44912415 -10.37402267 149.44912415 -10.43728638 147.43054199 C-10.4769659 145.98495954 -10.51608242 144.53936154 -10.5546875 143.09375 C-10.57562344 142.35081192 -10.59655937 141.60787384 -10.61812973 140.84242249 C-11.08555442 124.02672928 -11.15408333 107.21378863 -11.13037109 90.39257812 C-11.12578644 87.11651803 -11.1258372 83.8405133 -11.13037109 80.56445312 C-11.15214585 64.80225756 -11.14956388 49.03779978 -10.6796875 33.28125 C-10.65770294 32.26897339 -10.63571838 31.25669678 -10.61306763 30.21374512 C-10.28804663 21.39831272 -8.27813145 13.62638533 -3.875 5.9375 C-3.35679687 5.01839844 -2.83859375 4.09929687 -2.3046875 3.15234375 C-1 1 -1 1 0 0 Z " fill="#D35C66" transform="translate(159,164)"/>
<path d="M0 0 C0.66 0 1.32 0 2 0 C2 10.56 2 21.12 2 32 C9.59 31.67 17.18 31.34 25 31 C25.66 29.35 26.32 27.7 27 26 C27.474375 25.54625 27.94875 25.0925 28.4375 24.625 C30.84009644 22.12629971 31.72831951 19.20947934 33 16 C33.66 16 34.32 16 35 16 C33.25192871 21.46737191 31.34205919 26.75824848 29 32 C31.93638223 31.43968727 31.93638223 31.43968727 35 30 C35.99 28.02 36.98 26.04 38 24 C42.95 24 47.9 24 53 24 C53.99 26.64 54.98 29.28 56 32 C53 31 53 31 51.8125 28.9375 C51.544375 28.298125 51.27625 27.65875 51 27 C46.94581557 26.65577679 43.04089313 26.45217422 39 27 C36.62772382 29.84968468 36.62772382 29.84968468 35 33 C30.0723013 34.21031196 25.26007106 34.00281709 20.21875 33.96484375 C18.31250092 33.95553849 16.40625087 33.94643156 14.5 33.9375 C13.53707031 33.92912109 12.57414063 33.92074219 11.58203125 33.91210938 C10.65777344 33.90888672 9.73351562 33.90566406 8.78125 33.90234375 C7.93626953 33.89710693 7.09128906 33.89187012 6.22070312 33.88647461 C3.82522357 33.90971402 3.82522357 33.90971402 1 35 C0.02314635 30.9269597 -0.11545444 27.131793 -0.09765625 22.94921875 C-0.0962413 22.29041214 -0.09482635 21.63160553 -0.09336853 20.95283508 C-0.087805 18.86434238 -0.07525947 16.77595989 -0.0625 14.6875 C-0.05748028 13.26497551 -0.0529182 11.84244934 -0.04882812 10.41992188 C-0.03784757 6.94657923 -0.02060835 3.47330039 0 0 Z " fill="#CA585F" transform="translate(217,235)"/>
<path d="M0 0 C0.49886719 0.62648437 0.99773437 1.25296875 1.51171875 1.8984375 C2.02347656 2.53007812 2.53523438 3.16171875 3.0625 3.8125 C3.43761719 4.29460937 3.81273437 4.77671875 4.19921875 5.2734375 C1.66429031 4.1870396 0.26483024 3.35320361 -1.51074219 1.19458008 C-4.70352321 -1.48388409 -6.59037057 -1.0436699 -10.69140625 -0.71484375 C-11.68657257 -0.64332344 -11.68657257 -0.64332344 -12.70184326 -0.57035828 C-14.82023673 -0.41312186 -16.93485583 -0.22635733 -19.05078125 -0.0390625 C-20.45818837 0.06896288 -21.86574162 0.17510186 -23.2734375 0.27929688 C-29.80412611 0.77657354 -36.31248993 1.3741536 -42.80078125 2.2734375 C-42.80078125 2.6034375 -42.80078125 2.9334375 -42.80078125 3.2734375 C-45.44078125 3.6034375 -48.08078125 3.9334375 -50.80078125 4.2734375 C-50.80078125 3.6134375 -50.80078125 2.9534375 -50.80078125 2.2734375 C-51.81390381 2.28391113 -52.82702637 2.29438477 -53.87084961 2.30517578 C-57.66719969 2.34166191 -61.46353461 2.36444099 -65.26000977 2.38330078 C-66.89610408 2.39329367 -68.53218084 2.40689257 -70.16821289 2.42431641 C-87.63328903 2.60552257 -87.63328903 2.60552257 -94.80078125 0.2734375 C-95.13078125 -0.3865625 -95.46078125 -1.0465625 -95.80078125 -1.7265625 C-94.66511719 -1.56671875 -93.52945313 -1.406875 -92.359375 -1.2421875 C-84.88449764 -0.42278403 -77.37356496 -0.4881479 -69.86328125 -0.4765625 C-69.05206818 -0.4735614 -68.2408551 -0.4705603 -67.40505981 -0.46746826 C-51.61994755 -0.43561287 -35.96689658 -1.44196489 -20.24829102 -2.83496094 C-18.95412766 -2.94374069 -18.95412766 -2.94374069 -17.63381958 -3.05471802 C-16.02169666 -3.19109244 -14.41037361 -3.33745129 -12.80026245 -3.49581909 C-7.58546542 -3.9322658 -3.86528505 -3.70597829 0 0 Z " fill="#C55057" transform="translate(278.80078125,208.7265625)"/>
<path d="M0 0 C0.35433105 0.64815674 0.70866211 1.29631348 1.07373047 1.96411133 C2.89748263 4.29894051 2.89748263 4.29894051 6.07861328 4.5300293 C7.93075439 4.55190308 7.93075439 4.55190308 9.8203125 4.57421875 C10.80920975 4.59546562 10.80920975 4.59546562 11.81808472 4.61714172 C13.92055643 4.659033 16.02216969 4.67428221 18.125 4.6875 C20.23457296 4.71652642 22.34392678 4.75101812 24.45333862 4.78999329 C26.36213782 4.82278967 28.27117366 4.84080881 30.18017578 4.8581543 C33 5 33 5 34 6 C34.25 8.4375 34.25 8.4375 34 11 C30.47284925 13.35143383 29.07202017 13.2241367 24.90625 13.16015625 C23.71128906 13.14919922 22.51632813 13.13824219 21.28515625 13.12695312 C20.03605469 13.10568359 18.78695312 13.08441406 17.5 13.0625 C15.03130793 13.02810646 12.562552 12.99795681 10.09375 12.97265625 C8.99740234 12.95468994 7.90105469 12.93672363 6.77148438 12.91821289 C3.91158399 12.86941284 3.91158399 12.86941284 1 14 C1 13.34 1 12.68 1 12 C3.87018441 10.56490779 6.33543723 10.88841494 9.5390625 10.90234375 C10.84101563 10.90556641 12.14296875 10.90878906 13.484375 10.91210938 C14.86458399 10.92046534 16.24479232 10.92893029 17.625 10.9375 C19.01301926 10.94251499 20.40104022 10.9470779 21.7890625 10.95117188 C25.19275132 10.96299024 28.59635439 10.97946566 32 11 C30.16894394 8.73178911 30.16894394 8.73178911 27.44970703 8.82055664 C26.39638184 8.85012451 25.34305664 8.87969238 24.2578125 8.91015625 C23.10925781 8.93013672 21.96070313 8.95011719 20.77734375 8.97070312 C18.35015391 9.03170736 15.9230629 9.09678561 13.49609375 9.16601562 C12.34496094 9.18470703 11.19382813 9.20339844 10.0078125 9.22265625 C8.42444092 9.26531616 8.42444092 9.26531616 6.80908203 9.30883789 C3.59445471 8.95541328 2.24403189 8.30582795 0 6 C-0.25 2.8125 -0.25 2.8125 0 0 Z " fill="#D6555F" transform="translate(179,289)"/>
<path d="M0 0 C2.50696229 0.95091673 3.94401245 1.93801378 5.75 3.9375 C7.62260083 8.52537204 7.56172842 13.10493803 7 18 C5.98046875 20.33984375 5.98046875 20.33984375 5 22 C5.66 22 6.32 22 7 22 C7 22.66 7 23.32 7 24 C6.34 24 5.68 24 5 24 C4.67 24.66 4.34 25.32 4 26 C4 25.34 4 24.68 4 24 C3.34 24 2.68 24 2 24 C1.505 25.485 1.505 25.485 1 27 C-1.109375 27.87890625 -1.109375 27.87890625 -3.75 28.5625 C-6.36304247 29.25487802 -8.79461806 29.90654766 -11.2578125 31.02734375 C-18.89898898 33.73767558 -29.04031567 34.37017648 -36.69140625 31.72265625 C-39.28156378 30.28743207 -41.66156908 28.81294083 -44 27 C-43.67 26.34 -43.34 25.68 -43 25 C-42.23042969 25.433125 -42.23042969 25.433125 -41.4453125 25.875 C-31.59355667 30.65160889 -19.17381955 30.78106913 -8.8125 27.375 C-3.7621662 25.19611947 1.47066449 22.05867102 4 17 C4.76968122 10.09810449 3.96039495 5.69306773 0 0 Z " fill="#C7515D" transform="translate(328,189)"/>
<path d="M0 0 C6.08625855 0.03114769 11.67666942 0.66857598 17.5625 2.1875 C13.8143734 4.68625107 10.60807464 4.67135165 6.25 4.875 C5.50298828 4.92205078 4.75597656 4.96910156 3.98632812 5.01757812 C0.86809614 5.18457738 -1.89545939 5.29212899 -4.97973633 4.69677734 C-9.97624384 3.96086584 -14.91771082 4.06535047 -19.9609375 4.08984375 C-21.06225006 4.0912587 -22.16356262 4.09267365 -23.29824829 4.09413147 C-26.80302692 4.09971248 -30.3077408 4.11226154 -33.8125 4.125 C-36.19400949 4.13001745 -38.57551999 4.13457993 -40.95703125 4.13867188 C-46.78387612 4.14967569 -52.61068343 4.16639493 -58.4375 4.1875 C-55.9487012 1.6987012 -55.16361926 1.92555139 -51.72827148 1.88452148 C-50.75063339 1.86787949 -49.7729953 1.85123749 -48.76573181 1.83409119 C-47.17819847 1.82146996 -47.17819847 1.82146996 -45.55859375 1.80859375 C-44.47618912 1.79159927 -43.39378448 1.7746048 -42.27857971 1.75709534 C-38.81077952 1.7038215 -35.34299222 1.66359984 -31.875 1.625 C-28.4034987 1.58114794 -24.93209298 1.53450498 -21.46070862 1.48219299 C-19.29731889 1.45011017 -17.13384444 1.42326001 -14.97032166 1.40196228 C-13.99583572 1.38847244 -13.02134979 1.3749826 -12.01733398 1.36108398 C-11.15510727 1.35157211 -10.29288055 1.34206024 -9.40452576 1.33226013 C-6.16405242 1.09378265 -3.71770128 0.02000916 0 0 Z " fill="#BD5356" transform="translate(334.4375,359.8125)"/>
<path d="M0 0 C1.46814903 0.00537781 1.46814903 0.00537781 2.96595764 0.01086426 C20.30388492 0.09764751 37.64145584 0.3425077 54.97814941 0.55731201 C59.9535196 0.61865388 64.92890903 0.67839207 69.90429688 0.73828125 C79.60158155 0.85523664 89.29884423 0.9739173 98.99609375 1.09375 C98.99609375 1.42375 98.99609375 1.75375 98.99609375 2.09375 C97.464189 2.1092112 97.464189 2.1092112 95.90133667 2.12498474 C86.22242232 2.22323198 76.54356495 2.3260086 66.86474419 2.43308926 C61.89015569 2.48798307 56.91556108 2.54134473 51.94091797 2.59106445 C47.12978761 2.63920864 42.31871893 2.69156086 37.50766373 2.74669075 C35.68271571 2.76689025 33.85775094 2.78563651 32.03277206 2.80282402 C22.64093831 2.89222894 13.32883534 3.08197265 3.96878052 3.91664124 C-1.99606223 4.27201871 -7.95144357 4.46205845 -13.00390625 1.09375 C-8.6730392 -0.12049141 -4.4662772 -0.03236415 0 0 Z " fill="#BA565B" transform="translate(173.00390625,360.90625)"/>
<path d="M0 0 C0.33 0.66 0.66 1.32 1 2 C0.38125 1.835 -0.2375 1.67 -0.875 1.5 C-6.55696148 0.59088616 -11.83824751 -0.0376412 -17.125 2.5 C-19.40972565 5.54630087 -19.65663294 7.36633805 -19.44140625 11.1015625 C-18.7881388 13.91119064 -17.18813512 15.22214022 -15 17 C-15 17.66 -15 18.32 -15 19 C-11.7 19.99 -8.4 20.98 -5 22 C-5 23.32 -5 24.64 -5 26 C-6.65 26 -8.3 26 -10 26 C-10.33 25.34 -10.66 24.68 -11 24 C-13.97 24 -16.94 24 -20 24 C-19.67 22.68 -19.34 21.36 -19 20 C-19.66 19.34 -20.32 18.68 -21 18 C-21.99 18.66 -22.98 19.32 -24 20 C-23.67 19.38125 -23.34 18.7625 -23 18.125 C-21.66851442 15.29559315 -21.88309189 14.37770311 -22.8125 11.375 C-23.08251736 6.51468744 -21.19342689 3.5792651 -18 0 C-12.27606794 -2.98639933 -5.73145349 -3.03429891 0 0 Z " fill="#F4545F" transform="translate(330,234)"/>
<path d="M0 0 C4.3786383 0.0934535 8.75673196 0.19952754 13.13476562 0.31738281 C14.62458889 0.35569998 16.11450554 0.39054808 17.60449219 0.421875 C19.74448048 0.46746729 21.88382436 0.52546874 24.0234375 0.5859375 C25.95582275 0.63306885 25.95582275 0.63306885 27.92724609 0.68115234 C31 1 31 1 33 3 C33.125 5.625 33.125 5.625 33 8 C30.0471528 9.4764236 27.31551017 9.22272939 24.0234375 9.31640625 C23.33819 9.33718735 22.6529425 9.35796844 21.94692993 9.37937927 C19.75638931 9.44480185 17.56572811 9.50372554 15.375 9.5625 C13.8906125 9.60569218 12.40623722 9.6493067 10.921875 9.69335938 C7.28137916 9.80047553 3.64074749 9.90176362 0 10 C0 9.34 0 8.68 0 8 C2.79120091 6.60439955 5.20205692 6.78191712 8.3203125 6.68359375 C9.57714844 6.64169922 10.83398438 6.59980469 12.12890625 6.55664062 C13.44761719 6.51732422 14.76632813 6.47800781 16.125 6.4375 C17.46485751 6.39430488 18.80470156 6.35069027 20.14453125 6.30664062 C23.42957815 6.20029019 26.71470281 6.09826192 30 6 C30.33 5.01 30.66 4.02 31 3 C30.16750732 3.00523682 29.33501465 3.01047363 28.47729492 3.01586914 C25.38550065 3.03292225 22.29373036 3.04545565 19.2019043 3.05493164 C17.20685232 3.06242729 15.21182214 3.07513345 13.21679688 3.08789062 C11.96318359 3.09111328 10.70957031 3.09433594 9.41796875 3.09765625 C8.26063232 3.10289307 7.1032959 3.10812988 5.91088867 3.11352539 C3 3 3 3 0 2 C0 1.34 0 0.68 0 0 Z " fill="#BF5059" transform="translate(180,308)"/>
<path d="M0 0 C1.42584519 0.06012816 2.85452308 0.06051307 4.28125 0.02734375 C5.12300781 0.01509766 5.96476562 0.00285156 6.83203125 -0.00976562 C8.61075855 -0.04492349 10.38941294 -0.08398655 12.16796875 -0.12695312 C13.00972656 -0.13791016 13.85148437 -0.14886719 14.71875 -0.16015625 C15.49154297 -0.17699463 16.26433594 -0.19383301 17.06054688 -0.21118164 C19 0 19 0 21 2 C15.52023497 3.85837089 10.90115261 4.22549219 5.14453125 4.01171875 C3.90844368 3.97773735 3.90844368 3.97773735 2.64738464 3.94306946 C0.91686707 3.8933882 -0.8135074 3.8384713 -2.54370117 3.77856445 C-5.18972023 3.68742353 -7.8358154 3.61286365 -10.48242188 3.54101562 C-12.1693 3.49054888 -13.85615051 3.43914899 -15.54296875 3.38671875 C-16.33156784 3.36373215 -17.12016693 3.34074554 -17.93266296 3.31706238 C-21.42936245 3.19195613 -24.62988019 2.9287626 -28 2 C-28 1.34 -28 0.68 -28 0 C-23.70868391 -0.19619224 -19.41693898 -0.38048583 -15.125 -0.5625 C-13.90167969 -0.61857422 -12.67835938 -0.67464844 -11.41796875 -0.73242188 C-9.66806641 -0.80493164 -9.66806641 -0.80493164 -7.8828125 -0.87890625 C-6.80402832 -0.9260376 -5.72524414 -0.97316895 -4.61376953 -1.02172852 C-2 -1 -2 -1 0 0 Z " fill="#E94B54" transform="translate(207,325)"/>
<path d="M0 0 C5.28 0 10.56 0 16 0 C16 0.33 16 0.66 16 1 C11.05 1 6.1 1 1 1 C1.33 2.65 1.66 4.3 2 6 C6.95 6 11.9 6 17 6 C18 12 18 12 16 15 C13.37302936 15.22137393 10.99106036 15.28162025 8.375 15.1875 C7.66859375 15.17396484 6.9621875 15.16042969 6.234375 15.14648438 C4.48925872 15.1111104 2.74453392 15.05730221 1 15 C1 16.65 1 18.3 1 20 C6.61 20 12.22 20 18 20 C17.67 20.66 17.34 21.32 17 22 C11.39 21.67 5.78 21.34 0 21 C0 18.36 0 15.72 0 13 C4.95 12.67 9.9 12.34 15 12 C15.33 10.68 15.66 9.36 16 8 C14.39318359 8.01740234 14.39318359 8.01740234 12.75390625 8.03515625 C11.35677257 8.04453299 9.95963701 8.05363331 8.5625 8.0625 C7.85544922 8.07087891 7.14839844 8.07925781 6.41992188 8.08789062 C4.61306441 8.09653588 2.80612397 8.05220011 1 8 C0.67 7.67 0.34 7.34 0 7 C0 4.69 0 2.38 0 0 Z " fill="#C75D64" transform="translate(225,240)"/>
<path d="M0 0 C10.78844546 0.35961485 20.09051365 5.12968449 27.890625 12.53125 C33.94677466 19.61918812 38.59934027 27.54443037 39 37 C38.34 37.66 37.68 38.32 37 39 C36.81824219 37.86111328 36.81824219 37.86111328 36.6328125 36.69921875 C36.38144531 35.20841797 36.38144531 35.20841797 36.125 33.6875 C35.96257812 32.70136719 35.80015625 31.71523437 35.6328125 30.69921875 C35.11914546 27.79940173 35.11914546 27.79940173 33 25 C33 24.01 33 23.02 33 22 C32.34 22 31.68 22 31 22 C30.566875 21.2575 30.13375 20.515 29.6875 19.75 C27.82408081 16.71331688 25.76648419 15.19900026 23 13 C22.67 12.29875 22.34 11.5975 22 10.875 C20.56600975 8.18626829 18.82997135 8.02546715 16 7 C15.1028125 6.67 14.205625 6.34 13.28125 6 C12.3634375 5.67 11.445625 5.34 10.5 5 C6.97104552 3.73116243 3.47503484 2.41015906 0 1 C0 0.67 0 0.34 0 0 Z " fill="#C45560" transform="translate(324,148)"/>
<path d="M0 0 C0.8058252 0.11649902 1.61165039 0.23299805 2.44189453 0.35302734 C5.77794409 0.814062 9.10432037 1.02111709 12.46484375 1.23828125 C14.23587911 1.38164028 16.00680767 1.52638233 17.77734375 1.67578125 C17.77734375 2.00578125 17.77734375 2.33578125 17.77734375 2.67578125 C16.85397217 2.6600708 15.93060059 2.64436035 14.97924805 2.62817383 C11.55194486 2.57703293 8.12504733 2.5394259 4.69750977 2.51098633 C3.21437176 2.49590357 1.73127831 2.47543436 0.24829102 2.44946289 C-1.8840637 2.41305509 -4.0158286 2.39605052 -6.1484375 2.3828125 C-7.43145752 2.36710205 -8.71447754 2.3513916 -10.03637695 2.33520508 C-13.17958655 2.39363386 -13.17958655 2.39363386 -15.05957031 4.07080078 C-15.44338867 4.60044434 -15.82720703 5.13008789 -16.22265625 5.67578125 C-16.77824219 6.32675781 -17.33382812 6.97773438 -17.90625 7.6484375 C-19.07572935 9.04191512 -20.24239974 10.43775497 -21.40625 11.8359375 C-23.84038375 14.30147942 -25.94189806 15.54349503 -29.42089844 15.90283203 C-30.19594727 15.8923584 -30.97099609 15.88188477 -31.76953125 15.87109375 C-33.03603516 15.86142578 -33.03603516 15.86142578 -34.328125 15.8515625 C-35.20082031 15.83480469 -36.07351562 15.81804687 -36.97265625 15.80078125 C-38.30490234 15.78724609 -38.30490234 15.78724609 -39.6640625 15.7734375 C-41.85053683 15.74992702 -44.03645719 15.71706624 -46.22265625 15.67578125 C-46.22265625 15.34578125 -46.22265625 15.01578125 -46.22265625 14.67578125 C-45.06507813 14.63839844 -43.9075 14.60101563 -42.71484375 14.5625 C-41.17575064 14.496807 -39.63668955 14.43036083 -38.09765625 14.36328125 C-36.95683594 14.32944336 -36.95683594 14.32944336 -35.79296875 14.29492188 C-30.95078677 14.06533566 -27.3398397 13.47065761 -23.22265625 10.67578125 C-21.92952371 8.80167612 -20.702534 6.88069583 -19.53515625 4.92578125 C-13.9641989 -2.23822482 -8.24020139 -1.03651863 0 0 Z " fill="#BA4E56" transform="translate(252.22265625,310.32421875)"/>
<path d="M0 0 C1.32 0.33 2.64 0.66 4 1 C3.67 11.89 3.34 22.78 3 34 C1.02 34.495 1.02 34.495 -1 35 C-1 35.66 -1 36.32 -1 37 C-2.32 36.67 -3.64 36.34 -5 36 C-4.67 35.01 -4.34 34.02 -4 33 C-2.02 32.505 -2.02 32.505 0 32 C0 21.44 0 10.88 0 0 Z " fill="#DD5C65" transform="translate(211,234)"/>
<path d="M0 0 C1.50387108 0.12931592 3.00778027 0.25818901 4.51171875 0.38671875 C5.35524902 0.46583496 6.1987793 0.54495117 7.06787109 0.62646484 C10.36196948 0.9117628 13.65711684 1.12476023 16.95703125 1.33203125 C19.40887463 1.49187392 21.86069758 1.65203022 24.3125 1.8125 C25.5075415 1.88678223 26.70258301 1.96106445 27.93383789 2.03759766 C29.6178772 2.15627197 29.6178772 2.15627197 31.3359375 2.27734375 C32.34317871 2.34429443 33.35041992 2.41124512 34.38818359 2.48022461 C36.9375 2.875 36.9375 2.875 39.9375 4.875 C34.16823111 6.27833568 28.75606895 5.54796616 22.9375 4.875 C22.9375 4.215 22.9375 3.555 22.9375 2.875 C12.3775 2.875 1.8175 2.875 -9.0625 2.875 C-9.0625 3.535 -9.0625 4.195 -9.0625 4.875 C-9.7225 4.545 -10.3825 4.215 -11.0625 3.875 C-7.64060789 -0.53315175 -5.41373185 -0.50940019 0 0 Z " fill="#F04D59" transform="translate(246.0625,312.125)"/>
<path d="M0 0 C1.02351562 -0.00128906 2.04703125 -0.00257813 3.1015625 -0.00390625 C4.16890625 -0.00003906 5.23625 0.00382813 6.3359375 0.0078125 C7.41101563 0.00394531 8.48609375 0.00007812 9.59375 -0.00390625 C10.6146875 -0.00261719 11.635625 -0.00132812 12.6875 0 C13.62674316 0.00112793 14.56598633 0.00225586 15.53369141 0.00341797 C17.7109375 0.1328125 17.7109375 0.1328125 18.7109375 1.1328125 C18.94286615 2.64750698 19.12308988 4.17035812 19.2734375 5.6953125 C19.39912109 6.93474609 19.39912109 6.93474609 19.52734375 8.19921875 C19.58792969 8.83730469 19.64851563 9.47539062 19.7109375 10.1328125 C16.3826644 11.79694905 12.71359777 10.95148656 9.0859375 10.6953125 C8.28414062 10.64310547 7.48234375 10.59089844 6.65625 10.53710938 C4.67414647 10.40732879 2.69249251 10.27071515 0.7109375 10.1328125 C0.7109375 9.8028125 0.7109375 9.4728125 0.7109375 9.1328125 C5.6609375 9.1328125 10.6109375 9.1328125 15.7109375 9.1328125 C15.7109375 8.4728125 15.7109375 7.8128125 15.7109375 7.1328125 C16.3709375 7.1328125 17.0309375 7.1328125 17.7109375 7.1328125 C17.3809375 5.8128125 17.0509375 4.4928125 16.7109375 3.1328125 C8.7909375 3.1328125 0.8709375 3.1328125 -7.2890625 3.1328125 C-7.6190625 2.4728125 -7.9490625 1.8128125 -8.2890625 1.1328125 C-5.25141151 0.12026217 -3.17744029 0.00380662 0 0 Z " fill="#E15965" transform="translate(225.2890625,231.8671875)"/>
<path d="M0 0 C1.39211215 4.17633644 -0.0464421 5.78960515 -1.9375 9.6875 C-2.50339844 10.86699219 -3.06929687 12.04648438 -3.65234375 13.26171875 C-4.09707031 14.16535156 -4.54179687 15.06898438 -5 16 C-5.66 16 -6.32 16 -7 16 C-6.979375 17.051875 -6.95875 18.10375 -6.9375 19.1875 C-7 23 -7 23 -7.48413086 25.39331055 C-8.02669709 28.13490055 -8.20724534 30.72813073 -8.31640625 33.51953125 C-8.35830078 34.54111328 -8.40019531 35.56269531 -8.44335938 36.61523438 C-8.48267578 37.67033203 -8.52199219 38.72542969 -8.5625 39.8125 C-8.60568359 40.88693359 -8.64886719 41.96136719 -8.69335938 43.06835938 C-8.79910983 45.71212082 -8.90120233 48.3559711 -9 51 C-9.33 51 -9.66 51 -10 51 C-10.07505712 47.05315009 -10.12902215 43.10658573 -10.16479492 39.15917969 C-10.18701479 37.16847095 -10.22516595 35.17796032 -10.26367188 33.1875 C-10.34134552 22.93457857 -9.00173548 14.88996522 -3.875 5.9375 C-3.09769531 4.55884766 -3.09769531 4.55884766 -2.3046875 3.15234375 C-1 1 -1 1 0 0 Z " fill="#C75961" transform="translate(159,164)"/>
<path d="M0 0 C1.48125366 0.23771118 1.48125366 0.23771118 2.99243164 0.48022461 C7.02699286 1.05463822 11.05068826 1.22026634 15.12109375 1.31640625 C16.23823509 1.3475779 16.23823509 1.3475779 17.37794495 1.37937927 C19.73104625 1.4441821 22.08424843 1.50343365 24.4375 1.5625 C26.04362976 1.6057513 27.64974973 1.64936757 29.25585938 1.69335938 C33.17047249 1.79979122 37.08518591 1.90124851 41 2 C40.67 2.66 40.34 3.32 40 4 C38.94872925 3.99214478 38.94872925 3.99214478 37.8762207 3.98413086 C34.68832299 3.96329148 31.50043964 3.95031768 28.3125 3.9375 C26.65831055 3.92493164 26.65831055 3.92493164 24.97070312 3.91210938 C23.90400391 3.90888672 22.83730469 3.90566406 21.73828125 3.90234375 C20.75899658 3.89710693 19.77971191 3.89187012 18.77075195 3.88647461 C16.00024021 3.92656665 16.00024021 3.92656665 13.3359375 4.54101562 C10.1398846 5.16900261 7.80760731 4.41967234 4.6875 3.5625 C3.08455078 3.13130859 3.08455078 3.13130859 1.44921875 2.69140625 C0.64097656 2.46324219 -0.16726562 2.23507813 -1 2 C-0.67 1.34 -0.34 0.68 0 0 Z " fill="#F3525D" transform="translate(186,209)"/>
<path d="M0 0 C9.9 0 19.8 0 30 0 C30 0.66 30 1.32 30 2 C39.9 2 49.8 2 60 2 C60 2.33 60 2.66 60 3 C39.87980802 3.24552942 20.05539169 2.8835587 0 1 C0 0.67 0 0.34 0 0 Z " fill="#CC4951" transform="translate(256,313)"/>
<path d="M0 0 C0.66 0.33 1.32 0.66 2 1 C1.67 1.33 1.34 1.66 1 2 C0.91209025 4.29151417 0.89305962 6.58572524 0.90234375 8.87890625 C0.9037587 9.5655687 0.90517365 10.25223114 0.90663147 10.95970154 C0.91224521 13.16067801 0.92479993 15.36155409 0.9375 17.5625 C0.94251324 19.05143083 0.94707645 20.54036324 0.95117188 22.02929688 C0.96221907 25.68623075 0.97949287 29.34310558 1 33 C2.65 33 4.3 33 6 33 C6 33.66 6 34.32 6 35 C3.125 35.1875 3.125 35.1875 0 35 C-3.15237089 30.27144366 -2.56356738 25.12237501 -2.74291992 19.54833984 C-2.81228591 17.50630241 -2.90821895 15.4666382 -3.00585938 13.42578125 C-3.05162109 12.14058594 -3.09738281 10.85539063 -3.14453125 9.53125 C-3.18940674 8.35111328 -3.23428223 7.17097656 -3.28051758 5.95507812 C-3 3 -3 3 -1.4909668 1.09179688 C-0.99894775 0.73150391 -0.50692871 0.37121094 0 0 Z " fill="#C95863" transform="translate(180,233)"/>
<path d="M0 0 C0.99 0.495 0.99 0.495 2 1 C2 1.99 2 2.98 2 4 C12.23 4.33 22.46 4.66 33 5 C33 5.66 33 6.32 33 7 C28.43856763 7.25527569 23.8760941 7.4746667 19.3125 7.6875 C17.37213867 7.79674805 17.37213867 7.79674805 15.39257812 7.90820312 C13.52182617 7.99038086 13.52182617 7.99038086 11.61328125 8.07421875 C10.46641846 8.13182373 9.31955566 8.18942871 8.13793945 8.2487793 C4.59161227 7.96762257 2.77863634 7.19437225 0 5 C-0.3125 2.3125 -0.3125 2.3125 0 0 Z " fill="#EC4D59" transform="translate(178,306)"/>
<path d="M0 0 C0.66 0 1.32 0 2 0 C2 6.93 2 13.86 2 21 C1.34 20.67 0.68 20.34 0 20 C-0.4140625 17.27734375 -0.4140625 17.27734375 -0.625 13.9375 C-0.69976562 12.83277344 -0.77453125 11.72804688 -0.8515625 10.58984375 C-0.90054688 9.73519531 -0.94953125 8.88054687 -1 8 C-2.65 9.32 -4.3 10.64 -6 12 C-6.66 11.67 -7.32 11.34 -8 11 C-6.71632558 9.16106176 -5.42283239 7.32897375 -4.125 5.5 C-3.04605469 3.96859375 -3.04605469 3.96859375 -1.9453125 2.40625 C-1.30335938 1.6121875 -0.66140625 0.818125 0 0 Z " fill="#D3505D" transform="translate(204,246)"/>
<path d="M0 0 C-0.33 0.66 -0.66 1.32 -1 2 C-1.90748993 2.0154612 -1.90748993 2.0154612 -2.83331299 2.03123474 C-9.12742758 2.13937584 -15.42140123 2.25396779 -21.71533203 2.37231445 C-24.0645859 2.41563886 -26.41387075 2.45731573 -28.76318359 2.49731445 C-32.1390924 2.55507715 -35.51484561 2.61875468 -38.890625 2.68359375 C-40.46738007 2.70866249 -40.46738007 2.70866249 -42.07598877 2.73423767 C-43.54706085 2.7641555 -43.54706085 2.7641555 -45.04785156 2.79467773 C-46.3402475 2.81799416 -46.3402475 2.81799416 -47.65875244 2.84178162 C-49.99744233 2.92577892 -49.99744233 2.92577892 -52.18450928 3.57533264 C-54 4 -54 4 -56 3 C-56 2.34 -56 1.68 -56 1 C-48.98911216 0.85673498 -41.97820553 0.71441786 -34.96728516 0.57275391 C-32.58316616 0.52446877 -30.19905152 0.47596814 -27.81494141 0.42724609 C-24.38445139 0.35717773 -20.95394636 0.28788907 -17.5234375 0.21875 C-15.92935562 0.18593933 -15.92935562 0.18593933 -14.30307007 0.15246582 C-9.53454767 0.05705218 -4.7697912 -0.02860444 0 0 Z " fill="#E45960" transform="translate(328,360)"/>
<path d="M0 0 C3.24745514 4.13312472 5 6.63932628 5 12 C2.03 12 -0.94 12 -4 12 C-3.45660208 7.43545749 -2.20536179 4.0271824 0 0 Z " fill="#C84A58" transform="translate(262,242)"/>
<path d="M0 0 C0.33 0.66 0.66 1.32 1 2 C0.38125 1.835 -0.2375 1.67 -0.875 1.5 C-6.55696148 0.59088616 -11.83824751 -0.0376412 -17.125 2.5 C-19.28248657 5.37664876 -19.64910024 7.44294747 -19.44140625 11.02734375 C-18.76718738 14.04044578 -17.14443056 15.85556944 -15 18 C-18.25724605 17.43840585 -20.03790401 16.70956113 -22 14 C-23.14591736 10.92034711 -23.39676158 8.98184777 -22.15234375 5.90234375 C-20.1823961 2.41217926 -18.72111607 0.37623447 -15.125 -1.5 C-9.64323814 -2.3770819 -5.01198514 -2.6534039 0 0 Z " fill="#CC525D" transform="translate(330,234)"/>
<path d="M0 0 C0.66 0 1.32 0 2 0 C1.26828511 11.21962826 -5.17000968 19.36610962 -13 27 C-14.31170081 28.02821144 -15.63795906 29.03946773 -17 30 C-17.66 29.67 -18.32 29.34 -19 29 C-18.01 28.67 -17.02 28.34 -16 28 C-16 27.34 -16 26.68 -16 26 C-15.34 26 -14.68 26 -14 26 C-13.67 25.01 -13.34 24.02 -13 23 C-12.23171875 22.42121094 -11.4634375 21.84242188 -10.671875 21.24609375 C-7.51229031 18.59001013 -5.97092687 15.72429283 -4.25 12.0625 C-3.94707031 11.45470703 -3.64414062 10.84691406 -3.33203125 10.22070312 C-1.69395897 6.84627423 -0.53587849 3.71589424 0 0 Z " fill="#C75B63" transform="translate(361,325)"/>
<path d="M0 0 C2.1875 0.0625 2.1875 0.0625 5 1 C7.79639484 4.01328973 9.70202593 7.10607778 11 11 C11.66 11.33 12.32 11.66 13 12 C13.3403125 10.9790625 13.3403125 10.9790625 13.6875 9.9375 C15.33829665 6.24285987 16.98247364 2.76736873 20 0 C23.8125 -0.4375 23.8125 -0.4375 27 0 C27 0.33 27 0.66 27 1 C25.989375 1.103125 24.97875 1.20625 23.9375 1.3125 C19.73402337 2.42944815 18.42680009 5.00937681 16.25 8.625 C15.69828125 9.62789062 15.1465625 10.63078125 14.578125 11.6640625 C14.05734375 12.43492187 13.5365625 13.20578125 13 14 C12.01 14 11.02 14 10 14 C8.28125 11.69921875 8.28125 11.69921875 6.5 8.6875 C3.69908868 3.98412045 3.69908868 3.98412045 0 0 Z " fill="#C15A62" transform="translate(184,233)"/>
<path d="M0 0 C2.50696229 0.95091673 3.94401245 1.93801378 5.75 3.9375 C7.62260083 8.52537204 7.56172842 13.10493803 7 18 C5.98046875 20.33984375 5.98046875 20.33984375 5 22 C5.66 22 6.32 22 7 22 C7 22.66 7 23.32 7 24 C6.34 24 5.68 24 5 24 C4.67 24.66 4.34 25.32 4 26 C4 25.34 4 24.68 4 24 C3.34 24 2.68 24 2 24 C1.67 24.99 1.34 25.98 1 27 C0.01 26.67 -0.98 26.34 -2 26 C-1.01 25.67 -0.02 25.34 1 25 C4.37845413 19.55693502 4.7357039 13.23915125 4 7 C2.92238757 4.34126192 1.65243403 2.37537391 0 0 Z " fill="#DE505C" transform="translate(328,189)"/>
<path d="M0 0 C0.66 0.66 1.32 1.32 2 2 C-0.59257669 2.86419223 -2.34037707 3.17580932 -5.01171875 3.31640625 C-6.14770508 3.37924805 -6.14770508 3.37924805 -7.30664062 3.44335938 C-8.09232422 3.48267578 -8.87800781 3.52199219 -9.6875 3.5625 C-10.48478516 3.60568359 -11.28207031 3.64886719 -12.10351562 3.69335938 C-14.06881447 3.79927368 -16.03438496 3.90012551 -18 4 C-17 1 -17 1 -14.625 -0.25 C-9.67358989 -1.27442968 -4.95453325 -1.00385968 0 0 Z " fill="#BDB5B6" transform="translate(350,361)"/>
<path d="M0 0 C0.66 0 1.32 0 2 0 C2 1.98 2 3.96 2 6 C-3.75 7.125 -3.75 7.125 -6 6 C-7.99960012 5.960008 -10.00047242 5.95653201 -12 6 C-12 6.66 -12 7.32 -12 8 C-10.82630859 8.39832031 -10.82630859 8.39832031 -9.62890625 8.8046875 C-8.11103516 9.33449219 -8.11103516 9.33449219 -6.5625 9.875 C-5.55316406 10.22304687 -4.54382813 10.57109375 -3.50390625 10.9296875 C-1 12 -1 12 0 14 C-1.75280733 13.57388649 -3.50217435 13.13360733 -5.25 12.6875 C-6.22453125 12.44386719 -7.1990625 12.20023438 -8.203125 11.94921875 C-10.98975665 11.00347644 -12.77304368 9.89291287 -15 8 C-14.67 6.68 -14.34 5.36 -14 4 C-9.05632546 2.79422572 -5.79137588 3.3709322 -1 5 C-0.67 3.35 -0.34 1.7 0 0 Z " fill="#C2515C" transform="translate(331,236)"/>
<path d="M0 0 C1.98 0 3.96 0 6 0 C6.22786458 2.01822917 6.45572917 4.03645833 6.68359375 6.0546875 C6.91292961 8.07404316 6.91292961 8.07404316 8 10 C4.7 10.33 1.4 10.66 -2 11 C-2.33 10.34 -2.66 9.68 -3 9 C-1.02 9 0.96 9 3 9 C2.01 6.03 1.02 3.06 0 0 Z " fill="#EE5E63" transform="translate(276,258)"/>
<path d="M0 0 C4.81938524 -0.23509196 8.46298506 0.54815522 13 2 C12.34 3.32 11.68 4.64 11 6 C6.12335991 6.34833144 3.22949995 5.41685712 -1 3 C-0.67 2.01 -0.34 1.02 0 0 Z " fill="#F0515B" transform="translate(319,241)"/>
<path d="M0 0 C-1.5625 2.0625 -1.5625 2.0625 -4 4 C-6.34231288 3.73708186 -8.67578989 3.39192211 -11 3 C-13.41362935 2.86034659 -15.8295179 2.75619474 -18.24609375 2.68359375 C-18.90207047 2.66281265 -19.55804718 2.64203156 -20.23390198 2.62062073 C-22.30167546 2.55594062 -24.36956101 2.49662534 -26.4375 2.4375 C-27.85092242 2.39423693 -29.26433407 2.35062035 -30.67773438 2.30664062 C-34.11837471 2.20034484 -37.55913692 2.09885528 -41 2 C-41 1.67 -41 1.34 -41 1 C-35.9646246 0.85668752 -30.92922423 0.71429852 -25.89379883 0.57275391 C-24.18187764 0.52450341 -22.46996347 0.47600345 -20.75805664 0.42724609 C-18.29314967 0.35708609 -15.82821863 0.28783213 -13.36328125 0.21875 C-12.60163162 0.19687622 -11.83998199 0.17500244 -11.05525208 0.15246582 C-7.36898349 0.05001579 -3.6877504 -0.02549871 0 0 Z " fill="#B3515A" transform="translate(327,313)"/>
<path d="M0 0 C1.24007812 -0.02578125 2.48015625 -0.0515625 3.7578125 -0.078125 C4.78648437 0.03015625 5.81515625 0.1384375 6.875 0.25 C7.535 1.24 8.195 2.23 8.875 3.25 C3.21488783 4.62678404 -2.42795529 4.27850886 -8.125 3.25 C-9.115 2.59 -10.105 1.93 -11.125 1.25 C-7.42301879 0.09661892 -3.86072068 0.04835976 0 0 Z " fill="#C2C1BF" transform="translate(171.125,360.75)"/>
<path d="M0 0 C5.625 5.625 5.625 5.625 7.8125 9.3125 C8.23144531 10.00988281 8.65039062 10.70726562 9.08203125 11.42578125 C9.38496094 11.94527344 9.68789062 12.46476562 10 13 C9.01 13 8.02 13 7 13 C3 7.74285714 3 7.74285714 3 5 C2.34 5 1.68 5 1 5 C1 9.95 1 14.9 1 20 C0.67 20 0.34 20 0 20 C0 13.4 0 6.8 0 0 Z " fill="#C4525C" transform="translate(186,246)"/>
<path d="M0 0 C4.95 0 9.9 0 15 0 C15.99 2.64 16.98 5.28 18 8 C15 7 15 7 13.8125 4.9375 C13.4103125 3.9784375 13.4103125 3.9784375 13 3 C11.04196493 2.94610913 9.08351091 2.90725783 7.125 2.875 C6.03445313 2.85179687 4.94390625 2.82859375 3.8203125 2.8046875 C0.8628949 2.69939466 0.8628949 2.69939466 -1 5 C-0.67 3.35 -0.34 1.7 0 0 Z " fill="#C1525B" transform="translate(255,259)"/>
<path d="M0 0 C2.97769846 0.1384976 5.21826492 0.31118434 7.51171875 2.33203125 C11 6.44000716 11 6.44000716 11 9 C11.66 9 12.32 9 13 9 C13.33 9.99 13.66 10.98 14 12 C16.97 12.495 16.97 12.495 20 13 C20 13.66 20 14.32 20 15 C15.75318722 14.78274527 13.61869827 14.5907943 10.48828125 11.6015625 C9.77027344 10.61929687 9.05226562 9.63703125 8.3125 8.625 C5.76225533 5.19145567 3.58080383 2.37642511 0 0 Z " fill="#C65860" transform="translate(224,286)"/>
<path d="M0 0 C9.33041575 1.17286652 9.33041575 1.17286652 12.125 4.625 C12.558125 5.800625 12.558125 5.800625 13 7 C10.68551391 8.88051995 9.01144473 10.08702679 5.95703125 9.82421875 C2.55845801 9.01326594 0.51421148 8.51421148 -2 6 C-1.07767578 6.10828125 -1.07767578 6.10828125 -0.13671875 6.21875 C0.67152344 6.3115625 1.47976563 6.404375 2.3125 6.5 C3.51326172 6.63921875 3.51326172 6.63921875 4.73828125 6.78125 C7.11896555 7.04813463 7.11896555 7.04813463 10 7 C10 6.34 10 5.68 10 5 C5.05 3.02 5.05 3.02 0 1 C0 0.67 0 0.34 0 0 Z " fill="#BF515B" transform="translate(315,252)"/>
<path d="M0 0 C0 0.99 0 1.98 0 3 C-1 4 -1 4 -3.94140625 4.09765625 C-5.73384766 4.08025391 -5.73384766 4.08025391 -7.5625 4.0625 C-9.35880859 4.04896484 -9.35880859 4.04896484 -11.19140625 4.03515625 C-12.11824219 4.02355469 -13.04507813 4.01195312 -14 4 C-13.67 3.01 -13.34 2.02 -13 1 C-6.565 0.505 -6.565 0.505 0 0 Z " fill="#F65160" transform="translate(241,254)"/>
<path d="M0 0 C4.29 0 8.58 0 13 0 C13.33 0.99 13.66 1.98 14 3 C13.34 3.66 12.68 4.32 12 5 C11.34 4.34 10.68 3.68 10 3 C9.01 3.495 9.01 3.495 8 4 C6.45386986 3.91348369 4.91090613 3.75997364 3.375 3.5625 C2.14910156 3.40974609 2.14910156 3.40974609 0.8984375 3.25390625 C0.27195312 3.17011719 -0.35453125 3.08632813 -1 3 C-0.67 2.01 -0.34 1.02 0 0 Z " fill="#F4545F" transform="translate(256,261)"/>
<path d="M0 0 C0.33 0 0.66 0 1 0 C1.19766544 3.56201195 1.38133629 7.12461367 1.5625 10.6875 C1.61857422 11.69490234 1.67464844 12.70230469 1.73242188 13.74023438 C1.78076172 14.71669922 1.82910156 15.69316406 1.87890625 16.69921875 C1.94960327 18.04246216 1.94960327 18.04246216 2.02172852 19.4128418 C1.99942695 22.06823177 1.60392668 24.41958599 1 27 C-1.10735267 23.83897099 -1.24908203 23.08180677 -1.23046875 19.47265625 C-1.22853516 18.59802734 -1.22660156 17.72339844 -1.22460938 16.82226562 C-1.21236328 15.91154297 -1.20011719 15.00082031 -1.1875 14.0625 C-1.18685547 13.15564453 -1.18621094 12.24878906 -1.18554688 11.31445312 C-1.15936754 7.3613742 -1.09455572 3.82084564 0 0 Z " fill="#DD4750" transform="translate(149,270)"/>
<path d="M0 0 C7.92 0.33 15.84 0.66 24 1 C24 1.33 24 1.66 24 2 C20.37629339 2.25413123 16.75131263 2.47405533 13.125 2.6875 C11.57619141 2.79674805 11.57619141 2.79674805 9.99609375 2.90820312 C8.51689453 2.99038086 8.51689453 2.99038086 7.0078125 3.07421875 C6.09660645 3.13182373 5.18540039 3.18942871 4.24658203 3.2487793 C3.50520996 3.16668213 2.76383789 3.08458496 2 3 C1.34 2.01 0.68 1.02 0 0 Z " fill="#B76A72" transform="translate(178,361)"/>
<path d="M0 0 C-1.375 2.5 -1.375 2.5 -3 5 C-3.66 5 -4.32 5 -5 5 C-5 4.34 -5 3.68 -5 3 C-6.0828125 3.495 -6.0828125 3.495 -7.1875 4 C-10.01697427 5.00603529 -12.02895466 5.16977402 -15 5 C-12.70731454 1.56097181 -11.88956548 1.35147553 -8.0625 0.25 C-7.18722656 -0.01296875 -6.31195313 -0.2759375 -5.41015625 -0.546875 C-3 -1 -3 -1 0 0 Z " fill="#F6525F" transform="translate(334,267)"/>
<path d="M0 0 C3.9375 7.875 3.9375 7.875 4.98046875 9.98046875 C5.86643617 11.73543103 6.80388497 13.46421905 7.75 15.1875 C9.03292022 18.07407049 9.27487168 19.88478764 9 23 C5.74585358 19.24367049 4.10372908 14.92159479 2.25 10.375 C1.92128906 9.59898437 1.59257812 8.82296875 1.25390625 8.0234375 C0.94839844 7.2809375 0.64289063 6.5384375 0.328125 5.7734375 C0.0487207 5.09716309 -0.23068359 4.42088867 -0.51855469 3.72412109 C-1 2 -1 2 0 0 Z " fill="#C75861" transform="translate(267,234)"/>
<path d="M0 0 C7.68421053 -0.29554656 7.68421053 -0.29554656 11 2 C11.33 2.66 11.66 3.32 12 4 C13.97888961 4.72693904 15.97954558 5.39816251 18 6 C14.21654059 7.26115314 12.73576419 6.5135673 9 5.25 C7.948125 4.90453125 6.89625 4.5590625 5.8125 4.203125 C3.17693698 3.07568971 1.80245189 2.1779627 0 0 Z " fill="#C55D6B" transform="translate(172,355)"/>
<path d="M0 0 C3.45615727 1.21432553 5.48806925 2.38340546 8 5 C9.64605826 6.03357147 11.30963442 7.04060332 13 8 C12.34 8.66 11.68 9.32 11 10 C11 9.34 11 8.68 11 8 C9.68 8.33 8.36 8.66 7 9 C7 8.34 7 7.68 7 7 C6.34 7 5.68 7 5 7 C5 6.34 5 5.68 5 5 C4.38125 4.71125 3.7625 4.4225 3.125 4.125 C1 3 1 3 -1 1 C-0.67 0.67 -0.34 0.34 0 0 Z " fill="#EF535D" transform="translate(279,212)"/>
<path d="M0 0 C-0.639375 0.309375 -1.27875 0.61875 -1.9375 0.9375 C-3.93610821 1.8345163 -3.93610821 1.8345163 -5 3 C-6.85772162 2.91015699 -8.71247985 2.75388139 -10.5625 2.5625 C-12.08037109 2.40974609 -12.08037109 2.40974609 -13.62890625 2.25390625 C-14.41136719 2.17011719 -15.19382812 2.08632813 -16 2 C-16 1.67 -16 1.34 -16 1 C-10.28728907 -1.0662997 -5.96345767 -1.0006709 0 0 Z " fill="#B77F88" transform="translate(337,361)"/>
<path d="M0 0 C2.1285909 3.19288635 2.63901665 5.26148017 3.3125 9 C3.61607422 10.5778125 3.61607422 10.5778125 3.92578125 12.1875 C3.95027344 13.115625 3.97476563 14.04375 4 15 C3.01 15.99 2.02 16.98 1 18 C0.67 12.06 0.34 6.12 0 0 Z " fill="#E84853" transform="translate(148,212)"/>
<path d="M0 0 C0.33 0.66 0.66 1.32 1 2 C1.66 2 2.32 2 3 2 C3 2.66 3 3.32 3 4 C-0.3 4.33 -3.6 4.66 -7 5 C-6.67 4.01 -6.34 3.02 -6 2 C-2.9375 0.8125 -2.9375 0.8125 0 0 Z " fill="#D2CECE" transform="translate(339,360)"/>
<path d="M0 0 C0.33 0.99 0.66 1.98 1 3 C-2.75 6 -2.75 6 -5 6 C-4.67 6.99 -4.34 7.98 -4 9 C-5.32 9 -6.64 9 -8 9 C-8.33 9.66 -8.66 10.32 -9 11 C-9.66 10.34 -10.32 9.68 -11 9 C-8.17864692 5.86516324 -5.87757073 4.53062002 -2 3 C-1.34 2.01 -0.68 1.02 0 0 Z " fill="#D94552" transform="translate(334,307)"/>
<path d="M0 0 C0.66 0.99 1.32 1.98 2 3 C-0.64 3.33 -3.28 3.66 -6 4 C-6 4.33 -6 4.66 -6 5 C-8.64 5.33 -11.28 5.66 -14 6 C-14 5.34 -14 4.68 -14 4 C-10.78817851 2.09391902 -8.46117397 1.77733753 -4.75 1.875 C-3.85796875 1.89304688 -2.9659375 1.91109375 -2.046875 1.9296875 C-1.03367188 1.96449219 -1.03367188 1.96449219 0 2 C0 1.34 0 0.68 0 0 Z " fill="#EC4D55" transform="translate(242,207)"/>
<path d="M0 0 C0.99 0.33 1.98 0.66 3 1 C3.19412181 2.47831221 3.38012131 3.95769316 3.5625 5.4375 C3.66691406 6.26121094 3.77132813 7.08492188 3.87890625 7.93359375 C3.91886719 8.61550781 3.95882813 9.29742187 4 10 C3 11 3 11 0.4375 11.0625 C-0.366875 11.041875 -1.17125 11.02125 -2 11 C-2.33 10.34 -2.66 9.68 -3 9 C-1.02 9 0.96 9 3 9 C2.01 6.03 1.02 3.06 0 0 Z " fill="#CC5660" transform="translate(276,258)"/>
<path d="M0 0 C0 1.65 0 3.3 0 5 C-2.64 4.67 -5.28 4.34 -8 4 C-8.33 3.01 -8.66 2.02 -9 1 C-2.25 0 -2.25 0 0 0 Z " fill="#F1515C" transform="translate(188,267)"/>
<path d="M0 0 C0.66 0 1.32 0 2 0 C2 6.93 2 13.86 2 21 C1.67 21 1.34 21 1 21 C1 15.06 1 9.12 1 3 C0.01 2.67 -0.98 2.34 -2 2 C-1.34 1.34 -0.68 0.68 0 0 Z " fill="#AE565C" transform="translate(204,246)"/>
<path d="M0 0 C-1.64828161 3.29656322 -4.66994907 3.75828609 -8 5 C-9.32 5 -10.64 5 -12 5 C-12 4.34 -12 3.68 -12 3 C-10.3789897 2.30314502 -8.75303934 1.61777139 -7.125 0.9375 C-6.22007812 0.55464844 -5.31515625 0.17179688 -4.3828125 -0.22265625 C-2 -1 -2 -1 0 0 Z " fill="#F45260" transform="translate(326,217)"/>
<path d="M0 0 C4.29 0 8.58 0 13 0 C13 0.33 13 0.66 13 1 C12.39671875 1.12117187 11.7934375 1.24234375 11.171875 1.3671875 C10.37265625 1.53476563 9.5734375 1.70234375 8.75 1.875 C7.96109375 2.03742188 7.1721875 2.19984375 6.359375 2.3671875 C4.03168856 2.99150075 2.10968048 3.84838542 0 5 C0 3.35 0 1.7 0 0 Z " fill="#CF5F66" transform="translate(180,192)"/>
<path d="M0 0 C-1.5625 2.0625 -1.5625 2.0625 -4 4 C-7.6875 3.875 -7.6875 3.875 -11 3 C-11.33 2.34 -11.66 1.68 -12 1 C-7.95858806 0.36605303 -4.0934693 -0.12404452 0 0 Z " fill="#C74F57" transform="translate(327,313)"/>
<path d="M0 0 C3.0625 0.875 3.0625 0.875 6 2 C6.66 2 7.32 2 8 2 C7.67 2.99 7.34 3.98 7 5 C3.28111761 4.49287967 0.26545761 3.88391785 -3 2 C-2.01 1.34 -1.02 0.68 0 0 Z " fill="#F75961" transform="translate(321,242)"/>
<path d="M0 0 C2.1875 0.0625 2.1875 0.0625 5 1 C7.38627358 3.56685645 10 6.38918448 10 10 C5.77580824 8.49136008 4.3125983 5.70015728 2 2 C1.34 1.34 0.68 0.68 0 0 Z " fill="#CE5760" transform="translate(184,233)"/>
<path d="M0 0 C0 0.66 0 1.32 0 2 C-0.928125 2.433125 -1.85625 2.86625 -2.8125 3.3125 C-5.47184073 4.72038627 -7.08105905 5.76123556 -9 8 C-9.99 7.67 -10.98 7.34 -12 7 C-10.70982586 6.01886757 -9.41780894 5.04015801 -8.125 4.0625 C-7.04605469 3.24458984 -7.04605469 3.24458984 -5.9453125 2.41015625 C-2.62049861 0 -2.62049861 0 0 0 Z " fill="#C5545E" transform="translate(176,152)"/>
<path d="M0 0 C5.28 0 10.56 0 16 0 C16 0.33 16 0.66 16 1 C14.98679687 1.09087891 14.98679687 1.09087891 13.953125 1.18359375 C13.06109375 1.26738281 12.1690625 1.35117187 11.25 1.4375 C10.36828125 1.51871094 9.4865625 1.59992188 8.578125 1.68359375 C6.04018545 1.93300265 6.04018545 1.93300265 3.796875 2.59765625 C2 3 2 3 0 2 C0 1.34 0 0.68 0 0 Z " fill="#E84E52" transform="translate(272,361)"/>
<path d="M0 0 C-5.36000789 2.25684543 -9.1977825 3.36263859 -15 3 C-13.34858624 1.03100667 -12.36784958 0.09329518 -9.84375 -0.546875 C-9.0703125 -0.61390625 -8.296875 -0.6809375 -7.5 -0.75 C-6.7265625 -0.82734375 -5.953125 -0.9046875 -5.15625 -0.984375 C-3 -1 -3 -1 0 0 Z " fill="#F3565B" transform="translate(247,210)"/>
<path d="M0 0 C1.8871875 0.0309375 1.8871875 0.0309375 3.8125 0.0625 C3.8125 1.0525 3.8125 2.0425 3.8125 3.0625 C2.74 2.815 1.6675 2.5675 0.5625 2.3125 C-3.21495496 1.63821378 -3.21495496 1.63821378 -5.625 4 C-6.140625 4.680625 -6.65625 5.36125 -7.1875 6.0625 C-7.1875 4.4125 -7.1875 2.7625 -7.1875 1.0625 C-4.43671116 0.14557039 -2.82801087 -0.04636083 0 0 Z " fill="#E46269" transform="translate(315.1875,256.9375)"/>
<path d="M0 0 C0.515625 0.804375 1.03125 1.60875 1.5625 2.4375 C4.63205757 5.66447078 6.64868459 5.74896257 11 6 C11 6.33 11 6.66 11 7 C9.35425434 7.02688151 7.70838587 7.04634123 6.0625 7.0625 C5.14597656 7.07410156 4.22945312 7.08570313 3.28515625 7.09765625 C1 7 1 7 0 6 C-0.04080783 4.00041636 -0.04254356 1.99954746 0 0 Z " fill="#D54A58" transform="translate(179,289)"/>
<path d="M0 0 C-0.33 0.99 -0.66 1.98 -1 3 C-3.97 2.67 -6.94 2.34 -10 2 C-6.00889681 0.0044484 -4.30013434 -0.19546065 0 0 Z " fill="#A7A4A5" transform="translate(170,361)"/>
<path d="M0 0 C0.33 0 0.66 0 1 0 C1.08131463 1.43655854 1.13933559 2.8744483 1.1875 4.3125 C1.23970703 5.51326172 1.23970703 5.51326172 1.29296875 6.73828125 C0.93801608 9.47851584 0.10633718 10.29171079 -2 12 C-1.85831863 10.56208484 -1.71148957 9.1246763 -1.5625 7.6875 C-1.48128906 6.88699219 -1.40007812 6.08648437 -1.31640625 5.26171875 C-1 3 -1 3 0 0 Z " fill="#D95764" transform="translate(334,198)"/>
<path d="M0 0 C5.53846154 -0.36923077 5.53846154 -0.36923077 7.875 1.5 C8.24625 1.995 8.6175 2.49 9 3 C5.625 3.1875 5.625 3.1875 2 3 C1.34 2.01 0.68 1.02 0 0 Z " fill="#AF929C" transform="translate(178,361)"/>
<path d="M0 0 C6.4 -0.36923077 6.4 -0.36923077 9.4375 1.5 C9.953125 1.995 10.46875 2.49 11 3 C3.49230769 3.36923077 3.49230769 3.36923077 1 1.5 C0.67 1.005 0.34 0.51 0 0 Z " fill="#DA5965" transform="translate(172,355)"/>
<path d="M0 0 C2 2 2 2 2.125 4.4375 C2.08375 5.283125 2.0425 6.12875 2 7 C2 7.99 2 8.98 2 10 C-0.05619793 7.68677733 -0.95899829 6.44076838 -1.25 3.3125 C-1 1 -1 1 0 0 Z " fill="#DC5A66" transform="translate(157,335)"/>
<path d="M0 0 C2.6875 0.3125 2.6875 0.3125 5 1 C4.67 1.99 4.34 2.98 4 4 C1.69 3.67 -0.62 3.34 -3 3 C-1.8125 1.4375 -1.8125 1.4375 0 0 Z " fill="#F4535E" transform="translate(221,268)"/>
<path d="M0 0 C3 3.75 3 3.75 3 6 C1.35 6 -0.3 6 -2 6 C-1.34 4.02 -0.68 2.04 0 0 Z " fill="#F45C63" transform="translate(262,246)"/>
<path d="M0 0 C3 3.75 3 3.75 3 6 C1.35 6 -0.3 6 -2 6 C-1.34 4.02 -0.68 2.04 0 0 Z " fill="#BD5A61" transform="translate(262,242)"/>
</svg>
