<?xml version="1.0" encoding="UTF-8"?>
<svg version="1.1" xmlns="http://www.w3.org/2000/svg" width="500" height="500">
<path d="M0 0 C3.82414212 2.70488101 6.07909586 5.36228759 7.5625 9.8125 C8.36737347 22.91478447 8.11527437 32.741071 -0.6875 43.125 C-5.69488518 48.37986715 -10.99987638 51.62921591 -17.4375 54.8125 C-12.73035837 59.92311092 -9.5233182 61.8605155 -2.625 62.1875 C2.60034694 62.04753535 6.37904587 60.96337743 10.5625 57.8125 C15.22980105 52.38082313 16.20596582 47.54544699 16.125 40.5625 C16.41326966 28.03367096 19.59124594 17.73366944 27.5625 7.8125 C34.24566156 1.43885021 40.37929373 -1.83509043 49.70703125 -1.62109375 C54.64517139 -0.87125305 58.08256862 1.28203019 61.5625 4.8125 C64.56436105 9.36397041 66.56025848 14.32482835 65.5625 19.8125 C64.0625 22.625 64.0625 22.625 61.5625 24.8125 C58.15380419 25.78930018 54.84095789 26.45172894 51.5625 24.8125 C51.10546875 22.81640625 51.10546875 22.81640625 50.75 20.375 C50.33197323 17.94744452 50.33197323 17.94744452 49.5625 15.8125 C47.09235528 14.13636813 47.09235528 14.13636813 44.5625 13.8125 C38.67871181 17.24470978 37.3583379 22.60629548 35.5625 28.8125 C33.40154176 37.62693492 33.15972183 47.74074002 37.5625 55.8125 C40.46857562 58.89681492 43.56387919 61.60725443 47.8828125 62.05078125 C54.26617838 62.2197004 59.47822962 61.97336897 64.5625 57.8125 C71.21694196 50.13543778 72.88954246 42.53684815 72.6875 32.66796875 C72.67992676 31.81697098 72.67235352 30.96597321 72.66455078 30.08918762 C72.64027332 27.3925778 72.60298594 24.69641211 72.5625 22 C72.5094341 18.43100219 72.46944314 14.8622108 72.4375 11.29296875 C72.42090332 10.47217331 72.40430664 9.65137787 72.38720703 8.80570984 C72.3697902 6.80719479 72.45703431 4.80830629 72.5625 2.8125 C74.94474928 0.43025072 75.6127037 0.49232851 78.875 0.4375 C82.33262282 0.5098818 83.49604844 0.77235218 86.5625 2.625 C89.64331525 5.99464169 89.69749668 8.81157854 89.76782227 13.2019043 C89.7977401 14.85327644 89.7977401 14.85327644 89.82826233 16.53800964 C89.84497482 17.72558365 89.86168732 18.91315765 89.87890625 20.13671875 C89.89968735 21.35325638 89.92046844 22.56979401 89.94187927 23.82319641 C90.00734717 27.71540596 90.06624715 31.60768385 90.125 35.5 C90.16818782 38.13607482 90.2118022 40.77214269 90.25585938 43.40820312 C90.36302578 49.87622951 90.46479745 56.34432411 90.5625 62.8125 C95.18651149 61.49029259 95.18651149 61.49029259 98.75 58.375 C103.86614064 48.31913736 103.98188459 38.42023348 103.84375 27.39428711 C103.81226195 24.85580882 103.802734 22.31795229 103.796875 19.77929688 C103.78771543 18.15624242 103.77734301 16.53319425 103.765625 14.91015625 C103.75925018 13.77889061 103.75925018 13.77889061 103.75274658 12.62477112 C103.71410494 9.78941053 103.66115876 7.18088394 102.92480469 4.43139648 C102.74546387 3.63004272 102.74546387 3.63004272 102.5625 2.8125 C105.04268753 0.33231247 105.94765951 0.48888442 109.375 0.4375 C113.17168722 0.49244482 114.38288039 0.69754345 117.6875 2.8125 C118.30625 3.4725 118.925 4.1325 119.5625 4.8125 C121.5355842 3.8476879 123.46608389 2.87018126 125.3515625 1.7421875 C130.73658759 -1.35133755 135.41064328 -2.03531891 141.5625 -1.1875 C148.20573223 1.19403608 152.42924446 5.77649012 155.72460938 11.95117188 C158.64451944 18.43759215 158.91584418 25.00862483 158.875 32 C158.87306641 33.37514771 158.87306641 33.37514771 158.87109375 34.77807617 C158.76765101 42.13091534 157.75840744 48.76729697 155.5625 55.8125 C160.21430544 56.05357095 160.21430544 56.05357095 164.3125 54 C167.48588147 50.95128749 167.48588147 50.95128749 168.80200195 46.87402344 C168.80159912 46.14731445 168.80119629 45.42060547 168.80078125 44.671875 C168.81318848 43.85565674 168.8255957 43.03943848 168.83837891 42.19848633 C168.85046387 41.32861084 168.86254883 40.45873535 168.875 39.5625 C169.31033478 26.65028429 171.77156463 14.10082062 181.5625 4.8125 C188.54096248 -0.5080957 194.79565718 -2.19353114 203.5625 -1.1875 C207.84740218 0.20296495 210.5743217 2.2056605 212.94140625 6.0546875 C216.65020709 14.35102946 216.44240436 21.74461207 213.59765625 30.265625 C208.72157152 42.26263347 200.94734795 49.09372221 189.5625 54.8125 C194.49178243 60.06388207 194.49178243 60.06388207 201.1484375 62.11328125 C208.40910962 62.14378828 212.76364508 61.47807611 218.1875 56.3125 C220.96633379 52.74989258 222.22424529 48.69284838 223.6484375 44.44921875 C224.70894581 41.39006017 226.02580109 38.65539298 227.5625 35.8125 C233.8125 35.33173077 233.8125 35.33173077 237 37.375 C239.54836936 41.3504562 238.97570824 44.61733125 238.125 49.13671875 C235.45591707 59.76300516 228.79947139 68.35897914 219.53125 74.0625 C210.72952687 78.40307579 199.31658807 78.54886578 190.015625 75.7421875 C183.35557723 72.64881506 178.33791566 68.34636402 173.5625 62.8125 C172.923125 63.410625 172.28375 64.00875 171.625 64.625 C164.97087641 69.37794542 157.57350796 70.24974916 149.578125 71.08984375 C146.02065536 71.94234619 144.27294536 73.40577178 141.5625 75.8125 C135.40103875 79.333335 129.57238301 79.36563189 122.5625 78.8125 C121.9025 78.4825 121.2425 78.1525 120.5625 77.8125 C120.57138245 78.5678302 120.58026489 79.3231604 120.5894165 80.10137939 C120.66959389 87.22271087 120.73047985 94.34382325 120.76974869 101.46548843 C120.7906161 105.12676511 120.81891706 108.78766858 120.86425781 112.44873047 C120.90774763 115.98248711 120.93164348 119.51588499 120.94200897 123.04988861 C120.95298737 125.05301252 120.98420876 127.05599226 121.01568604 129.05889893 C121.01598816 130.27986267 121.01629028 131.50082642 121.01660156 132.75878906 C121.02548401 133.83356506 121.03436646 134.90834106 121.04351807 136.01568604 C120.44457571 139.49815473 119.30081848 140.65252679 116.5625 142.8125 C114.30859375 143.52734375 114.30859375 143.52734375 112 143.75 C111.23558594 143.84152344 110.47117187 143.93304688 109.68359375 144.02734375 C107.5625 143.8125 107.5625 143.8125 105.95695496 142.710495 C103.90108524 139.91224726 104.16198145 137.67639271 104.13012695 134.22973633 C104.11483948 133.23421501 104.11483948 133.23421501 104.09924316 132.21858215 C104.06907375 130.02714643 104.05984172 127.8361475 104.05078125 125.64453125 C104.03393739 124.12422732 104.01578754 122.60393735 103.99638367 121.08366394 C103.94884526 117.08391682 103.919061 113.08422626 103.89294434 109.08428955 C103.86315801 105.00204293 103.81662113 100.91999127 103.77148438 96.83789062 C103.68540766 88.82952278 103.61808207 80.82113726 103.5625 72.8125 C102.47517578 73.46081787 101.38785156 74.10913574 100.26757812 74.77709961 C94.95225101 77.94636734 89.57660021 77.7051589 83.5625 76.8125 C79.48401488 75.01659563 77.04194827 72.5316724 74.5625 68.8125 C73.91023438 69.22242188 73.25796875 69.63234375 72.5859375 70.0546875 C71.71195312 70.59351563 70.83796875 71.13234375 69.9375 71.6875 C69.07898438 72.22117187 68.22046875 72.75484375 67.3359375 73.3046875 C59.05126694 77.80874783 49.78282516 78.0374077 40.5625 76.8125 C33.80787025 74.66166475 28.08464784 71.30367952 23.5625 65.8125 C22.74458984 66.50085938 22.74458984 66.50085938 21.91015625 67.203125 C11.3374937 75.80583846 3.11922949 77.96275947 -10.38183594 77.03125 C-19.01918803 76.11212085 -25.91818645 71.36600445 -31.4375 64.8125 C-38.57463946 52.65040555 -39.32760928 37.95143549 -36.3125 24.3125 C-33.35791619 14.40917278 -27.88050465 6.80336243 -19.4375 0.8125 C-13.26454064 -2.22451687 -6.44806881 -2.22751468 0 0 Z M125.5625 15.8125 C121.60344061 22.18142163 120.41637996 27.74510982 120.46484375 35.19921875 C120.46696617 36.42473198 120.46696617 36.42473198 120.46913147 37.67500305 C120.47472706 40.28337268 120.48727871 42.89165634 120.5 45.5 C120.50501557 47.26887897 120.50957838 49.03775928 120.51367188 50.80664062 C120.52469504 55.14196019 120.54195662 59.47721552 120.5625 63.8125 C121.6656958 63.32604004 122.7688916 62.83958008 123.90551758 62.33837891 C126.96514082 61.06174861 129.03228606 60.49945072 132.25 60.1875 C134.96645796 59.61464152 136.18260198 59.27776836 137.953125 57.109375 C143.10494282 46.42127533 144.02993268 32.86479904 140.92578125 21.4765625 C139.70625267 18.41806226 138.29271225 15.70264694 135.5625 13.8125 C131.23455588 12.21799427 129.05497505 12.85732881 125.5625 15.8125 Z M194.5625 12.8125 C188.22672218 17.17294411 187.05842001 22.52091178 185.5625 29.8125 C185.28624415 33.51345139 185.29556786 37.11252399 185.5625 40.8125 C191.27281004 38.28417698 194.41691934 33.83635917 197.4375 28.5 C198.86141585 23.83272028 198.82529797 19.64992922 198.5625 14.8125 C197.2425 14.1525 195.9225 13.4925 194.5625 12.8125 Z M-16.4375 15.8125 C-20.6447164 23.69484367 -21.58875481 32.03972099 -21.4375 40.8125 C-16.63241025 39.68189065 -14.51903329 36.96340166 -11.796875 33.09765625 C-8.68593642 27.86806122 -6.56148369 21.94461415 -7.4375 15.8125 C-8.75068262 13.91291919 -8.75068262 13.91291919 -10.4375 12.8125 C-12.79173829 12.8125 -14.61442346 14.51701076 -16.4375 15.8125 Z " fill="#4FB059" transform="translate(201.4375,234.1875)"/>
<path d="M0 0 C8.85086616 7.13126931 13.5752158 17.38920963 15.67578125 28.40234375 C17.46828752 45.75612271 13.19068824 60.16847939 2.55078125 74.02734375 C-3.14845036 80.78306557 -10.00712331 85.52428012 -17.32421875 90.40234375 C-16.05578125 91.26859375 -16.05578125 91.26859375 -14.76171875 92.15234375 C-6.35583599 99.3180143 -2.84094633 110.63783061 0.65966797 120.75195312 C3.18998448 127.85337912 6.23444017 135.10811636 12.67578125 139.40234375 C12.40102908 142.69936982 11.94811652 144.1217559 9.61328125 146.52734375 C6.67578125 148.40234375 6.67578125 148.40234375 -1.32421875 151.40234375 C-1.32421875 162.29234375 -1.32421875 173.18234375 -1.32421875 184.40234375 C-3.63421875 184.40234375 -5.94421875 184.40234375 -8.32421875 184.40234375 C-9.32421875 183.40234375 -9.32421875 183.40234375 -9.43774414 180.25952148 C-9.43758508 178.86831678 -9.43189381 177.47710614 -9.421875 176.0859375 C-9.42046005 175.35488297 -9.4190451 174.62382843 -9.41758728 173.87062073 C-9.41197283 171.52698743 -9.39941797 169.18344836 -9.38671875 166.83984375 C-9.38170561 165.25455867 -9.37714238 163.66927209 -9.37304688 162.08398438 C-9.36199872 158.19006765 -9.34472447 154.2962217 -9.32421875 150.40234375 C-7.67421875 150.07234375 -6.02421875 149.74234375 -4.32421875 149.40234375 C-5.19046875 148.53609375 -6.05671875 147.66984375 -6.94921875 146.77734375 C-14.31555466 138.07953398 -17.22260492 126.2654223 -19.96875 115.41918945 C-21.78266457 108.76485446 -24.46203942 103.75053139 -30.4921875 100.08422852 C-32.40047923 99.11636153 -34.35927475 98.24930237 -36.32421875 97.40234375 C-36.3085083 98.56805908 -36.3085083 98.56805908 -36.29248047 99.75732422 C-36.25101593 103.26396475 -36.22492297 106.77055381 -36.19921875 110.27734375 C-36.18246094 111.50066406 -36.16570312 112.72398437 -36.1484375 113.984375 C-36.13876953 115.73427734 -36.13876953 115.73427734 -36.12890625 117.51953125 C-36.1131958 119.13770752 -36.1131958 119.13770752 -36.09716797 120.78857422 C-36.32421875 123.40234375 -36.32421875 123.40234375 -38.32421875 125.40234375 C-40.3125 125.703125 -40.3125 125.703125 -42.63671875 125.71484375 C-43.39597656 125.73160156 -44.15523437 125.74835938 -44.9375 125.765625 C-48.2646525 125.25920081 -49.76130038 124.65557853 -52.32421875 122.40234375 C-53.12617232 119.07808021 -53.03449182 115.76889547 -53.01538086 112.36303711 C-53.02907715 111.33193314 -53.04277344 110.30082916 -53.05688477 109.23847961 C-53.09594919 105.82279252 -53.09926766 102.40808198 -53.1015625 98.9921875 C-53.11974967 96.62470508 -53.13983951 94.25723658 -53.16175842 91.88978577 C-53.20258836 86.92574593 -53.22693192 81.96199555 -53.23852539 76.99780273 C-53.25379478 70.62262737 -53.29960066 64.24814831 -53.35639095 57.8732214 C-53.39834226 52.98437921 -53.42935695 48.09552048 -53.45648384 43.20657539 C-53.46986955 40.85532852 -53.48547801 38.50409326 -53.50330925 36.1528759 C-53.52551793 32.87260684 -53.53426107 29.59259076 -53.53881836 26.31225586 C-53.54750443 25.33298126 -53.55619049 24.35370667 -53.56513977 23.34475708 C-53.56279831 22.00928581 -53.56279831 22.00928581 -53.56040955 20.64683533 C-53.56313338 19.87089492 -53.56585722 19.09495451 -53.5686636 18.29550076 C-53.32421875 16.40234375 -53.32421875 16.40234375 -51.32421875 14.40234375 C-45.93329936 13.96046511 -42.75460725 14.0143996 -38.32421875 17.40234375 C-36.32421875 19.40234375 -36.32421875 19.40234375 -36.08370972 21.99661255 C-36.09037155 23.64208572 -36.09037155 23.64208572 -36.09716797 25.32080078 C-36.09731903 26.56193634 -36.09747009 27.8030719 -36.09762573 29.08181763 C-36.10783975 30.44126545 -36.11827175 31.80071165 -36.12890625 33.16015625 C-36.13263591 34.54735104 -36.1354831 35.93454846 -36.13748169 37.32174683 C-36.14512191 40.97474426 -36.16477359 44.62758292 -36.18688965 48.28051758 C-36.20733979 52.00730237 -36.21648162 55.73411279 -36.2265625 59.4609375 C-36.24801924 66.774812 -36.28215972 74.08855564 -36.32421875 81.40234375 C-34.39078865 80.61084815 -32.45876383 79.81591917 -30.52734375 79.01953125 C-28.91327637 78.35606689 -28.91327637 78.35606689 -27.26660156 77.67919922 C-23.93831236 76.23487856 -21.19670241 74.62199021 -18.32421875 72.40234375 C-17.70160156 71.96921875 -17.07898438 71.53609375 -16.4375 71.08984375 C-8.02982509 64.6839962 -3.05011508 53.97721867 -1.53515625 43.625 C-0.72182109 35.05485729 -1.17824189 26.87955234 -6.28125 19.6171875 C-11.5126755 13.56584522 -17.00679829 8.19447903 -25.32421875 7.40234375 C-37.38642009 6.65597999 -46.85956472 9.8217606 -57.07421875 16.08984375 C-66.33123555 25.60399991 -68.77340384 37.36179672 -68.75927734 50.18017578 C-68.60267956 55.48656951 -67.57007606 59.81784787 -65.19921875 64.6171875 C-64.32421875 66.40234375 -64.32421875 66.40234375 -64.32421875 68.40234375 C-63.00421875 68.73234375 -61.68421875 69.06234375 -60.32421875 69.40234375 C-60.7862365 74.76174969 -61.43360274 78.73288712 -64.32421875 83.40234375 C-67.32421875 85.40234375 -67.32421875 85.40234375 -69.63671875 85.46484375 C-75.4722092 83.15778939 -78.88430252 77.19770877 -81.3828125 71.65869141 C-84.73188666 63.63168328 -85.84963888 56.26555323 -85.76171875 47.58984375 C-85.75342041 46.53249023 -85.74512207 45.47513672 -85.73657227 44.38574219 C-85.41285409 29.40484841 -80.45145759 16.55731517 -70.01171875 5.52734375 C-50.78073608 -12.55698748 -21.71295625 -14.92537665 0 0 Z " fill="#4EAF58" transform="translate(146.32421875,185.59765625)"/>
<path d="M0 0 C5.63231956 4.16301881 10.66599437 8.78662588 14 15 C14 15.66 14 16.32 14 17 C14.72703125 17.01417969 15.4540625 17.02835938 16.203125 17.04296875 C26.60325414 17.53630821 35.66148441 20.64684526 44 27 C44.94875 27.66 45.8975 28.32 46.875 29 C54.44025225 35.46739242 60.07966401 45.51631473 61.29711914 55.41601562 C61.4360443 57.91120095 61.46811381 60.37623829 61.4375 62.875 C61.42920166 63.75269043 61.42090332 64.63038086 61.41235352 65.53466797 C61.0912908 77.87673006 56.42613994 87.51874737 47.72265625 96.296875 C38.17780566 105 38.17780566 105 32 105 C31.67 103.35 31.34 101.7 31 100 C29.02 100 27.04 100 25 100 C25.24118165 96.22148746 25.43954074 94.5108104 28.29296875 91.91015625 C29.24816406 91.30042969 30.20335937 90.69070312 31.1875 90.0625 C38.33034275 85.18943219 43.36948436 80.44533968 46 72 C47.89588999 61.62404395 46.54613871 52.68018609 40.5625 43.8828125 C34.64564719 36.75300486 27.95642266 33.75780258 19 32 C19.05220703 33.01320313 19.05220703 33.01320313 19.10546875 34.046875 C19.13253906 34.93890625 19.15960938 35.8309375 19.1875 36.75 C19.23970703 38.07257813 19.23970703 38.07257813 19.29296875 39.421875 C18.94192681 42.51104409 18.18636223 43.81363777 16 46 C12.18318944 46.55517245 10.00074437 46.73207606 6.83203125 44.4140625 C4.39783529 41.20652923 4.39553938 38.86750545 4.125 34.875 C3.32007478 26.7914748 1.02693496 20.70942662 -5.03125 15.12890625 C-11.70824333 9.93430509 -17.72041524 7.51362941 -26.26953125 8.17578125 C-34.19792903 9.55040713 -40.48050794 13.71953918 -45.4375 20 C-49.6691071 26.21882591 -50.26676374 31.79600964 -50.55859375 39.1953125 C-51.05457043 42.34673955 -51.73820948 43.76969612 -54 46 C-59.93849417 46.74231177 -59.93849417 46.74231177 -62.67578125 44.828125 C-64.48526713 42.3300737 -64.50773828 40.36844925 -64.6875 37.3125 C-64.75324219 36.31863281 -64.81898438 35.32476562 -64.88671875 34.30078125 C-64.94279297 33.16189453 -64.94279297 33.16189453 -65 32 C-74.66100538 34.63184749 -81.84989974 38.08540759 -88.375 45.8125 C-92.84987493 54.59013928 -94.33495211 62.60896751 -91.75 72.125 C-88.70227654 81.35282938 -82.92342589 86.8451482 -74.625 91.5 C-71.48096036 93.3633594 -71.11767645 93.61019676 -70 97.3125 C-70 98.199375 -70 99.08625 -70 100 C-70.94875 100.0825 -71.8975 100.165 -72.875 100.25 C-76.10461791 100.65074923 -76.10461791 100.65074923 -77.375 103.0625 C-77.684375 104.0215625 -77.684375 104.0215625 -78 105 C-84.85834475 103.9736632 -89.91256748 100.13597746 -94.6875 95.25 C-103.83387468 82.39563559 -108.5029094 71.01818748 -106.4375 54.9375 C-104.16440967 43.3889807 -97.76078209 32.31009072 -88.3125 25.25 C-78.96739234 19.14081022 -70.06472859 17.35181967 -59 17 C-58.72285156 16.25621094 -58.44570312 15.51242188 -58.16015625 14.74609375 C-54.51155253 6.10983646 -48.14486282 0.98239679 -39.8671875 -3.03515625 C-27.54280016 -7.65143374 -11.26752962 -6.61354999 0 0 Z " fill="#E7D055" transform="translate(305,127)"/>
<path d="M0 0 C1.70785887 2.5617883 2.7002664 4.58266061 3.76953125 7.421875 C4.26743164 8.71351563 4.26743164 8.71351563 4.77539062 10.03125 C5.46010767 11.82621446 6.13989986 13.6230663 6.81445312 15.421875 C9.36568568 22.00317357 11.94412347 27.96274898 18 32 C17.72524783 35.29702607 17.27233527 36.71941215 14.9375 39.125 C12 41 12 41 4 44 C4 54.89 4 65.78 4 77 C1.69 77 -0.62 77 -3 77 C-4 76 -4 76 -4.11352539 72.85717773 C-4.11336633 71.46597303 -4.10767506 70.07476239 -4.09765625 68.68359375 C-4.0962413 67.95253922 -4.09482635 67.22148468 -4.09336853 66.46827698 C-4.08775408 64.12464368 -4.07519922 61.78110461 -4.0625 59.4375 C-4.05748686 57.85221492 -4.05292363 56.26692834 -4.04882812 54.68164062 C-4.03777997 50.7877239 -4.02050572 46.89387795 -4 43 C-1.525 42.505 -1.525 42.505 1 42 C0.13375 41.13375 -0.7325 40.2675 -1.625 39.375 C-6.12805782 34.1303885 -9.00170948 27.57803027 -11 21 C-10.66015625 18.0703125 -10.66015625 18.0703125 -10 16 C-9.34 16.33 -8.68 16.66 -8 17 C-8 15.68 -8 14.36 -8 13 C-6.35 12.34 -4.7 11.68 -3 11 C-3 10.34 -3 9.68 -3 9 C-1 7.375 -1 7.375 1 6 C0.67 4.02 0.34 2.04 0 0 Z " fill="#51B05C" transform="translate(141,293)"/>
<path d="M0 0 C1.99954746 -0.04254356 4.00041636 -0.04080783 6 0 C8.63199184 2.63199184 7.18561849 10.26961894 7.1875 13.8125 C7.19974609 15.01455078 7.21199219 16.21660156 7.22460938 17.45507812 C7.22750977 19.18854492 7.22750977 19.18854492 7.23046875 20.95703125 C7.23457764 22.01897705 7.23868652 23.08092285 7.24291992 24.17504883 C6.99754282 27.02857487 6.57327612 28.63022988 5 31 C0.18929206 34.20713863 -3.40168514 34.53317284 -9 34 C-12.8001378 32.56439238 -13.7925344 31.36485329 -15.8125 27.8125 C-18.02174108 20.71967336 -17.51947776 16.14594379 -14.265625 9.6640625 C-12.69761311 7.60241723 -11.43044099 6.87060573 -9 6 C-5.25 6.375 -5.25 6.375 -2 7 C-1.34 4.69 -0.68 2.38 0 0 Z M-6 14 C-7.98957782 16.03490467 -7.98957782 16.03490467 -9 19 C-8.29614601 22.75815858 -8.29614601 22.75815858 -7 26 C-5.68 26.33 -4.36 26.66 -3 27 C-0.28767061 22.93150591 -0.69300113 20.83523216 -1 16 C-1.66 15.34 -2.32 14.68 -3 14 C-3.99 14 -4.98 14 -6 14 Z " fill="#615A4D" transform="translate(210,336)"/>
<path d="M0 0 C1.46491133 0.37074916 2.92195569 0.77267189 4.375 1.1875 C5.59316406 1.51814453 5.59316406 1.51814453 6.8359375 1.85546875 C9 3 9 3 10.265625 5.0703125 C12.52419777 14.0805762 12.38422603 25.55208156 8.26953125 33.94140625 C6.17931831 37.33076692 4.12857124 40.48424168 1 43 C-1.6875 43.625 -1.6875 43.625 -4 43 C-6.5048111 41.12139167 -6.98700625 40.03898126 -8 37 C-8.66 36.67 -9.32 36.34 -10 36 C-8.824375 34.63875 -8.824375 34.63875 -7.625 33.25 C-4.55185944 29.02335571 -4.19233991 24.90941661 -3.53515625 19.82421875 C-2.8150959 16.02419225 -1.44901875 13.9388225 1 11 C0.649375 10.484375 0.29875 9.96875 -0.0625 9.4375 C-1.3615641 6.05993333 -0.67217681 3.49531943 0 0 Z " fill="#4EB059" transform="translate(198,236)"/>
<path d="M0 0 C2.99452434 2.24589325 3.81623122 3.44869367 5 7 C5.12979439 10.00603796 5.04363173 12.98941031 5 16 C0.38 16 -4.24 16 -9 16 C-8.34 16.99 -7.68 17.98 -7 19 C-6.319375 18.67 -5.63875 18.34 -4.9375 18 C-1.49159762 16.82692685 1.38397422 16.85819507 5 17 C4.52048204 21.31566167 3.29764982 23.2019941 0 26 C-3.198543 27.5992715 -6.52101629 27.36127908 -10 27 C-13.39464252 25.64214299 -14.7044427 24.41785687 -16.8125 21.4375 C-18.60617273 16.24528948 -19.07385095 11.14649875 -17.2734375 5.87109375 C-15.86587464 3.13035144 -14.35279342 1.24191549 -11.8125 -0.5 C-7.7271785 -1.22627938 -4.01967016 -1.0518763 0 0 Z M-8 7 C-8.33 7.99 -8.66 8.98 -9 10 C-6.69 10 -4.38 10 -2 10 C-2.66 9.01 -3.32 8.02 -4 7 C-5.32 7 -6.64 7 -8 7 Z " fill="#574E40" transform="translate(248,343)"/>
<path d="M0 0 C3.81248426 -0.02887236 7.6249407 -0.04675492 11.4375 -0.0625 C12.52611328 -0.07087891 13.61472656 -0.07925781 14.73632812 -0.08789062 C15.77080078 -0.09111328 16.80527344 -0.09433594 17.87109375 -0.09765625 C18.82943115 -0.10289307 19.78776855 -0.10812988 20.77514648 -0.11352539 C23 0 23 0 24 1 C24 2.98 24 4.96 24 7 C18.39 7 12.78 7 7 7 C7 8.65 7 10.3 7 12 C10.96 12 14.92 12 19 12 C19.33 13.65 19.66 15.3 20 17 C18 19 18 19 15.3984375 19.1953125 C12.59895833 19.13020833 9.79947917 19.06510417 7 19 C7 23.95 7 28.9 7 34 C4.69 34 2.38 34 0 34 C-1.90445326 32.09554674 -1.13058862 28.71662463 -1.1328125 26.19140625 C-1.13376923 25.50948715 -1.13472595 24.82756805 -1.13571167 24.12498474 C-1.13639339 22.67992053 -1.13453969 21.23485328 -1.13037109 19.78979492 C-1.12503084 17.57528807 -1.13031205 15.36098481 -1.13671875 13.14648438 C-1.13605781 11.74479122 -1.13477631 10.34309819 -1.1328125 8.94140625 C-1.13168457 7.65951416 -1.13055664 6.37762207 -1.12939453 5.05688477 C-1 2 -1 2 0 0 Z " fill="#6A6458" transform="translate(100,336)"/>
<path d="M0 0 C3.33829168 4.12377207 3.56577172 7.42389366 3.125 12.625 C1.09833762 16.32890021 -0.35544516 18.27863011 -3.875 20.625 C-7.60976676 21.30081494 -11.29264389 21.43286958 -14.7265625 19.6796875 C-17.97390094 17.13620567 -20.13778863 14.67966251 -20.875 10.625 C-20.52790964 5.90965051 -19.79907578 2.59771135 -16.5 -0.875 C-10.74656583 -4.16267667 -5.35644641 -4.42489051 0 0 Z " fill="#4CAF57" transform="translate(293.875,197.375)"/>
<path d="M0 0 C2.72265625 1.85546875 2.72265625 1.85546875 5 5 C5.60959314 8.79011167 5.4716146 12.48640576 5.3125 16.3125 C5.28994141 17.33923828 5.26738281 18.36597656 5.24414062 19.42382812 C5.18537575 21.9507179 5.10327849 24.47460255 5 27 C-1.875 26.125 -1.875 26.125 -3 25 C-3.23701239 22.14122091 -3.42219182 19.30116703 -3.5625 16.4375 C-3.60568359 15.63119141 -3.64886719 14.82488281 -3.69335938 13.99414062 C-3.79975262 11.99631195 -3.90040888 9.9981793 -4 8 C-5.32 8 -6.64 8 -8 8 C-8.06058594 9.28777344 -8.12117187 10.57554687 -8.18359375 11.90234375 C-8.26798247 13.58074159 -8.3526313 15.25912636 -8.4375 16.9375 C-8.47681641 17.78763672 -8.51613281 18.63777344 -8.55664062 19.51367188 C-8.59853516 20.32255859 -8.64042969 21.13144531 -8.68359375 21.96484375 C-8.73858032 23.08814087 -8.73858032 23.08814087 -8.79467773 24.23413086 C-9 26 -9 26 -10 27 C-12.33297433 27.04092937 -14.66705225 27.04241723 -17 27 C-17.05834353 23.77090994 -17.09371115 20.54195662 -17.125 17.3125 C-17.15013672 15.94448242 -17.15013672 15.94448242 -17.17578125 14.54882812 C-17.23998345 5.72102514 -17.23998345 5.72102514 -15 2 C-10.19162108 -0.88502735 -5.39125247 -2.19878532 0 0 Z " fill="#61594D" transform="translate(175,343)"/>
<path d="M0 0 C0.64775391 0.87011719 0.64775391 0.87011719 1.30859375 1.7578125 C6.19164867 8.23096152 10.63220515 12.81108667 17.86328125 16.67578125 C20 18 20 18 22 21 C22 22.32 22 23.64 22 25 C20.576875 25.12375 20.576875 25.12375 19.125 25.25 C15.89538209 25.65074923 15.89538209 25.65074923 14.625 28.0625 C14.315625 29.0215625 14.315625 29.0215625 14 30 C7.20953651 28.98382148 1.55281891 25.08071394 -2.9375 19.9375 C-4.78441069 17.30705145 -6.01498768 15.04458354 -7 12 C-6.01 11.34 -5.02 10.68 -4 10 C-1.69695729 6.72259306 -0.56582132 3.96074927 0 0 Z " fill="#E7D15C" transform="translate(213,202)"/>
<path d="M0 0 C0 2.64 0 5.28 0 8 C-3.465 9.485 -3.465 9.485 -7 11 C-7.33 16.28 -7.66 21.56 -8 27 C-10.31 27 -12.62 27 -15 27 C-17.14603046 24.85396954 -16.27775668 20.27031505 -16.3125 17.3125 C-16.34150391 16.50876953 -16.37050781 15.70503906 -16.40039062 14.87695312 C-16.45852589 9.40776669 -15.62740358 6.3461041 -12 2 C-8.43030146 -0.80476313 -4.34004512 -0.14466817 0 0 Z " fill="#655E52" transform="translate(283,343)"/>
<path d="M0 0 C1.03447266 0.18949219 1.03447266 0.18949219 2.08984375 0.3828125 C6.49703567 1.28558924 9.41306547 2.22738714 12 6 C12.55451845 9.16867688 12.30510189 10.50074237 10.625 13.25 C9 15 9 15 7 16 C4.4375 15.25 4.4375 15.25 2 14 C1.67 13.01 1.34 12.02 1 11 C-0.4540625 11.0309375 -0.4540625 11.0309375 -1.9375 11.0625 C-5 11 -5 11 -6 10 C-7.155 9.855625 -8.31 9.71125 -9.5 9.5625 C-10.655 9.376875 -11.81 9.19125 -13 9 C-13.33 8.34 -13.66 7.68 -14 7 C-13.34 6.67 -12.68 6.34 -12 6 C-11.87625 5.38125 -11.7525 4.7625 -11.625 4.125 C-11 2 -11 2 -9.375 0.1875 C-5.91688809 -1.54155595 -3.74032121 -0.81040293 0 0 Z " fill="#E7CF4F" transform="translate(335,148)"/>
<path d="M0 0 C0.33 0 0.66 0 1 0 C1.36548223 5.36040609 1.36548223 5.36040609 -0.25 8.1875 C-2 10 -2 10 -4.125 11.1875 C-7.16964537 14.13065719 -6.82907006 17.92332094 -7 22 C-8.32 22.33 -9.64 22.66 -11 23 C-10.67 24.32 -10.34 25.64 -10 27 C-9.01 27 -8.02 27 -7 27 C-7 27.66 -7 28.32 -7 29 C-1.40102392 28.41892152 -1.40102392 28.41892152 4 27 C4.33 26.01 4.66 25.02 5 24 C5.66 24 6.32 24 7 24 C6.875 25.8125 6.875 25.8125 6 28 C1.2427713 31.24883912 -2.43735067 31.52977613 -8 31 C-11.8001378 29.56439238 -12.7925344 28.36485329 -14.8125 24.8125 C-17.02174108 17.71967336 -16.51947776 13.14594379 -13.265625 6.6640625 C-11.69761311 4.60241723 -10.43044099 3.87060573 -8 3 C-4.25 3.375 -4.25 3.375 -1 4 C-0.67 2.68 -0.34 1.36 0 0 Z " fill="#726C60" transform="translate(209,339)"/>
<path d="M0 0 C0.598125 0.226875 1.19625 0.45375 1.8125 0.6875 C2.59829793 4.83673058 2.93104983 8.74043431 2.91015625 12.9609375 C2.90693359 14.11464844 2.90371094 15.26835937 2.90039062 16.45703125 C2.89201172 17.64683594 2.88363281 18.83664062 2.875 20.0625 C2.87048828 21.27550781 2.86597656 22.48851562 2.86132812 23.73828125 C2.84958354 26.72140507 2.8331584 29.70442679 2.8125 32.6875 C0.47955225 32.72991723 -1.85452567 32.72842937 -4.1875 32.6875 C-6.80145221 30.07354779 -5.41759544 22.9353477 -5.42773438 19.38671875 C-5.43742838 17.32771227 -5.46843283 15.26970893 -5.5 13.2109375 C-5.50515625 11.91671875 -5.5103125 10.6225 -5.515625 9.2890625 C-5.5249707 8.09619629 -5.53431641 6.90333008 -5.54394531 5.67431641 C-5.1875 2.6875 -5.1875 2.6875 -3.80371094 0.75537109 C-2.1875 -0.3125 -2.1875 -0.3125 0 0 Z " fill="#676153" transform="translate(142.1875,337.3125)"/>
<path d="M0 0 C6.25 -0.48076923 6.25 -0.48076923 9.4375 1.5625 C11.64465554 5.00566264 11.45882668 6.93610651 11 11 C9.65733331 17.0951272 7.79035718 22.03332508 4 27 C2.46554906 23.93109813 3.45015711 21.29905734 4 18 C2.68 18 1.36 18 0 18 C-2.00401011 17.69169075 -4.00511766 17.36270588 -6 17 C-4.49829538 11.01448228 -3.05773837 5.38744379 0 0 Z " fill="#59B163" transform="translate(429,270)"/>
<path d="M0 0 C0.99 0.33 1.98 0.66 3 1 C3 2.32 3 3.64 3 5 C3.66 5.33 4.32 5.66 5 6 C4.34 6.66 3.68 7.32 3 8 C0.375 7.625 0.375 7.625 -2 7 C-2.06058594 8.28777344 -2.12117187 9.57554687 -2.18359375 10.90234375 C-2.26798247 12.58074159 -2.3526313 14.25912636 -2.4375 15.9375 C-2.47681641 16.78763672 -2.51613281 17.63777344 -2.55664062 18.51367188 C-2.59853516 19.32255859 -2.64042969 20.13144531 -2.68359375 20.96484375 C-2.73858032 22.08814087 -2.73858032 22.08814087 -2.79467773 23.23413086 C-3 25 -3 25 -4 26 C-6.33297433 26.04092937 -8.66705225 26.04241723 -11 26 C-11.02902429 22.72918529 -11.04680684 19.4584037 -11.0625 16.1875 C-11.07087891 15.25873047 -11.07925781 14.32996094 -11.08789062 13.37304688 C-11.09111328 12.48037109 -11.09433594 11.58769531 -11.09765625 10.66796875 C-11.10289307 9.84578857 -11.10812988 9.0236084 -11.11352539 8.17651367 C-11 6 -11 6 -10 3 C-7.96875 2.3046875 -7.96875 2.3046875 -5.5 1.875 C-2.46069634 1.52112584 -2.46069634 1.52112584 0 0 Z " fill="#666053" transform="translate(169,344)"/>
<path d="M0 0 C0.99 0 1.98 0 3 0 C5.34360198 4.68720396 4.37378911 11.34909808 3.25 16.3125 C1.79166225 19.44792615 0.00774291 22.18915992 -2 25 C-1.01 25.33 -0.02 25.66 1 26 C0.67 26.99 0.34 27.98 0 29 C0.99 29.33 1.98 29.66 3 30 C3 30.66 3 31.32 3 32 C4.32 32.33 5.64 32.66 7 33 C-1.261959 39.70387244 -1.261959 39.70387244 -6 40 C-5.34 38.68 -4.68 37.36 -4 36 C-3.34 36 -2.68 36 -2 36 C-2 35.34 -2 34.68 -2 34 C-3.98 34.495 -3.98 34.495 -6 35 C-6.625 32.6875 -6.625 32.6875 -7 30 C-6.34 29.01 -5.68 28.02 -5 27 C-6.32 27.33 -7.64 27.66 -9 28 C-8.61328125 27.5875 -8.2265625 27.175 -7.828125 26.75 C-0.64137142 18.78053068 2 11.7549743 2 1 C1.34 0.67 0.68 0.34 0 0 Z " fill="#58B262" transform="translate(191,247)"/>
<path d="M0 0 C0.99 1.32 1.98 2.64 3 4 C3.680625 3.67 4.36125 3.34 5.0625 3 C8.50840238 1.82692685 11.38397422 1.85819507 15 2 C14.52048204 6.31566167 13.29764982 8.2019941 10 11 C6.80876226 12.59561887 3.47254909 12.3799142 0 12 C-3.58552881 10.36312815 -4.79315055 9.31027417 -7 6 C-6.67 5.01 -6.34 4.02 -6 3 C-5.01 3 -4.02 3 -3 3 C-1.31201173 1.56249809 -1.31201173 1.56249809 0 0 Z " fill="#766E63" transform="translate(238,358)"/>
<path d="M0 0 C2.5625 1.8125 2.5625 1.8125 4 4 C4 5.32 4 6.64 4 8 C1.03 7.67 -1.94 7.34 -5 7 C-4.34 5.35 -3.68 3.7 -3 2 C-4.98 2 -6.96 2 -9 2 C-9.18175781 2.63808594 -9.36351562 3.27617187 -9.55078125 3.93359375 C-9.80214844 4.75988281 -10.05351562 5.58617187 -10.3125 6.4375 C-10.55613281 7.26121094 -10.79976562 8.08492188 -11.05078125 8.93359375 C-11.36402344 9.61550781 -11.67726562 10.29742187 -12 11 C-12.99 11.33 -13.98 11.66 -15 12 C-16.22520264 15.00847418 -16.22520264 15.00847418 -17 18 C-17.33 18 -17.66 18 -18 18 C-18.49947621 11.1044534 -18.2985305 6.57647201 -14 1 C-9.76956325 -1.90087091 -4.78672104 -1.24133251 0 0 Z " fill="#5F584D" transform="translate(248,343)"/>
<path d="M0 0 C0.66 0 1.32 0 2 0 C3.27683412 4.89796304 3.13321339 9.72522039 3.11352539 14.74731445 C3.11367142 15.72340164 3.11381744 16.69948883 3.1139679 17.70515442 C3.11327242 20.9245528 3.1054971 24.143893 3.09765625 27.36328125 C3.09579077 29.59815947 3.09436748 31.8330381 3.09336853 34.06791687 C3.08955357 39.94513074 3.07973198 45.82231983 3.06866455 51.69952393 C3.05842849 57.69876775 3.0538662 63.69801558 3.04882812 69.69726562 C3.03810882 81.46485463 3.02104463 93.23242525 3 105 C4.32 105 5.64 105 7 105 C7 105.66 7 106.32 7 107 C7.66 107.33 8.32 107.66 9 108 C3.25 107.25 3.25 107.25 1 105 C0.73828697 103.11408043 0.73828697 103.11408043 0.7215271 100.77328491 C0.71036362 99.88704941 0.69920013 99.0008139 0.68769836 98.08772278 C0.68445808 96.62576729 0.68445808 96.62576729 0.68115234 95.13427734 C0.67110672 94.10986038 0.6610611 93.08544342 0.65071106 92.02998352 C0.61973302 88.63197408 0.60280334 85.23404393 0.5859375 81.8359375 C0.56723761 79.48466299 0.54766511 77.13339527 0.5272522 74.78213501 C0.47580042 68.58435053 0.43624462 62.38654426 0.39910889 56.18865967 C0.35915085 49.8679052 0.30802121 43.54724239 0.2578125 37.2265625 C0.16089881 24.8177726 0.07654362 12.4089311 0 0 Z " fill="#5FA868" transform="translate(93,203)"/>
<path d="M0 0 C0 2.64 0 5.28 0 8 C-6.625 11 -6.625 11 -10 11 C-10 10.34 -10 9.68 -10 9 C-9.01 9 -8.02 9 -7 9 C-7 8.34 -7 7.68 -7 7 C-7.66 6.67 -8.32 6.34 -9 6 C-9.33 5.67 -9.66 5.34 -10 5 C-10 5.99 -10 6.98 -10 8 C-11.32 7.67 -12.64 7.34 -14 7 C-14.33 11.62 -14.66 16.24 -15 21 C-15.33 21 -15.66 21 -16 21 C-16.6883333 8.11287104 -16.6883333 8.11287104 -14.25 4.3125 C-9.66615876 -0.39867017 -6.35618986 -0.211873 0 0 Z " fill="#5B533F" transform="translate(283,343)"/>
<path d="M0 0 C3 2.0625 3 2.0625 5 5 C5.40020958 7.80666457 5.24217876 10.14229065 5 13 C4.01 12.34 3.02 11.68 2 11 C-0.64632287 11.3121764 -0.64632287 11.3121764 -3 12 C-2.814375 11.236875 -2.62875 10.47375 -2.4375 9.6875 C-1.77180827 6.91032625 -1.77180827 6.91032625 -3 4 C-5.84510086 2.57744957 -8.04426017 3.10248518 -11.125 3.5 C-13.043125 3.7475 -13.043125 3.7475 -15 4 C-15 3.34 -15 2.68 -15 2 C-9.75829414 -0.73005514 -5.75732454 -1.93918253 0 0 Z " fill="#6F675B" transform="translate(175,343)"/>
<path d="M0 0 C-3.23680474 1.05435781 -5.28457379 0.88873181 -8.5625 0.0625 C-19.62355966 -2.341372 -30.93316296 -0.6840839 -42 1 C-42 1.66 -42 2.32 -42 3 C-45.83887763 4.48320272 -48.06204091 5.22419163 -52 4 C-35.61828786 -4.402233 -17.4521158 -7.44373398 0 0 Z " fill="#82BF8A" transform="translate(137,180)"/>
<path d="M0 0 C0.94746094 -0.02578125 1.89492187 -0.0515625 2.87109375 -0.078125 C5.9527834 0.29758172 7.28222555 1.2015265 9.5625 3.25 C6.5925 2.755 6.5925 2.755 3.5625 2.25 C3.2325 2.91 2.9025 3.57 2.5625 4.25 C2.5625 3.59 2.5625 2.93 2.5625 2.25 C-6.4416306 2.81275816 -13.15343068 8.03386656 -19.4375 14.25 C-20.4275 15.735 -20.4275 15.735 -21.4375 17.25 C-22.0975 17.25 -22.7575 17.25 -23.4375 17.25 C-20.87572788 9.33179528 -15.56634947 4.99339167 -8.4375 1.25 C-5.40443887 0.23897962 -3.17809761 0.0517465 0 0 Z " fill="#65B16C" transform="translate(248.4375,232.75)"/>
<path d="M0 0 C0.33 0.66 0.66 1.32 1 2 C0.31292969 1.98839844 -0.37414062 1.97679687 -1.08203125 1.96484375 C-1.98308594 1.95582031 -2.88414062 1.94679687 -3.8125 1.9375 C-4.70582031 1.92589844 -5.59914063 1.91429687 -6.51953125 1.90234375 C-9.13413791 1.88990033 -9.13413791 1.88990033 -12 3 C-12.59070014 4.94603274 -12.59070014 4.94603274 -13 7 C-13.66 7.66 -14.32 8.32 -15 9 C-15 12.10521761 -14.9997853 14.14681153 -14 17 C-10.24450792 19.70744778 -6.55201513 20.45809344 -2 21 C-2 21.66 -2 22.32 -2 23 C-9.76785714 23.66964286 -9.76785714 23.66964286 -13.375 20.8125 C-17.35483871 16.5483871 -17.35483871 16.5483871 -18 13 C-17.65290964 8.28465051 -16.92407578 4.97271135 -13.625 1.5 C-8.72277757 -1.30126996 -5.59522551 -1.16127322 0 0 Z " fill="#67AA71" transform="translate(291,195)"/>
<path d="M0 0 C0.99 0.33 1.98 0.66 3 1 C3 2.32 3 3.64 3 5 C3.66 5.33 4.32 5.66 5 6 C4.34 6.66 3.68 7.32 3 8 C1.35 7.67 -0.3 7.34 -2 7 C-2.33 12.28 -2.66 17.56 -3 23 C-3.66 23 -4.32 23 -5 23 C-5 17.72 -5 12.44 -5 7 C-5.66 7 -6.32 7 -7 7 C-7 6.34 -7 5.68 -7 5 C-7.99 5.33 -8.98 5.66 -10 6 C-10 5.01 -10 4.02 -10 3 C-9.04287109 2.80083984 -9.04287109 2.80083984 -8.06640625 2.59765625 C-7.24011719 2.42105469 -6.41382813 2.24445313 -5.5625 2.0625 C-4.73878906 1.88847656 -3.91507813 1.71445312 -3.06640625 1.53515625 C-1.02338796 1.19247006 -1.02338796 1.19247006 0 0 Z " fill="#544B3C" transform="translate(169,344)"/>
<path d="M0 0 C0.33 1.32 0.66 2.64 1 4 C0.34 4 -0.32 4 -1 4 C-1.66 6.64 -2.32 9.28 -3 12 C-3.99 11.67 -4.98 11.34 -6 11 C-6.99 11.33 -7.98 11.66 -9 12 C-9.75679435 13.96766531 -10.3974699 15.97975201 -11 18 C-11.64953094 19.73567605 -12.31737714 21.46456998 -13 23.1875 C-13.33 24.02667969 -13.66 24.86585938 -14 25.73046875 C-15 28 -15 28 -17 31 C-17.66 30.67 -18.32 30.34 -19 30 C-15.22992568 17.89361228 -9.40385544 8.52453389 0 0 Z " fill="#67B170" transform="translate(81,187)"/>
<path d="M0 0 C0.33 0 0.66 0 1 0 C1.09271653 7.88426866 1.16377259 15.76830922 1.20724869 23.65298843 C1.2281161 27.31426511 1.25641706 30.97516858 1.30175781 34.63623047 C1.34524763 38.16998711 1.36914348 41.70338499 1.37950897 45.23738861 C1.39048737 47.24051252 1.42170876 49.24349226 1.45318604 51.24639893 C1.45348816 52.46736267 1.45379028 53.68832642 1.45410156 54.94628906 C1.46298401 56.02106506 1.47186646 57.09584106 1.48101807 58.20318604 C0.88319959 61.67912008 -0.22361425 62.88900979 -3 65 C-5.25 64.75 -5.25 64.75 -7 64 C-5.60804085 61.2160817 -3.84424221 61.02101003 -1 60 C-1.00222061 59.26306412 -1.00444122 58.52612823 -1.00672913 57.76686096 C-1.02673203 50.83587231 -1.04197413 43.90488796 -1.05181217 36.97387791 C-1.05703995 33.41022578 -1.06413569 29.84659743 -1.07543945 26.28295898 C-1.08834176 22.18993903 -1.09322906 18.0969442 -1.09765625 14.00390625 C-1.10281754 12.71851456 -1.10797882 11.43312286 -1.11329651 10.10877991 C-1.11337204 8.92763107 -1.11344757 7.74648224 -1.11352539 6.52954102 C-1.115746 5.48363297 -1.11796661 4.43772491 -1.12025452 3.36012268 C-1 1 -1 1 0 0 Z " fill="#54A361" transform="translate(321,312)"/>
<path d="M0 0 C0.33 0 0.66 0 1 0 C1.36548223 5.36040609 1.36548223 5.36040609 -0.25 8.1875 C-2.03902043 10.04041401 -3.93532553 11.46814475 -6 13 C-6.99 14.485 -6.99 14.485 -8 16 C-8.66 14.02 -9.32 12.04 -10 10 C-9.67 9.67 -9.34 9.34 -9 9 C-10.32 8.67 -11.64 8.34 -13 8 C-12 5 -12 5 -10.375 3.75 C-7.04805845 2.69938688 -4.37991551 3.35001625 -1 4 C-0.67 2.68 -0.34 1.36 0 0 Z " fill="#726B5C" transform="translate(209,339)"/>
<path d="M0 0 C1.134375 0.020625 2.26875 0.04125 3.4375 0.0625 C3.7675 1.0525 4.0975 2.0425 4.4375 3.0625 C2.7875 3.3925 1.1375 3.7225 -0.5625 4.0625 C-0.5625 4.7225 -0.5625 5.3825 -0.5625 6.0625 C0.4275 6.0625 1.4175 6.0625 2.4375 6.0625 C2.7675 5.4025 3.0975 4.7425 3.4375 4.0625 C3.7675 5.0525 4.0975 6.0425 4.4375 7.0625 C4.1075 7.7225 3.7775 8.3825 3.4375 9.0625 C4.0975 9.3925 4.7575 9.7225 5.4375 10.0625 C4.82261719 10.12308594 4.20773438 10.18367187 3.57421875 10.24609375 C2.36185547 10.37177734 2.36185547 10.37177734 1.125 10.5 C0.32449219 10.58121094 -0.47601563 10.66242188 -1.30078125 10.74609375 C-3.72337179 11.01515693 -3.72337179 11.01515693 -6.5625 12.0625 C-6.25480293 10.24917846 -5.94120936 8.43685655 -5.625 6.625 C-5.36396484 5.11099609 -5.36396484 5.11099609 -5.09765625 3.56640625 C-4.26884241 -0.31147457 -4.18989717 0.07350697 0 0 Z " fill="#4AAF54" transform="translate(247.5625,234.9375)"/>
<path d="M0 0 C0.99386719 0.00902344 1.98773438 0.01804688 3.01171875 0.02734375 C4.15060547 0.04474609 4.15060547 0.04474609 5.3125 0.0625 C5.3125 0.3925 5.3125 0.7225 5.3125 1.0625 C2.0125 1.3925 -1.2875 1.7225 -4.6875 2.0625 C-5.0175 3.0525 -5.3475 4.0425 -5.6875 5.0625 C-8.1625 4.5675 -8.1625 4.5675 -10.6875 4.0625 C-10.935 4.64 -11.1825 5.2175 -11.4375 5.8125 C-12.87049988 8.39189979 -14.47174676 10.12371592 -16.6875 12.0625 C-17.3475 12.0625 -18.0075 12.0625 -18.6875 12.0625 C-19.0175 13.0525 -19.3475 14.0425 -19.6875 15.0625 C-21.75 15.75 -21.75 15.75 -23.6875 16.0625 C-18.31000723 6.57280688 -11.38089315 -0.13389286 0 0 Z " fill="#67B574" transform="translate(399.6875,232.9375)"/>
<path d="M0 0 C1.3303125 0.00773438 1.3303125 0.00773438 2.6875 0.015625 C3.574375 0.01046875 4.46125 0.0053125 5.375 0 C7.6875 0.265625 7.6875 0.265625 9.6875 2.265625 C5.2325 2.760625 5.2325 2.760625 0.6875 3.265625 C-0.35881229 11.27562921 -0.63238386 19.25815551 -0.875 27.328125 C-0.91829628 28.68425516 -0.96191366 30.04037511 -1.00585938 31.39648438 C-1.1112211 34.68611171 -1.21334952 37.97580559 -1.3125 41.265625 C-1.6425 41.265625 -1.9725 41.265625 -2.3125 41.265625 C-2.33755615 40.22631836 -2.3626123 39.18701172 -2.38842773 38.11621094 C-2.48270926 34.25459797 -2.58287908 30.39315617 -2.68481445 26.53173828 C-2.72808489 24.86153166 -2.76976549 23.19128306 -2.80981445 21.52099609 C-2.86770851 19.11803545 -2.9313474 16.71528459 -2.99609375 14.3125 C-3.01280624 13.56756287 -3.02951874 12.82262573 -3.04673767 12.05511475 C-3.12707828 9.23376173 -3.21604002 6.62136913 -3.95727539 3.88769531 C-4.13311157 3.08477051 -4.13311157 3.08477051 -4.3125 2.265625 C-2.3125 0.265625 -2.3125 0.265625 0 0 Z " fill="#99D2A0" transform="translate(308.3125,234.734375)"/>
<path d="M0 0 C0.33 0 0.66 0 1 0 C1.37254569 3.35291118 1.31050198 4.6038423 -0.8125 7.3125 C-3 9 -3 9 -6 9 C-6.185625 9.763125 -6.37125 10.52625 -6.5625 11.3125 C-8.56491617 15.05614763 -11.15476604 15.46190642 -15 17 C-15.33 17.99 -15.66 18.98 -16 20 C-14.68 20.33 -13.36 20.66 -12 21 C-13.98 21 -15.96 21 -18 21 C-17.75881835 17.22148746 -17.56045926 15.5108104 -14.70703125 12.91015625 C-13.75183594 12.30042969 -12.79664063 11.69070312 -11.8125 11.0625 C-6.96460703 7.79064506 -3.61359634 4.56454275 0 0 Z " fill="#E6D67C" transform="translate(348,206)"/>
<path d="M0 0 C-0.49831724 3.68754757 -1.10067643 5.60490662 -4 8 C-4.66 7.67 -5.32 7.34 -6 7 C-8.3400417 7.28241883 -10.67504723 7.61250787 -13 8 C-12.67 7.01 -12.34 6.02 -12 5 C-12.66 4.34 -13.32 3.68 -14 3 C-9.03006806 0.56574762 -5.65394631 -0.34615998 0 0 Z " fill="#5B5347" transform="translate(253,360)"/>
<path d="M0 0 C0 3.3645241 -0.38101977 5.05639958 -2 8 C-7.09204 11.39210591 -10.63991105 11.15717598 -16.375 10.1875 C-17.11105469 10.07857422 -17.84710938 9.96964844 -18.60546875 9.85742188 C-20.40624472 9.58847481 -22.20356516 9.2965611 -24 9 C-23.67 8.01 -23.34 7.02 -23 6 C-22.34 6.33 -21.68 6.66 -21 7 C-14.73239639 7.53254148 -9.35542513 7.6573635 -4 4 C-1.68581709 1.93832739 -1.68581709 1.93832739 0 0 Z " fill="#86C291" transform="translate(421,289)"/>
<path d="M0 0 C0.33 0 0.66 0 1 0 C1 9.9 1 19.8 1 30 C1.66 30.33 2.32 30.66 3 31 C2.360625 32.0725 1.72125 33.145 1.0625 34.25 C-0.40601273 36.80822182 -1.52854542 39.05340886 -2 42 C-2.66 42 -3.32 42 -4 42 C-3.69128878 40.20767663 -3.37790936 38.41615679 -3.0625 36.625 C-2.88847656 35.62726563 -2.71445312 34.62953125 -2.53515625 33.6015625 C-2 31 -2 31 -1 29 C-0.84530633 26.82325217 -0.74997894 24.6421652 -0.68359375 22.4609375 C-0.64169922 21.15898437 -0.59980469 19.85703125 -0.55664062 18.515625 C-0.51682701 17.13541955 -0.47711478 15.75521117 -0.4375 14.375 C-0.39430593 12.98696585 -0.35069135 11.59894472 -0.30664062 10.2109375 C-0.20028 6.80739744 -0.09825286 3.40378222 0 0 Z " fill="#61AE6C" transform="translate(307,247)"/>
<path d="M0 0 C0.06058594 0.59167969 0.12117187 1.18335938 0.18359375 1.79296875 C0.62012371 5.90978208 1.08671346 9.95544533 2 14 C-2.3689695 10.69900082 -4.9138202 8.21544951 -7 3 C-7 2.34 -7 1.68 -7 1 C-4.50935112 0.31292445 -2.62113708 0 0 0 Z " fill="#55AF61" transform="translate(174,290)"/>
<path d="M0 0 C0.33 0 0.66 0 1 0 C1.42076911 7.6050121 1.39644218 14.14925663 -3.83984375 20.0859375 C-7.63203764 23.65921517 -7.63203764 23.65921517 -10 25 C-12.25390625 24.68359375 -12.25390625 24.68359375 -14 24 C-12.948125 23.38125 -11.89625 22.7625 -10.8125 22.125 C-3.59326698 16.95170346 -1.48101996 8.34756704 0 0 Z " fill="#59AB67" transform="translate(275,271)"/>
<path d="M0 0 C0.99 0 1.98 0 3 0 C5.31311055 4.62622111 4.36267185 11.18664074 3.375 16.125 C1.36892887 20.31951236 -0.7182887 24.66643322 -4 28 C-6.69921875 28.2578125 -6.69921875 28.2578125 -9 28 C-8.61328125 27.5875 -8.2265625 27.175 -7.828125 26.75 C-0.64137142 18.78053068 2 11.7549743 2 1 C1.34 0.67 0.68 0.34 0 0 Z " fill="#71B579" transform="translate(191,247)"/>
<path d="M0 0 C1.65 0 3.3 0 5 0 C5 0.99 5 1.98 5 3 C5.31088368 4.67099977 5.64080332 6.33871537 6 8 C5.360625 8.103125 4.72125 8.20625 4.0625 8.3125 C3.0415625 8.6528125 3.0415625 8.6528125 2 9 C1.67 9.99 1.34 10.98 1 12 C0.34 12 -0.32 12 -1 12 C-0.67 8.04 -0.34 4.08 0 0 Z " fill="#5A5245" transform="translate(195,347)"/>
<path d="M0 0 C6.93 0 13.86 0 21 0 C21 0.66 21 1.32 21 2 C20.35933594 1.98839844 19.71867187 1.97679687 19.05859375 1.96484375 C13.91346778 1.91116881 9.06975076 2.11830422 4 3 C4 3.66 4 4.32 4 5 C2.68 5.33 1.36 5.66 0 6 C0 4.02 0 2.04 0 0 Z " fill="#5B5447" transform="translate(100,336)"/>
<path d="M0 0 C3 1 3 1 4 3 C4.084915 4.8863912 4.107193 6.77578515 4.09765625 8.6640625 C4.09443359 9.78554688 4.09121094 10.90703125 4.08789062 12.0625 C4.07951172 13.238125 4.07113281 14.41375 4.0625 15.625 C4.05798828 16.80835938 4.05347656 17.99171875 4.04882812 19.2109375 C4.03701467 22.14067507 4.02054258 25.07031272 4 28 C3.01 28.33 2.02 28.66 1 29 C1.09539062 27.91203125 1.19078125 26.8240625 1.2890625 25.703125 C1.98785613 16.80948015 2.04518091 8.77230489 0 0 Z " fill="#73B879" transform="translate(341,253)"/>
<path d="M0 0 C1.27350058 3.01009228 0.99687398 4.00781505 -0.25 7.125 C-2 10 -2 10 -5 12 C-7.5625 11.8125 -7.5625 11.8125 -10 11 C-10.66 10.01 -11.32 9.02 -12 8 C-9.36 7.67 -6.72 7.34 -4 7 C-3.71125 6.21625 -3.4225 5.4325 -3.125 4.625 C-2 2 -2 2 0 0 Z " fill="#52AE5F" transform="translate(84,259)"/>
<path d="M0 0 C-5.75 2 -5.75 2 -8 2 C-8.185625 2.639375 -8.37125 3.27875 -8.5625 3.9375 C-10 6 -10 6 -13.625 6.75 C-14.73875 6.8325 -15.8525 6.915 -17 7 C-17 7.99 -17 8.98 -17 10 C-18.65 10.66 -20.3 11.32 -22 12 C-19.39514002 5.90883752 -13.73185506 2.50453072 -7.75 0.0625 C-4.15946662 -0.95481779 -3.31008039 -1.06186207 0 0 Z " fill="#E3D26D" transform="translate(273,124)"/>
<path d="M0 0 C0.33 0 0.66 0 1 0 C0.96519531 1.27875 0.93039063 2.5575 0.89453125 3.875 C0.86637213 5.58332009 0.83907426 7.29165452 0.8125 9 C0.78736328 9.83917969 0.76222656 10.67835938 0.73632812 11.54296875 C0.66774154 17.4414154 1.73038913 21.56723066 4 27 C4 27.99 4 28.98 4 30 C3.34 29.67 2.68 29.34 2 29 C2 28.34 2 27.68 2 27 C1.34 27 0.68 27 0 27 C-2.35643709 18.10024207 -2.45715543 10.06674491 -1 1 C-0.67 0.67 -0.34 0.34 0 0 Z " fill="#58A866" transform="translate(235,263)"/>
<path d="M0 0 C0 0.66 0 1.32 0 2 C-0.66 2 -1.32 2 -2 2 C-2 2.66 -2 3.32 -2 4 C-2.99 4 -3.98 4 -5 4 C-5 4.99 -5 5.98 -5 7 C-6.32 6.67 -7.64 6.34 -9 6 C-9.33 10.62 -9.66 15.24 -10 20 C-10.33 20 -10.66 20 -11 20 C-11.6883333 7.11287104 -11.6883333 7.11287104 -9.25 3.3125 C-4.55102041 -1.5170068 -4.55102041 -1.5170068 0 0 Z " fill="#8B867B" transform="translate(278,344)"/>
<path d="M0 0 C1.25683594 0.49113281 1.25683594 0.49113281 2.5390625 0.9921875 C6.3312931 2.09647136 9.43553543 2.19932952 13.375 2.125 C15.24285156 2.09792969 15.24285156 2.09792969 17.1484375 2.0703125 C18.08945312 2.04710937 19.03046875 2.02390625 20 2 C20 2.99 20 3.98 20 5 C15.71 5 11.42 5 7 5 C7 5.66 7 6.32 7 7 C5.68 6.67 4.36 6.34 3 6 C3.33 5.34 3.66 4.68 4 4 C2.68 3.67 1.36 3.34 0 3 C0 2.01 0 1.02 0 0 Z " fill="#56A963" transform="translate(241,294)"/>
<path d="M0 0 C0.78375 0.495 1.5675 0.99 2.375 1.5 C1.385 1.995 1.385 1.995 0.375 2.5 C-0.511875 2.190625 -1.39875 1.88125 -2.3125 1.5625 C-5.92382954 0.40414902 -8.8569957 0.34927983 -12.625 0.5 C-12.625 1.49 -12.625 2.48 -12.625 3.5 C-15.265 3.5 -17.905 3.5 -20.625 3.5 C-20.625 4.49 -20.625 5.48 -20.625 6.5 C-21.615 6.5 -22.605 6.5 -23.625 6.5 C-21.88639048 2.36210935 -19.96174911 1.09490459 -15.9765625 -0.73828125 C-10.40873915 -2.54181207 -5.35959103 -2.2177618 0 0 Z " fill="#6FB470" transform="translate(346.625,234.5)"/>
<path d="M0 0 C0.66 0.99 1.32 1.98 2 3 C1.38125 4.093125 0.7625 5.18625 0.125 6.3125 C-2.41629562 11.33200943 -3.22746988 16.47031075 -4 22 C-4.66 22 -5.32 22 -6 22 C-6.70176376 14.28059866 -4.28211047 6.4231657 0 0 Z " fill="#78C085" transform="translate(224,250)"/>
<path d="M0 0 C0.66 0 1.32 0 2 0 C1.875 1.8125 1.875 1.8125 1 4 C-3.7572287 7.24883912 -7.43735067 7.52977613 -13 7 C-17.56944444 4.86111111 -17.56944444 4.86111111 -19 2 C-16.69 2.33 -14.38 2.66 -12 3 C-12 3.66 -12 4.32 -12 5 C-6.40102392 4.41892152 -6.40102392 4.41892152 -1 3 C-0.67 2.01 -0.34 1.02 0 0 Z " fill="#837F78" transform="translate(214,363)"/>
<path d="M0 0 C0 0.66 0 1.32 0 2 C0.66 2 1.32 2 2 2 C2 3.32 2 4.64 2 6 C2.66 6.33 3.32 6.66 4 7 C3.01 7 2.02 7 1 7 C1 6.34 1 5.68 1 5 C-3.65580205 4.01263549 -3.65580205 4.01263549 -8.25 4.75 C-10.03805888 6.02718492 -11.5230007 7.37530077 -13 9 C-12.5 6.1875 -12.5 6.1875 -11 3 C-7.48015683 0.92458491 -4.06897255 0 0 0 Z " fill="#6EB57A" transform="translate(338,244)"/>
<path d="M0 0 C2.46800047 1.15173355 4.04783565 2.04783565 6 4 C6 5.32 6 6.64 6 8 C3.03 7.67 0.06 7.34 -3 7 C-1.125 1.125 -1.125 1.125 0 0 Z " fill="#686154" transform="translate(246,343)"/>
<path d="M0 0 C3.00288687 2.54496864 4.20295625 5.33090573 5.6875 8.9375 C6.12449219 9.97777344 6.56148437 11.01804688 7.01171875 12.08984375 C8 15 8 15 8 19 C7.34 19 6.68 19 6 19 C5.7525 17.9275 5.505 16.855 5.25 15.75 C3.97663779 11.92991338 2.85332641 10.66310465 0 8 C0 5.33333333 0 2.66666667 0 0 Z " fill="#63AF6C" transform="translate(153,194)"/>
<path d="M0 0 C0.66 0.33 1.32 0.66 2 1 C1.690625 1.7425 1.38125 2.485 1.0625 3.25 C-0.17249886 7.6088195 -0.3806456 11.68346575 -0.55859375 16.1953125 C-1.05488546 19.34874123 -1.71912241 20.78218815 -4 23 C-7.6875 23.25 -7.6875 23.25 -11 23 C-11.33 22.34 -11.66 21.68 -12 21 C-11.2575 21.020625 -10.515 21.04125 -9.75 21.0625 C-7.28159657 21.00639992 -5.36135836 20.64079596 -3 20 C-2.95101562 18.97519531 -2.90203125 17.95039063 -2.8515625 16.89453125 C-2.77648929 15.5338294 -2.70094345 14.17315356 -2.625 12.8125 C-2.5940625 12.13896484 -2.563125 11.46542969 -2.53125 10.77148438 C-2.29896078 6.80321025 -1.71612524 3.59270121 0 0 Z " fill="#E2D376" transform="translate(255,150)"/>
<path d="M0 0 C3.96 0 7.92 0 12 0 C12.33 1.65 12.66 3.3 13 5 C11 7 11 7 9.0546875 7.1953125 C7.03645833 7.13020833 5.01822917 7.06510417 3 7 C6 5 6 5 8 5 C8 4.01 8 3.02 8 2 C5.36 1.67 2.72 1.34 0 1 C0 0.67 0 0.34 0 0 Z " fill="#848078" transform="translate(107,348)"/>
<path d="M0 0 C2.475 0.99 2.475 0.99 5 2 C5.08302368 2.84763916 5.08302368 2.84763916 5.16772461 3.71240234 C5.42024372 6.26702332 5.67879723 8.82099815 5.9375 11.375 C6.02451172 12.26445312 6.11152344 13.15390625 6.20117188 14.0703125 C6.28818359 14.92109375 6.37519531 15.771875 6.46484375 16.6484375 C6.543396 17.43395996 6.62194824 18.21948242 6.70288086 19.02880859 C6.90696298 21.07134803 6.90696298 21.07134803 8 23 C7.01 22.67 6.02 22.34 5 22 C3.27220562 18.54441123 3.26337889 14.48842291 2.83789062 10.67382812 C2.3693668 6.82279084 1.62974365 3.52542874 0 0 Z " fill="#EBDD8D" transform="translate(306,149)"/>
<path d="M0 0 C0.33 0.66 0.66 1.32 1 2 C-1.90449181 5.33478689 -3.63192397 6.46012543 -8 7 C-10.27401002 6.9173572 -12.54633382 6.76851511 -14.8125 6.5625 C-15.97394531 6.46066406 -17.13539063 6.35882813 -18.33203125 6.25390625 C-19.21246094 6.17011719 -20.09289062 6.08632813 -21 6 C-21 5.01 -21 4.02 -21 3 C-20.01 3.33 -19.02 3.66 -18 4 C-10.83234382 4.77660218 -6.17535312 3.65946852 0 0 Z " fill="#88C190" transform="translate(212,292)"/>
<path d="M0 0 C6.258654 -0.5326514 10.45108785 1.18150494 16 4 C16 4.99 16 5.98 16 7 C17.43750191 8.68798827 17.43750191 8.68798827 19 10 C18.67 10.66 18.34 11.32 18 12 C17.48050781 11.52949219 16.96101563 11.05898437 16.42578125 10.57421875 C9.15797213 3.99497531 9.15797213 3.99497531 0 1 C0 0.67 0 0.34 0 0 Z " fill="#97CF9F" transform="translate(121,192)"/>
<path d="M0 0 C5.53846154 0.61538462 5.53846154 0.61538462 7.875 2.5625 C8.431875 3.2740625 8.431875 3.2740625 9 4 C7.8125 5.5625 7.8125 5.5625 6 7 C3.3125 6.6875 3.3125 6.6875 1 6 C0 1.125 0 1.125 0 0 Z " fill="#585143" transform="translate(197,360)"/>
<path d="M0 0 C6.25 -0.48076923 6.25 -0.48076923 9.4375 1.5625 C11.5248128 4.81870797 11.2915423 7.20995016 11 11 C10.67 11 10.34 11 10 11 C10 9.02 10 7.04 10 5 C9.01 5 8.02 5 7 5 C6.67 4.34 6.34 3.68 6 3 C3.36 3.66 0.72 4.32 -2 5 C-1.34 3.35 -0.68 1.7 0 0 Z " fill="#71B57A" transform="translate(429,270)"/>
<path d="M0 0 C1 3 1 3 0.328125 5.0078125 C-0.02765625 5.70648438 -0.3834375 6.40515625 -0.75 7.125 C-1.26820313 8.18074219 -1.26820313 8.18074219 -1.796875 9.2578125 C-3 11 -3 11 -6 12 C-7.21869929 14.50447516 -7.21869929 14.50447516 -8 17 C-9.65 16.67 -11.3 16.34 -13 16 C-12.29875 15.319375 -11.5975 14.63875 -10.875 13.9375 C-6.63868239 9.68911311 -2.53482768 5.49012442 0 0 Z " fill="#80BE86" transform="translate(140,244)"/>
<path d="M0 0 C1.47906892 -0.02689216 2.95827483 -0.04634621 4.4375 -0.0625 C5.26121094 -0.07410156 6.08492187 -0.08570313 6.93359375 -0.09765625 C9 0 9 0 10 1 C10.07258946 3.18639453 10.08373783 5.37500389 10.0625 7.5625 C10.05347656 8.76003906 10.04445312 9.95757812 10.03515625 11.19140625 C10.02355469 12.11824219 10.01195312 13.04507813 10 14 C9.34 13.67 8.68 13.34 8 13 C7.5859375 10.49609375 7.5859375 10.49609375 7.375 7.4375 C7.30023438 6.42558594 7.22546875 5.41367188 7.1484375 4.37109375 C7.09945312 3.58863281 7.05046875 2.80617187 7 2 C4.69 2.33 2.38 2.66 0 3 C0 2.01 0 1.02 0 0 Z " fill="#E8D57B" transform="translate(233,157)"/>
<path d="M0 0 C0 3.63 0 7.26 0 11 C-0.66 10.01 -1.32 9.02 -2 8 C-4.16874252 8.50603992 -5.99967627 8.99983813 -8 10 C-8 8.68 -8 7.36 -8 6 C-6.35 5.67 -4.7 5.34 -3 5 C-3.66 3.68 -4.32 2.36 -5 1 C-2 0 -2 0 0 0 Z " fill="#709D6F" transform="translate(145,330)"/>
<path d="M0 0 C0 1.65 0 3.3 0 5 C-1.32 4.34 -2.64 3.68 -4 3 C-4 3.99 -4 4.98 -4 6 C-4.66 6 -5.32 6 -6 6 C-6 6.66 -6 7.32 -6 8 C-6.66 8 -7.32 8 -8 8 C-7.67 5.36 -7.34 2.72 -7 0 C-3.98968256 -0.93423645 -3.13349732 -1.04449911 0 0 Z " fill="#4AB054" transform="translate(436,273)"/>
<path d="M0 0 C1.19109375 0.00773438 1.19109375 0.00773438 2.40625 0.015625 C3.2003125 0.01046875 3.994375 0.0053125 4.8125 0 C6.90625 0.265625 6.90625 0.265625 8.90625 2.265625 C5.83302456 3.17621031 3.10527639 3.35448684 -0.09375 3.265625 C-0.42375 3.925625 -0.75375 4.585625 -1.09375 5.265625 C-1.75375 5.265625 -2.41375 5.265625 -3.09375 5.265625 C-3.42375 6.255625 -3.75375 7.245625 -4.09375 8.265625 C-4.21875 5.390625 -4.21875 5.390625 -4.09375 2.265625 C-2.09375 0.265625 -2.09375 0.265625 0 0 Z " fill="#75B980" transform="translate(278.09375,234.734375)"/>
<path d="M0 0 C0.99386719 0.00902344 1.98773438 0.01804688 3.01171875 0.02734375 C4.15060547 0.04474609 4.15060547 0.04474609 5.3125 0.0625 C1.63733997 1.96344484 -1.55865213 3.10906892 -5.6875 3.4375 C-8.44233173 3.74640576 -9.45581233 3.88149401 -11.6875 5.625 C-12.0175 6.099375 -12.3475 6.57375 -12.6875 7.0625 C-13.3475 6.4025 -14.0075 5.7425 -14.6875 5.0625 C-9.49516042 1.48555495 -6.29967345 -0.07411381 0 0 Z " fill="#76BA81" transform="translate(192.6875,232.9375)"/>
<path d="M0 0 C2.31 0 4.62 0 7 0 C5.68 0.33 4.36 0.66 3 1 C3.02320313 1.69867188 3.04640625 2.39734375 3.0703125 3.1171875 C3.08835937 4.02726563 3.10640625 4.93734375 3.125 5.875 C3.14820313 6.77992188 3.17140625 7.68484375 3.1953125 8.6171875 C3 11 3 11 1 13 C-0.10228696 8.59085217 -0.07654536 4.51617599 0 0 Z " fill="#EEDF8D" transform="translate(321,158)"/>
<path d="M0 0 C0 0.99 0 1.98 0 3 C-1.98 3 -3.96 3 -6 3 C-6 3.66 -6 4.32 -6 5 C-8.97 4.505 -8.97 4.505 -12 4 C-8.35616205 0.00912986 -5.26350451 -0.11696677 0 0 Z M-10 5 C-9.34 5 -8.68 5 -8 5 C-8.33 5.66 -8.66 6.32 -9 7 C-9.33 6.34 -9.66 5.68 -10 5 Z " fill="#7B756D" transform="translate(245,342)"/>
<path d="M0 0 C0.66 0 1.32 0 2 0 C1.65173073 8.30622213 1.65173073 8.30622213 -0.9375 11.0625 C-3 12 -3 12 -5 12 C-5.33 11.01 -5.66 10.02 -6 9 C-5.01 8.67 -4.02 8.34 -3 8 C-1.98245132 6.1346755 -1.98245132 6.1346755 -1.3125 3.9375 C-1.06113281 3.20402344 -0.80976563 2.47054688 -0.55078125 1.71484375 C-0.36902344 1.14894531 -0.18726563 0.58304687 0 0 Z " fill="#73B77A" transform="translate(341,284)"/>
<path d="M0 0 C2.125 0.375 2.125 0.375 4 1 C3.67 2.32 3.34 3.64 3 5 C2.34 5 1.68 5 1 5 C0.67 5.66 0.34 6.32 0 7 C0.99 7.33 1.98 7.66 3 8 C1.68 8 0.36 8 -1 8 C-1 7.34 -1 6.68 -1 6 C-1.66 6 -2.32 6 -3 6 C-2.42655063 3.13275314 -2.1385485 2.1385485 0 0 Z " fill="#4E4E3E" transform="translate(140,337)"/>
<path d="M0 0 C1.32 0 2.64 0 4 0 C4.33 1.65 4.66 3.3 5 5 C2 6 2 6 0 6 C-1.62514468 7.45833358 -1.62514468 7.45833358 -3 9 C-3.66 8.67 -4.32 8.34 -5 8 C-4.360625 7.236875 -3.72125 6.47375 -3.0625 5.6875 C-0.85767219 3.11753287 -0.85767219 3.11753287 0 0 Z " fill="#5AAD64" transform="translate(371,280)"/>
<path d="M0 0 C0.66 1.32 1.32 2.64 2 4 C-0.64 6.97 -3.28 9.94 -6 13 C-6.33 11.68 -6.66 10.36 -7 9 C-6.01 9 -5.02 9 -4 9 C-4 7.68 -4 6.36 -4 5 C-3.34 4.67 -2.68 4.34 -2 4 C-0.86649466 1.98330173 -0.86649466 1.98330173 0 0 Z " fill="#73BA7D" transform="translate(149,253)"/>
<path d="M0 0 C0.33 1.32 0.66 2.64 1 4 C0.34 4 -0.32 4 -1 4 C-1.66 6.64 -2.32 9.28 -3 12 C-4.5625 10.75 -4.5625 10.75 -6 9 C-6 5.70982308 -4.7074789 4.68607492 -2.4375 2.25 C-1.633125 1.5075 -0.82875 0.765 0 0 Z " fill="#5DAF68" transform="translate(81,187)"/>
<path d="M0 0 C2.68478605 1.98440708 3.03631971 3.15645412 3.8125 6.5 C4 10 4 10 2 13 C-1.62870159 4.738041 -1.62870159 4.738041 0 0 Z " fill="#77BF82" transform="translate(131,309)"/>
<path d="M0 0 C1.4540625 0.0309375 1.4540625 0.0309375 2.9375 0.0625 C-1.51279503 3.59204433 -4.61130215 4.18563116 -10.25 4.125 C-11.88001953 4.11146484 -11.88001953 4.11146484 -13.54296875 4.09765625 C-14.37441406 4.08605469 -15.20585937 4.07445312 -16.0625 4.0625 C-13.27624112 2.51596979 -11.04379011 1.77942427 -7.875 1.5 C-4.06058787 1.06228058 -3.61244524 0.07372337 0 0 Z " fill="#65AF6F" transform="translate(340.0625,308.9375)"/>
<path d="M0 0 C0 3.3645241 -0.38101977 5.05639958 -2 8 C-4.9375 9.875 -4.9375 9.875 -8 11 C-8.99 10.67 -9.98 10.34 -11 10 C-10.01 9.34 -9.02 8.68 -8 8 C-6.31237149 6.3545622 -4.6459651 4.68711423 -3 3 C-2 2 -1 1 0 0 Z " fill="#72B778" transform="translate(421,289)"/>
<path d="M0 0 C0.94746094 -0.01675781 1.89492187 -0.03351563 2.87109375 -0.05078125 C5.93375309 0.36261109 7.28868559 1.27520529 9.5625 3.3125 C6.5925 2.8175 6.5925 2.8175 3.5625 2.3125 C3.2325 2.9725 2.9025 3.6325 2.5625 4.3125 C2.5625 3.6525 2.5625 2.9925 2.5625 2.3125 C-1.0675 2.3125 -4.6975 2.3125 -8.4375 2.3125 C-5.11533762 0.09772508 -3.88716677 0.01582293 0 0 Z " fill="#6CB275" transform="translate(248.4375,232.6875)"/>
<path d="M0 0 C1.485 0.99 1.485 0.99 3 2 C3.22107787 4.7885289 3.28107535 7.34653181 3.1875 10.125 C3.17396484 10.87910156 3.16042969 11.63320312 3.14648438 12.41015625 C3.11109985 14.27374127 3.05729167 16.13695978 3 18 C2.67 18 2.34 18 2 18 C1.83222817 16.20843648 1.66581706 14.4167455 1.5 12.625 C1.4071875 11.62726563 1.314375 10.62953125 1.21875 9.6015625 C1 7 1 7 1 5 C0.34 4.67 -0.32 4.34 -1 4 C-0.67 2.68 -0.34 1.36 0 0 Z " fill="#62AF6C" transform="translate(107,203)"/>
<path d="M0 0 C0.99 0.33 1.98 0.66 3 1 C1.71034824 2.37562854 0.37310707 3.70766393 -1 5 C-1.66 5 -2.32 5 -3 5 C-3.33 5.99 -3.66 6.98 -4 8 C-6.0625 8.6875 -6.0625 8.6875 -8 9 C-3.64309032 1.99782372 -3.64309032 1.99782372 0 0 Z " fill="#66B470" transform="translate(384,240)"/>
<path d="M0 0 C-0.75 1.9375 -0.75 1.9375 -2 4 C-4.125 4.75 -4.125 4.75 -6 5 C-6 4.34 -6 3.68 -6 3 C-6.99 3.33 -7.98 3.66 -9 4 C-9 3.01 -9 2.02 -9 1 C-6.04335481 -0.4783226 -3.25770263 -0.06032783 0 0 Z " fill="#5D5347" transform="translate(168,346)"/>
<path d="M0 0 C0.66 0.33 1.32 0.66 2 1 C1.63287028 3.71675995 1.27255401 5.61063713 -0.3125 7.875 C-2 9 -2 9 -4.1875 8.6875 C-4.785625 8.460625 -5.38375 8.23375 -6 8 C-4.60804085 5.2160817 -2.84424221 5.02101003 0 4 C0 2.68 0 1.36 0 0 Z " fill="#5BAB67" transform="translate(320,368)"/>
<path d="M0 0 C-0.625 1.875 -0.625 1.875 -2 4 C-5.125 5.25 -5.125 5.25 -8 6 C-8 4.68 -8 3.36 -8 2 C-7.34 2 -6.68 2 -6 2 C-6 1.34 -6 0.68 -6 0 C-3.50907189 -1.24546405 -2.58919267 -0.7767578 0 0 Z " fill="#5A5344" transform="translate(245,345)"/>
<path d="M0 0 C0 0.66 0 1.32 0 2 C-3.82517513 4.39073445 -7.59665524 4.55966552 -12 5 C-12 4.34 -12 3.68 -12 3 C-4.71428571 -0.42857143 -4.71428571 -0.42857143 0 0 Z " fill="#797467" transform="translate(172,342)"/>
<path d="M0 0 C4.84659077 0.59104765 8.60748167 1.97944157 13 4 C12.67 4.66 12.34 5.32 12 6 C10.55903414 5.57405412 9.12231288 5.13373367 7.6875 4.6875 C6.88699219 4.44386719 6.08648437 4.20023437 5.26171875 3.94921875 C2.90035427 2.95817977 1.66120007 1.91925057 0 0 Z " fill="#79BB80" transform="translate(176,304)"/>
<path d="M0 0 C0.66 0.33 1.32 0.66 2 1 C0.35 1.66 -1.3 2.32 -3 3 C-3 3.66 -3 4.32 -3 5 C-6.83887763 6.48320272 -9.06204091 7.22419163 -13 6 C-10.87959258 4.96966118 -8.75352092 3.95097146 -6.625 2.9375 C-5.44164063 2.36902344 -4.25828125 1.80054688 -3.0390625 1.21484375 C-2.03617188 0.81394531 -1.03328125 0.41304687 0 0 Z " fill="#8EC693" transform="translate(98,178)"/>
<path d="M0 0 C0 0.33 0 0.66 0 1 C-0.90363281 1.10957031 -1.80726563 1.21914063 -2.73828125 1.33203125 C-3.91777344 1.49058594 -5.09726562 1.64914062 -6.3125 1.8125 C-7.48425781 1.96332031 -8.65601563 2.11414063 -9.86328125 2.26953125 C-13.0769023 3.01790875 -13.94461111 3.57211344 -16 6 C-16.66 6 -17.32 6 -18 6 C-18 5.01 -18 4.02 -18 3 C-12.69004185 -0.5399721 -6.21269575 -0.12943116 0 0 Z " fill="#68B174" transform="translate(361,303)"/>
<path d="M0 0 C0.99 0 1.98 0 3 0 C3 2.97 3 5.94 3 9 C2.01 9.33 1.02 9.66 0 10 C0 6.7 0 3.4 0 0 Z " fill="#46B154" transform="translate(147,221)"/>
<path d="M0 0 C3 1 3 1 5 4 C5.25760279 6.69452521 5.08900053 9.28548375 5 12 C4.34 12 3.68 12 3 12 C2.01 8.04 1.02 4.08 0 0 Z " fill="#6BB274" transform="translate(142,207)"/>
<path d="M0 0 C0.33 0.99 0.66 1.98 1 3 C-0.4375 5.6875 -0.4375 5.6875 -2 8 C-3.32 7.01 -4.64 6.02 -6 5 C-3.375 1.125 -3.375 1.125 0 0 Z " fill="#635F4F" transform="translate(252,360)"/>
<path d="M0 0 C0.99 0 1.98 0 3 0 C3 2.64 3 5.28 3 8 C1.68 8 0.36 8 -1 8 C-1 4.88742431 -0.82638376 2.89234315 0 0 Z " fill="#7E7A72" transform="translate(280,343)"/>
<path d="M0 0 C2.0343459 1.41519715 2.90410393 2.54982123 3.421875 4.98046875 C3.66273952 6.98176954 3.83532741 8.9909944 4 11 C0.64306263 8.76204175 0.08029437 7.7810303 -1 4 C-0.625 1.6875 -0.625 1.6875 0 0 Z " fill="#67B670" transform="translate(205,238)"/>
<path d="M0 0 C0.66 0 1.32 0 2 0 C3.5912689 4.873261 4.21192221 8.80790596 4 14 C1.01520806 9.52281208 0 5.36175907 0 0 Z " fill="#73B57A" transform="translate(61,241)"/>
<path d="M0 0 C1.31896465 0.92838287 2.62998689 1.86805732 3.9375 2.8125 C4.66839844 3.33457031 5.39929688 3.85664063 6.15234375 4.39453125 C8 6 8 6 9 9 C7.68 8.67 6.36 8.34 5 8 C5 7.34 5 6.68 5 6 C4.360625 5.7525 3.72125 5.505 3.0625 5.25 C1 4 1 4 0.37109375 1.921875 C0.24863281 1.28765625 0.12617188 0.6534375 0 0 Z " fill="#7DC184" transform="translate(143,184)"/>
<path d="M0 0 C2.475 0.495 2.475 0.495 5 1 C6 4 6 4 5 7 C2 6 2 6 0 4 C0 2.68 0 1.36 0 0 Z " fill="#6B6559" transform="translate(238,352)"/>
<path d="M0 0 C0.99 0.33 1.98 0.66 3 1 C2.53980469 1.39832031 2.07960937 1.79664063 1.60546875 2.20703125 C-0.2674322 4.29866516 -0.87389302 6.01421992 -1.6875 8.6875 C-1.93886719 9.49574219 -2.19023437 10.30398438 -2.44921875 11.13671875 C-2.63097656 11.75160156 -2.81273437 12.36648438 -3 13 C-3.33 13 -3.66 13 -4 13 C-4.15692821 4.83973289 -4.15692821 4.83973289 -3 2 C-2.01 1.34 -1.02 0.68 0 0 Z " fill="#60AB6C" transform="translate(185,248)"/>
<path d="M0 0 C0.70125 0.309375 1.4025 0.61875 2.125 0.9375 C5.08936657 2.03302678 7.87698108 2.56422992 11 3 C11 3.66 11 4.32 11 5 C5.62694301 5.44041451 5.62694301 5.44041451 3 5 C1 2.5 1 2.5 0 0 Z " fill="#59AC6B" transform="translate(278,213)"/>
<path d="M0 0 C0.66 0 1.32 0 2 0 C1.88557539 1.60495567 1.75805306 3.20898119 1.625 4.8125 C1.55539062 5.70582031 1.48578125 6.59914062 1.4140625 7.51953125 C1 10 1 10 -1 13 C-1.0272415 11.58344207 -1.04650467 10.16672955 -1.0625 8.75 C-1.07410156 7.96109375 -1.08570313 7.1721875 -1.09765625 6.359375 C-1.00385306 4.09308998 -0.63241063 2.1711105 0 0 Z " fill="#EBDF94" transform="translate(364,194)"/>
<path d="M0 0 C0.66 0.66 1.32 1.32 2 2 C-1.96 2.66 -5.92 3.32 -10 4 C-10 3.01 -10 2.02 -10 1 C-6.61401171 -0.04184255 -3.53318313 -0.23042499 0 0 Z " fill="#73BF7E" transform="translate(110,191)"/>
<path d="M0 0 C0.66 0.66 1.32 1.32 2 2 C-1.08888522 4.05925681 -1.70935927 4.2390374 -5.1875 4.125 C-7.0746875 4.063125 -7.0746875 4.063125 -9 4 C-9 3.34 -9 2.68 -9 2 C-7.54536519 1.61090015 -6.08608793 1.23911971 -4.625 0.875 C-3.40683594 0.56175781 -3.40683594 0.56175781 -2.1640625 0.2421875 C-1.44992188 0.16226562 -0.73578125 0.08234375 0 0 Z " fill="#828078" transform="translate(247,366)"/>
<path d="M0 0 C1.98 0 3.96 0 6 0 C6.33 0.99 6.66 1.98 7 3 C3.71303767 3.79953138 2.28976808 4.09658936 -1 3 C-0.67 2.01 -0.34 1.02 0 0 Z " fill="#696456" transform="translate(210,336)"/>
<path d="M0 0 C2.625 0.25 2.625 0.25 4.4375 1.75 C4.829375 2.245 5.22125 2.74 5.625 3.25 C3.625 4.25 3.625 4.25 1.75 3.6875 C-0.95735674 3.13010302 -2.06365109 3.84668102 -4.375 5.25 C-3.26717391 0.34391304 -3.26717391 0.34391304 0 0 Z " fill="#77B57E" transform="translate(246.375,244.75)"/>
<path d="M0 0 C1 2 1 2 0.3125 4.8125 C-1.04213097 8.10231807 -2.65756509 10.34524043 -5 13 C-4.48474397 7.71862571 -2.74522883 4.42778844 0 0 Z " fill="#E4CC6A" transform="translate(205,166)"/>
<path d="M0 0 C1.32 0.33 2.64 0.66 4 1 C4.33 1.66 4.66 2.32 5 3 C4.319375 3.61875 4.319375 3.61875 3.625 4.25 C1.67082177 6.19019186 1.67082177 6.19019186 0 10 C0 6.7 0 3.4 0 0 Z " fill="#777169" transform="translate(230,351)"/>
<path d="M0 0 C-1.423125 0.61875 -1.423125 0.61875 -2.875 1.25 C-6.00716624 3.0040131 -6.86500606 3.70851757 -8 7 C-8.66 5.68 -9.32 4.36 -10 3 C-6.81859267 -0.48439851 -4.56758339 -1.41752588 0 0 Z " fill="#85C58E" transform="translate(333,295)"/>
<path d="M0 0 C1.485 0.99 1.485 0.99 3 2 C5.05709596 2.24055468 5.05709596 2.24055468 7.1875 2.125 C8.445625 2.08375 9.70375 2.0425 11 2 C10.67 2.66 10.34 3.32 10 4 C2.58823529 5.29411765 2.58823529 5.29411765 0 4 C0 2.68 0 1.36 0 0 Z " fill="#7FBC88" transform="translate(253,255)"/>
<path d="M0 0 C0.99 0.33 1.98 0.66 3 1 C1.90716423 2.03295436 0.80029421 3.05107835 -0.3125 4.0625 C-0.92738281 4.63097656 -1.54226563 5.19945312 -2.17578125 5.78515625 C-2.77777344 6.18605469 -3.37976563 6.58695312 -4 7 C-4.99 6.67 -5.98 6.34 -7 6 C-2.25 1.125 -2.25 1.125 0 0 Z " fill="#5BAA69" transform="translate(427,300)"/>
<path d="M0 0 C0.66 0 1.32 0 2 0 C0.125 5.875 0.125 5.875 -1 7 C-3.33297433 7.04092937 -5.66705225 7.04241723 -8 7 C-7.13375 6.6596875 -7.13375 6.6596875 -6.25 6.3125 C-3.44661024 4.67718931 -1.99557846 2.52773272 0 0 Z " fill="#6AB072" transform="translate(301,291)"/>
<path d="M0 0 C4.87685861 1.35468295 6.48592381 3.71675909 9 8 C8.01 9.485 8.01 9.485 7 11 C6.38125 9.6696875 6.38125 9.6696875 5.75 8.3125 C4.09872712 5.18687634 2.28668741 2.68094386 0 0 Z " fill="#60A56C" transform="translate(118,286)"/>
<path d="M0 0 C0.33 0 0.66 0 1 0 C1.10867302 1.58179615 1.18589827 3.16577153 1.25 4.75 C1.29640625 5.63171875 1.3428125 6.5134375 1.390625 7.421875 C1 10 1 10 -3 14 C-2.01 9.38 -1.02 4.76 0 0 Z " fill="#64B070" transform="translate(275,271)"/>
<path d="M0 0 C0.75 1.75 0.75 1.75 1 4 C-0.6875 6.3125 -0.6875 6.3125 -3 8 C-5.25 7.75 -5.25 7.75 -7 7 C-4.66666667 4.66666667 -2.33333333 2.33333333 0 0 Z " fill="#72BC7F" transform="translate(189,267)"/>
<path d="M0 0 C3.3 0.33 6.6 0.66 10 1 C8.515 2.485 8.515 2.485 7 4 C4.4375 3.875 4.4375 3.875 2 3 C1.34 2.01 0.68 1.02 0 0 Z " fill="#78B281" transform="translate(72,267)"/>
<path d="M0 0 C0.66 0 1.32 0 2 0 C1.45660208 4.56454251 0.20536179 7.9728176 -2 12 C-3.09658936 8.71023192 -2.79953138 7.28696233 -2 4 C-1.34 4 -0.68 4 0 4 C0 2.68 0 1.36 0 0 Z " fill="#69AA75" transform="translate(414,259)"/>
<path d="M0 0 C0 4.0333534 -1.60879918 5.83517538 -4 9 C-4.66 9 -5.32 9 -6 9 C-6.3125 6.6875 -6.3125 6.6875 -6 4 C-3.5625 2.25 -3.5625 2.25 -1 1 C-0.67 0.67 -0.34 0.34 0 0 Z " fill="#47B150" transform="translate(84,257)"/>
<path d="M0 0 C-0.99 1.485 -0.99 1.485 -2 3 C-5.125 3.1875 -5.125 3.1875 -8 3 C-7.67 2.01 -7.34 1.02 -7 0 C-3.86650268 -1.04449911 -3.01031744 -0.93423645 0 0 Z " fill="#4BAF54" transform="translate(402,235)"/>
<path d="M0 0 C3.78786597 0.5260925 6.17152224 1.38103911 9 4 C9 4.66 9 5.32 9 6 C5.06326356 4.68775452 2.77280706 3.08089673 0 0 Z " fill="#E8DF8C" transform="translate(213,224)"/>
<path d="M0 0 C-0.639375 0.12375 -1.27875 0.2475 -1.9375 0.375 C-2.618125 0.58125 -3.29875 0.7875 -4 1 C-5.11785113 3.11785113 -5.11785113 3.11785113 -6 6 C-7.32 5.67 -8.64 5.34 -10 5 C-9 2 -9 2 -7.25 0.8125 C-4.70039426 -0.10819096 -2.69076919 -0.14948718 0 0 Z " fill="#9A967F" transform="translate(206,342)"/>
<path d="M0 0 C0.99 0.33 1.98 0.66 3 1 C3.84098656 5.01804691 4.05404945 8.01803543 3 12 C2.67 12 2.34 12 2 12 C1.34 8.04 0.68 4.08 0 0 Z " fill="#98C99E" transform="translate(341,253)"/>
<path d="M0 0 C1.48280196 0.78483659 2.9611498 1.57809334 4.4375 2.375 C5.67306641 3.03628906 5.67306641 3.03628906 6.93359375 3.7109375 C9 5 9 5 10 7 C7.0625 6.625 7.0625 6.625 4 6 C3.67 5.34 3.34 4.68 3 4 C2.01 3.67 1.02 3.34 0 3 C0 2.01 0 1.02 0 0 Z " fill="#EEE39C" transform="translate(224,215)"/>
<path d="M0 0 C-1.09068668 3.77545388 -1.9083091 6.47043472 -5 9 C-4.4140625 2.84765625 -4.4140625 2.84765625 -4 1 C-2 0 -2 0 0 0 Z " fill="#EBDA83" transform="translate(363,207)"/>
<path d="M0 0 C0.33 1.32 0.66 2.64 1 4 C0.01 4.33 -0.98 4.66 -2 5 C-2.69937532 6.31647119 -3.36729133 7.65022151 -4 9 C-4.99 9.495 -4.99 9.495 -6 10 C-4.6302836 6.00499382 -2.74277578 3.19990508 0 0 Z " fill="#6DB777" transform="translate(74,194)"/>
<path d="M0 0 C1.37432457 3.81756824 0.67975039 7.07255329 0 11 C-0.66 11 -1.32 11 -2 11 C-2.25 3.375 -2.25 3.375 0 0 Z " fill="#E1CF69" transform="translate(211,182)"/>
<path d="M0 0 C5.75 0.75 5.75 0.75 8 3 C6.02 3.99 6.02 3.99 4 5 C2 3.625 2 3.625 0 2 C0 1.34 0 0.68 0 0 Z " fill="#5E574B" transform="translate(197,360)"/>
<path d="M0 0 C0.99 0.33 1.98 0.66 3 1 C3 1.99 3 2.98 3 4 C3.66 4 4.32 4 5 4 C5 5.65 5 7.3 5 9 C1.9083091 6.47043472 1.09068668 3.77545388 0 0 Z " fill="#8AC390" transform="translate(134,322)"/>
<path d="M0 0 C2.16874252 0.50603992 3.99967627 0.99983813 6 2 C6 2.99 6 3.98 6 5 C6.99 5.33 7.98 5.66 9 6 C8.01 6.495 8.01 6.495 7 7 C5.83040013 6.02433888 4.66438823 5.044375 3.5 4.0625 C2.8503125 3.51722656 2.200625 2.97195313 1.53125 2.41015625 C1.0259375 1.94480469 0.520625 1.47945313 0 1 C0 0.67 0 0.34 0 0 Z " fill="#7DBB83" transform="translate(379,300)"/>
<path d="M0 0 C0 0.99 0 1.98 0 3 C-3.63 2.67 -7.26 2.34 -11 2 C-11 1.67 -11 1.34 -11 1 C-3.375 0 -3.375 0 0 0 Z " fill="#90CB95" transform="translate(261,296)"/>
<path d="M0 0 C0.33 0 0.66 0 1 0 C1.16682272 4.92127034 1.24828052 8.50343896 -1 13 C-1.33 13 -1.66 13 -2 13 C-1.85851011 11.3954444 -1.71164314 9.79136233 -1.5625 8.1875 C-1.48128906 7.29417969 -1.40007812 6.40085937 -1.31640625 5.48046875 C-1 3 -1 3 0 0 Z " fill="#60A369" transform="translate(373,256)"/>
<path d="M0 0 C0.99 0 1.98 0 3 0 C3.66 2.97 4.32 5.94 5 9 C1.7457985 6.16569547 0.4793247 4.31392226 0 0 Z " fill="#6AAF72" transform="translate(65,255)"/>
<path d="M0 0 C0 0.99 0 1.98 0 3 C-5.625 6 -5.625 6 -9 6 C-7.8803014 4.99406757 -6.7540588 3.9954151 -5.625 3 C-4.68527344 2.1646875 -4.68527344 2.1646875 -3.7265625 1.3125 C-2 0 -2 0 0 0 Z " fill="#8AC790" transform="translate(389,236)"/>
<path d="M0 0 C0 0.66 0 1.32 0 2 C-3.375 2.625 -3.375 2.625 -7 3 C-7.66 2.34 -8.32 1.68 -9 1 C-5.8035914 -0.06546953 -3.34252724 -0.07427838 0 0 Z " fill="#6EBB7B" transform="translate(109,177)"/>
<path d="M0 0 C2.5 2.3125 2.5 2.3125 5 5 C5 5.99 5 6.98 5 8 C2.5 6.25 2.5 6.25 0 4 C0 2.68 0 1.36 0 0 Z " fill="#EADB87" transform="translate(312,134)"/>
<path d="M0 0 C1.32 0 2.64 0 4 0 C4 0.66 4 1.32 4 2 C2.25 3.2890625 2.25 3.2890625 0 4.625 C-0.7425 5.07101563 -1.485 5.51703125 -2.25 5.9765625 C-2.8275 6.31429687 -3.405 6.65203125 -4 7 C-3.67 5.68 -3.34 4.36 -3 3 C-2.01 3 -1.02 3 0 3 C0 2.01 0 1.02 0 0 Z " fill="#E6D674" transform="translate(266,136)"/>
<path d="M0 0 C0.66 0 1.32 0 2 0 C2.25 2.25 2.25 2.25 2 5 C0 7.3125 0 7.3125 -2 9 C-1.51421457 5.87709365 -1.0013988 3.00419641 0 0 Z " fill="#63B26E" transform="translate(192,260)"/>
<path d="M0 0 C0.33 0.66 0.66 1.32 1 2 C1.99 2.33 2.98 2.66 4 3 C3.34 3.66 2.68 4.32 2 5 C0.68 5 -0.64 5 -2 5 C-2 3.68 -2 2.36 -2 1 C-1.34 0.67 -0.68 0.34 0 0 Z " fill="#DBCF5E" transform="translate(339,227)"/>
<path d="M0 0 C0.66 0.33 1.32 0.66 2 1 C1.01 4.3 0.02 7.6 -1 11 C-1.33 11 -1.66 11 -2 11 C-2.25 3.375 -2.25 3.375 0 0 Z " fill="#559E67" transform="translate(79,213)"/>
<path d="M0 0 C0.99 0 1.98 0 3 0 C2.71125 0.70125 2.4225 1.4025 2.125 2.125 C0.97866412 5.05452503 -0.02625654 8.00921653 -1 11 C-2.60080151 6.99799622 -1.29279692 3.95443764 0 0 Z " fill="#E4CF6F" transform="translate(214,171)"/>
<path d="M0 0 C0.66 0.33 1.32 0.66 2 1 C0.35 2.98 -1.3 4.96 -3 7 C-4.32 6.67 -5.64 6.34 -7 6 C-4.69 4.02 -2.38 2.04 0 0 Z " fill="#E7DD97" transform="translate(217,152)"/>
<path d="M0 0 C3.26460973 1.80412643 4.88929795 2.83394693 7 6 C6.01 6.495 6.01 6.495 5 7 C5 6.34 5 5.68 5 5 C3.35 4.67 1.7 4.34 0 4 C0 2.68 0 1.36 0 0 Z " fill="#E9D782" transform="translate(305,128)"/>
<path d="M0 0 C0.66 0 1.32 0 2 0 C1.8125 1.875 1.8125 1.875 1 4 C-1.5625 5.25 -1.5625 5.25 -4 6 C-4 5.01 -4 4.02 -4 3 C-3.01 3 -2.02 3 -1 3 C-0.67 2.01 -0.34 1.02 0 0 Z " fill="#736D64" transform="translate(214,363)"/>
<path d="M0 0 C2.475 0.495 2.475 0.495 5 1 C5.33 2.65 5.66 4.3 6 6 C3.97945196 4.35830472 1.97956942 2.69088222 0 1 C0 0.67 0 0.34 0 0 Z " fill="#86C693" transform="translate(170,298)"/>
<path d="M0 0 C0.33 0.99 0.66 1.98 1 3 C-0.75 4.5625 -0.75 4.5625 -3 6 C-4.32 5.67 -5.64 5.34 -7 5 C-4.69 3.35 -2.38 1.7 0 0 Z " fill="#81C188" transform="translate(268,290)"/>
<path d="M0 0 C0.66 0.33 1.32 0.66 2 1 C2 1.66 2 2.32 2 3 C3.32 3.33 4.64 3.66 6 4 C4.68 4.99 3.36 5.98 2 7 C2 6.01 2 5.02 2 4 C1.01 3.67 0.02 3.34 -1 3 C-0.67 2.01 -0.34 1.02 0 0 Z " fill="#72B979" transform="translate(192,276)"/>
<path d="M0 0 C-0.33 0.99 -0.66 1.98 -1 3 C-3.5625 4.1875 -3.5625 4.1875 -6 5 C-5.625 3.0625 -5.625 3.0625 -5 1 C-3 0 -3 0 0 0 Z " fill="#67B06E" transform="translate(139,267)"/>
<path d="M0 0 C0.66 0.66 1.32 1.32 2 2 C-1.3 2.33 -4.6 2.66 -8 3 C-8 2.34 -8 1.68 -8 1 C-5.23749964 -0.38125018 -3.05268901 -0.19079306 0 0 Z " fill="#64B06F" transform="translate(316,235)"/>
<path d="M0 0 C2.4375 0.25 2.4375 0.25 5 1 C5.66 1.99 6.32 2.98 7 4 C1.25 3.25 1.25 3.25 -1 1 C-0.67 0.67 -0.34 0.34 0 0 Z " fill="#85C294" transform="translate(198,234)"/>
<path d="M0 0 C0.66 0.33 1.32 0.66 2 1 C2.1875 3.8125 2.1875 3.8125 2 7 C1.01 7.99 0.02 8.98 -1 10 C-0.67 6.7 -0.34 3.4 0 0 Z " fill="#68AD70" transform="translate(145,227)"/>
<path d="M0 0 C2.97 0.495 2.97 0.495 6 1 C1.25 5 1.25 5 -1 5 C-0.67 3.35 -0.34 1.7 0 0 Z " fill="#70BC7D" transform="translate(93,194)"/>
<path d="M0 0 C3.4557601 1.15192003 4.19828537 1.91134634 6 5 C6.1875 7.75 6.1875 7.75 6 10 C3.47650757 6.87567603 1.72743854 3.61939504 0 0 Z " fill="#EEE094" transform="translate(345,169)"/>
<path d="M0 0 C0.66 0.33 1.32 0.66 2 1 C-0.75 3.0625 -0.75 3.0625 -4 5 C-6.203125 4.62109375 -6.203125 4.62109375 -8 4 C-6.71349294 3.30289269 -5.42059335 2.61757124 -4.125 1.9375 C-3.40570313 1.55464844 -2.68640625 1.17179688 -1.9453125 0.77734375 C-1.30335938 0.52082031 -0.66140625 0.26429688 0 0 Z " fill="#E8DD92" transform="translate(227,147)"/>
<path d="M0 0 C0.33 0.66 0.66 1.32 1 2 C-3.455 2.495 -3.455 2.495 -8 3 C-8 2.34 -8 1.68 -8 1 C-5.29120665 -0.35439668 -2.99066732 -0.06501451 0 0 Z " fill="#E3D06E" transform="translate(280,133)"/>
<path d="M0 0 C0.66 0.33 1.32 0.66 2 1 C0.9024777 3.99324263 0.32317108 4.84610901 -2.625 6.25 C-3.40875 6.4975 -4.1925 6.745 -5 7 C-3.70700306 4.11562221 -2.34058637 2.12780579 0 0 Z " fill="#EBDE84" transform="translate(256,129)"/>
<path d="M0 0 C1.98 0 3.96 0 6 0 C6 0.99 6 1.98 6 3 C4.02 3 2.04 3 0 3 C0 2.01 0 1.02 0 0 Z " fill="#837E78" transform="translate(239,342)"/>
<path d="M0 0 C0.33 0 0.66 0 1 0 C1 1.65 1 3.3 1 5 C-0.98 5.66 -2.96 6.32 -5 7 C-4.19152271 5.83054208 -3.37810888 4.66449539 -2.5625 3.5 C-2.11003906 2.8503125 -1.65757812 2.200625 -1.19140625 1.53125 C-0.79824219 1.0259375 -0.40507812 0.520625 0 0 Z " fill="#E6DC7E" transform="translate(348,206)"/>
</svg>
